  0
SECTION
  2
HEADER
  9
$ACADVER
  1
AC1014
  9
$HANDSEED
  5
FFFF
  9
$MEASUREMENT
 70
     1
  0
ENDSEC
  0
SECTION
  2
TABLES
  0
TABLE
  2
VPORT
  5
8
330
0
100
AcDbSymbolTable
 70
     4
  0
VPORT
  5
2E
330
8
100
AcDbSymbolTableRecord
100
AcDbViewportTableRecord
  2
*ACTIVE
 70
     0
 10
0.0
 20
0.0
 11
1.0
 21
1.0
 12
210.0
 22
148.5
 13
0.0
 23
0.0
 14
10.0
 24
10.0
 15
10.0
 25
10.0
 16
0.0
 26
0.0
 36
1.0
 17
0.0
 27
0.0
 37
0.0
 40
341.0
 41
1.24
 42
50.0
 43
0.0
 44
0.0
 50
0.0
 51
0.0
 71
     0
 72
   100
 73
     1
 74
     3
 75
     0
 76
     0
 77
     0
 78
     0
  0
ENDTAB
  0
TABLE
  2
LTYPE
  5
5
330
0
100
AcDbSymbolTable
 70
     1
  0
LTYPE
  5
14
330
5
100
AcDbSymbolTableRecord
100
AcDbLinetypeTableRecord
  2
BYBLOCK
 70
     0
  3

 72
    65
 73
     0
 40
0.0
  0
LTYPE
  5
15
330
5
100
AcDbSymbolTableRecord
100
AcDbLinetypeTableRecord
  2
BYLAYER
 70
     0
  3

 72
    65
 73
     0
 40
0.0
  0
LTYPE
  5
16
330
5
100
AcDbSymbolTableRecord
100
AcDbLinetypeTableRecord
  2
CONTINUOUS
 70
     0
  3
Solid line
 72
    65
 73
     0
 40
0.0
  0
ENDTAB
  0
TABLE
  2
LAYER
  5
2
100
AcDbSymbolTable
 70
2
  0
LAYER
  5
50
100
AcDbSymbolTableRecord
100
AcDbLayerTableRecord
  2
0
 70
0
  6
CONTINUOUS
  0
LAYER
  5
51
100
AcDbSymbolTableRecord
100
AcDbLayerTableRecord
  2
rfid_positioning_jig
 70
0
  6
CONTINUOUS
  0
ENDTAB
  0
TABLE
  2
STYLE
  5
3
330
0
100
AcDbSymbolTable
 70
     1
  0
STYLE
  5
11
330
3
100
AcDbSymbolTableRecord
100
AcDbTextStyleTableRecord
  2
STANDARD
 70
     0
 40
0.0
 41
1.0
 50
0.0
 71
     0
 42
2.5
  3
txt
  4

  0
ENDTAB
  0
TABLE
  2
VIEW
  5
6
330
0
100
AcDbSymbolTable
 70
     0
  0
ENDTAB
  0
TABLE
  2
UCS
  5
7
330
0
100
AcDbSymbolTable
 70
     0
  0
ENDTAB
  0
TABLE
  2
APPID
  5
9
330
0
100
AcDbSymbolTable
 70
     2
  0
APPID
  5
12
330
9
100
AcDbSymbolTableRecord
100
AcDbRegAppTableRecord
  2
ACAD
 70
     0
  0
ENDTAB
  0
TABLE
  2
DIMSTYLE
  5
A
330
0
100
AcDbSymbolTable
 70
     1
  0
DIMSTYLE
105
27
330
A
100
AcDbSymbolTableRecord
100
AcDbDimStyleTableRecord
  2
ISO-25
 70
     0
  3

  4

  5

  6

  7

 40
1.0
 41
2.5
 42
0.625
 43
3.75
 44
1.25
 45
0.0
 46
0.0
 47
0.0
 48
0.0
140
2.5
141
2.5
142
0.0
143
0.03937007874016
144
1.0
145
0.0
146
1.0
147
0.625
 71
     0
 72
     0
 73
     0
 74
     0
 75
     0
 76
     0
 77
     1
 78
     8
170
     0
171
     3
172
     1
173
     0
174
     0
175
     0
176
     0
177
     0
178
     0
270
     2
271
     2
272
     2
273
     2
274
     3
340
11
275
     0
280
     0
281
     0
282
     0
283
     0
284
     8
285
     0
286
     0
287
     3
288
     0
  0
ENDTAB
  0
TABLE
  2
BLOCK_RECORD
  5
1
330
0
100
AcDbSymbolTable
 70
     1
  0
BLOCK_RECORD
  5
1F
330
1
100
AcDbSymbolTableRecord
100
AcDbBlockTableRecord
  2
*MODEL_SPACE
  0
BLOCK_RECORD
  5
1B
330
1
100
AcDbSymbolTableRecord
100
AcDbBlockTableRecord
  2
*PAPER_SPACE
  0
ENDTAB
  0
ENDSEC
  0
SECTION
  2
BLOCKS
  0
BLOCK
  5
20
330
1F
100
AcDbEntity
  8
0
100
AcDbBlockBegin
  2
*MODEL_SPACE
 70
     0
 10
0.0
 20
0.0
 30
0.0
  3
*MODEL_SPACE
  1

  0
ENDBLK
  5
21
330
1F
100
AcDbEntity
  8
0
100
AcDbBlockEnd
  0
BLOCK
  5
1C
330
1B
100
AcDbEntity
 67
     1
  8
0
100
AcDbBlockBegin
  2
*PAPER_SPACE
  1

  0
ENDBLK
  5
1D
330
1B
100
AcDbEntity
 67
     1
  8
0
100
AcDbBlockEnd
  0
ENDSEC
  0
SECTION
  2
ENTITIES
  0
LWPOLYLINE
  5
100
100
AcDbEntity
  8
rfid_positioning_jig
 62
1
100
AcDbPolyline
 90
4
 70
1
 10
199.960084
 20
34.022594
 30
0.0
 10
34.160177
 20
34.022594
 30
0.0
 10
34.160177
 20
144.822682
 30
0.0
 10
199.960084
 20
144.822682
 30
0.0
  0
SPLINE
  5
101
100
AcDbEntity
  8
rfid_positioning_jig
 62
1
100
AcDbSpline
 70
8
 71
3
 72
8
 73
4
 74
0
 40
0
 40
0
 40
0
 40
0
 40
1
 40
1
 40
1
 40
1
 10
30.109935
 20
150.872433
 30
0.0
 10
30.109935
 20
149.767886
 30
0.0
 10
29.214585
 20
148.872536
 30
0.0
 10
28.110038
 20
148.872536
 30
0.0
  0
SPLINE
  5
102
100
AcDbEntity
  8
rfid_positioning_jig
 62
1
100
AcDbSpline
 70
8
 71
3
 72
8
 73
4
 74
0
 40
0
 40
0
 40
0
 40
0
 40
1
 40
1
 40
1
 40
1
 10
28.110038
 20
148.872536
 30
0.0
 10
27.005491
 20
148.872536
 30
0.0
 10
26.109788
 20
149.767886
 30
0.0
 10
26.109788
 20
150.872433
 30
0.0
  0
SPLINE
  5
103
100
AcDbEntity
  8
rfid_positioning_jig
 62
1
100
AcDbSpline
 70
8
 71
3
 72
8
 73
4
 74
0
 40
0
 40
0
 40
0
 40
0
 40
1
 40
1
 40
1
 40
1
 10
26.109788
 20
150.872433
 30
0.0
 10
26.109788
 20
151.976980
 30
0.0
 10
27.005491
 20
152.872330
 30
0.0
 10
28.110038
 20
152.872330
 30
0.0
  0
SPLINE
  5
104
100
AcDbEntity
  8
rfid_positioning_jig
 62
1
100
AcDbSpline
 70
8
 71
3
 72
8
 73
4
 74
0
 40
0
 40
0
 40
0
 40
0
 40
1
 40
1
 40
1
 40
1
 10
28.110038
 20
152.872330
 30
0.0
 10
29.214585
 20
152.872330
 30
0.0
 10
30.109935
 20
151.976980
 30
0.0
 10
30.109935
 20
150.872433
 30
0.0
  0
LWPOLYLINE
  5
105
100
AcDbEntity
  8
rfid_positioning_jig
 62
1
100
AcDbPolyline
 90
4
 70
1
 10
212.060009
 20
21.922316
 30
0.0
 10
22.059899
 20
21.922316
 30
0.0
 10
22.059899
 20
156.922254
 30
0.0
 10
212.060009
 20
156.922254
 30
0.0
  0
SPLINE
  5
106
100
AcDbEntity
  8
rfid_positioning_jig
 62
1
100
AcDbSpline
 70
8
 71
3
 72
8
 73
4
 74
0
 40
0
 40
0
 40
0
 40
0
 40
1
 40
1
 40
1
 40
1
 10
30.109935
 20
27.972455
 30
0.0
 10
30.109935
 20
26.867908
 30
0.0
 10
29.214585
 20
25.972558
 30
0.0
 10
28.110038
 20
25.972558
 30
0.0
  0
SPLINE
  5
107
100
AcDbEntity
  8
rfid_positioning_jig
 62
1
100
AcDbSpline
 70
8
 71
3
 72
8
 73
4
 74
0
 40
0
 40
0
 40
0
 40
0
 40
1
 40
1
 40
1
 40
1
 10
28.110038
 20
25.972558
 30
0.0
 10
27.005491
 20
25.972558
 30
0.0
 10
26.109788
 20
26.867908
 30
0.0
 10
26.109788
 20
27.972455
 30
0.0
  0
SPLINE
  5
108
100
AcDbEntity
  8
rfid_positioning_jig
 62
1
100
AcDbSpline
 70
8
 71
3
 72
8
 73
4
 74
0
 40
0
 40
0
 40
0
 40
0
 40
1
 40
1
 40
1
 40
1
 10
26.109788
 20
27.972455
 30
0.0
 10
26.109788
 20
29.077002
 30
0.0
 10
27.005491
 20
29.972352
 30
0.0
 10
28.110038
 20
29.972352
 30
0.0
  0
SPLINE
  5
109
100
AcDbEntity
  8
rfid_positioning_jig
 62
1
100
AcDbSpline
 70
8
 71
3
 72
8
 73
4
 74
0
 40
0
 40
0
 40
0
 40
0
 40
1
 40
1
 40
1
 40
1
 10
28.110038
 20
29.972352
 30
0.0
 10
29.214585
 20
29.972352
 30
0.0
 10
30.109935
 20
29.077002
 30
0.0
 10
30.109935
 20
27.972455
 30
0.0
  0
LWPOLYLINE
  5
10a
100
AcDbEntity
  8
rfid_positioning_jig
 62
1
100
AcDbPolyline
 90
1
 70
1
 10
30.109935
 20
150.872433
 30
0.0
  0
SPLINE
  5
10b
100
AcDbEntity
  8
rfid_positioning_jig
 62
1
100
AcDbSpline
 70
8
 71
3
 72
8
 73
4
 74
0
 40
0
 40
0
 40
0
 40
0
 40
1
 40
1
 40
1
 40
1
 10
208.009943
 20
27.972455
 30
0.0
 10
208.009943
 20
26.867908
 30
0.0
 10
207.114593
 20
25.972558
 30
0.0
 10
206.010046
 20
25.972558
 30
0.0
  0
SPLINE
  5
10c
100
AcDbEntity
  8
rfid_positioning_jig
 62
1
100
AcDbSpline
 70
8
 71
3
 72
8
 73
4
 74
0
 40
0
 40
0
 40
0
 40
0
 40
1
 40
1
 40
1
 40
1
 10
206.010046
 20
25.972558
 30
0.0
 10
204.905499
 20
25.972558
 30
0.0
 10
204.009796
 20
26.867908
 30
0.0
 10
204.009796
 20
27.972455
 30
0.0
  0
SPLINE
  5
10d
100
AcDbEntity
  8
rfid_positioning_jig
 62
1
100
AcDbSpline
 70
8
 71
3
 72
8
 73
4
 74
0
 40
0
 40
0
 40
0
 40
0
 40
1
 40
1
 40
1
 40
1
 10
204.009796
 20
27.972455
 30
0.0
 10
204.009796
 20
29.077002
 30
0.0
 10
204.905499
 20
29.972352
 30
0.0
 10
206.010046
 20
29.972352
 30
0.0
  0
SPLINE
  5
10e
100
AcDbEntity
  8
rfid_positioning_jig
 62
1
100
AcDbSpline
 70
8
 71
3
 72
8
 73
4
 74
0
 40
0
 40
0
 40
0
 40
0
 40
1
 40
1
 40
1
 40
1
 10
206.010046
 20
29.972352
 30
0.0
 10
207.114593
 20
29.972352
 30
0.0
 10
208.009943
 20
29.077002
 30
0.0
 10
208.009943
 20
27.972455
 30
0.0
  0
LWPOLYLINE
  5
10f
100
AcDbEntity
  8
rfid_positioning_jig
 62
1
100
AcDbPolyline
 90
1
 70
1
 10
30.109935
 20
27.972455
 30
0.0
  0
SPLINE
  5
110
100
AcDbEntity
  8
rfid_positioning_jig
 62
1
100
AcDbSpline
 70
8
 71
3
 72
8
 73
4
 74
0
 40
0
 40
0
 40
0
 40
0
 40
1
 40
1
 40
1
 40
1
 10
208.009943
 20
150.872433
 30
0.0
 10
208.009943
 20
149.767886
 30
0.0
 10
207.114593
 20
148.872536
 30
0.0
 10
206.010046
 20
148.872536
 30
0.0
  0
SPLINE
  5
111
100
AcDbEntity
  8
rfid_positioning_jig
 62
1
100
AcDbSpline
 70
8
 71
3
 72
8
 73
4
 74
0
 40
0
 40
0
 40
0
 40
0
 40
1
 40
1
 40
1
 40
1
 10
206.010046
 20
148.872536
 30
0.0
 10
204.905499
 20
148.872536
 30
0.0
 10
204.009796
 20
149.767886
 30
0.0
 10
204.009796
 20
150.872433
 30
0.0
  0
SPLINE
  5
112
100
AcDbEntity
  8
rfid_positioning_jig
 62
1
100
AcDbSpline
 70
8
 71
3
 72
8
 73
4
 74
0
 40
0
 40
0
 40
0
 40
0
 40
1
 40
1
 40
1
 40
1
 10
204.009796
 20
150.872433
 30
0.0
 10
204.009796
 20
151.976980
 30
0.0
 10
204.905499
 20
152.872330
 30
0.0
 10
206.010046
 20
152.872330
 30
0.0
  0
SPLINE
  5
113
100
AcDbEntity
  8
rfid_positioning_jig
 62
1
100
AcDbSpline
 70
8
 71
3
 72
8
 73
4
 74
0
 40
0
 40
0
 40
0
 40
0
 40
1
 40
1
 40
1
 40
1
 10
206.010046
 20
152.872330
 30
0.0
 10
207.114593
 20
152.872330
 30
0.0
 10
208.009943
 20
151.976980
 30
0.0
 10
208.009943
 20
150.872433
 30
0.0
  0
LWPOLYLINE
  5
114
100
AcDbEntity
  8
rfid_positioning_jig
 62
1
100
AcDbPolyline
 90
1
 70
1
 10
208.009943
 20
27.972455
 30
0.0
  0
LWPOLYLINE
  5
115
100
AcDbEntity
  8
rfid_positioning_jig
 62
1
100
AcDbPolyline
 90
1
 70
1
 10
208.009943
 20
150.872433
 30
0.0
  0
SPLINE
  5
116
100
AcDbEntity
  8
rfid_positioning_jig
 62
1
100
AcDbSpline
 70
8
 71
3
 72
8
 73
4
 74
0
 40
0
 40
0
 40
0
 40
0
 40
1
 40
1
 40
1
 40
1
 10
30.109935
 20
454.112866
 30
0.0
 10
30.109935
 20
453.008318
 30
0.0
 10
29.214585
 20
452.112968
 30
0.0
 10
28.110038
 20
452.112968
 30
0.0
  0
SPLINE
  5
117
100
AcDbEntity
  8
rfid_positioning_jig
 62
1
100
AcDbSpline
 70
8
 71
3
 72
8
 73
4
 74
0
 40
0
 40
0
 40
0
 40
0
 40
1
 40
1
 40
1
 40
1
 10
28.110038
 20
452.112968
 30
0.0
 10
27.005491
 20
452.112968
 30
0.0
 10
26.109788
 20
453.008318
 30
0.0
 10
26.109788
 20
454.112866
 30
0.0
  0
SPLINE
  5
118
100
AcDbEntity
  8
rfid_positioning_jig
 62
1
100
AcDbSpline
 70
8
 71
3
 72
8
 73
4
 74
0
 40
0
 40
0
 40
0
 40
0
 40
1
 40
1
 40
1
 40
1
 10
26.109788
 20
454.112866
 30
0.0
 10
26.109788
 20
455.217413
 30
0.0
 10
27.005491
 20
456.112763
 30
0.0
 10
28.110038
 20
456.112763
 30
0.0
  0
SPLINE
  5
119
100
AcDbEntity
  8
rfid_positioning_jig
 62
1
100
AcDbSpline
 70
8
 71
3
 72
8
 73
4
 74
0
 40
0
 40
0
 40
0
 40
0
 40
1
 40
1
 40
1
 40
1
 10
28.110038
 20
456.112763
 30
0.0
 10
29.214585
 20
456.112763
 30
0.0
 10
30.109935
 20
455.217413
 30
0.0
 10
30.109935
 20
454.112866
 30
0.0
  0
LWPOLYLINE
  5
11a
100
AcDbEntity
  8
rfid_positioning_jig
 62
1
100
AcDbPolyline
 90
4
 70
1
 10
212.060009
 20
325.163031
 30
0.0
 10
22.059899
 20
325.163031
 30
0.0
 10
22.059899
 20
460.162969
 30
0.0
 10
212.060009
 20
460.162969
 30
0.0
  0
SPLINE
  5
11b
100
AcDbEntity
  8
rfid_positioning_jig
 62
1
100
AcDbSpline
 70
8
 71
3
 72
8
 73
4
 74
0
 40
0
 40
0
 40
0
 40
0
 40
1
 40
1
 40
1
 40
1
 10
30.109935
 20
331.212887
 30
0.0
 10
30.109935
 20
330.108340
 30
0.0
 10
29.214585
 20
329.212990
 30
0.0
 10
28.110038
 20
329.212990
 30
0.0
  0
SPLINE
  5
11c
100
AcDbEntity
  8
rfid_positioning_jig
 62
1
100
AcDbSpline
 70
8
 71
3
 72
8
 73
4
 74
0
 40
0
 40
0
 40
0
 40
0
 40
1
 40
1
 40
1
 40
1
 10
28.110038
 20
329.212990
 30
0.0
 10
27.005491
 20
329.212990
 30
0.0
 10
26.109788
 20
330.108340
 30
0.0
 10
26.109788
 20
331.212887
 30
0.0
  0
SPLINE
  5
11d
100
AcDbEntity
  8
rfid_positioning_jig
 62
1
100
AcDbSpline
 70
8
 71
3
 72
8
 73
4
 74
0
 40
0
 40
0
 40
0
 40
0
 40
1
 40
1
 40
1
 40
1
 10
26.109788
 20
331.212887
 30
0.0
 10
26.109788
 20
332.317434
 30
0.0
 10
27.005491
 20
333.212784
 30
0.0
 10
28.110038
 20
333.212784
 30
0.0
  0
SPLINE
  5
11e
100
AcDbEntity
  8
rfid_positioning_jig
 62
1
100
AcDbSpline
 70
8
 71
3
 72
8
 73
4
 74
0
 40
0
 40
0
 40
0
 40
0
 40
1
 40
1
 40
1
 40
1
 10
28.110038
 20
333.212784
 30
0.0
 10
29.214585
 20
333.212784
 30
0.0
 10
30.109935
 20
332.317434
 30
0.0
 10
30.109935
 20
331.212887
 30
0.0
  0
LWPOLYLINE
  5
11f
100
AcDbEntity
  8
rfid_positioning_jig
 62
1
100
AcDbPolyline
 90
1
 70
1
 10
30.109935
 20
454.112866
 30
0.0
  0
SPLINE
  5
120
100
AcDbEntity
  8
rfid_positioning_jig
 62
1
100
AcDbSpline
 70
8
 71
3
 72
8
 73
4
 74
0
 40
0
 40
0
 40
0
 40
0
 40
1
 40
1
 40
1
 40
1
 10
208.009943
 20
331.212887
 30
0.0
 10
208.009943
 20
330.108340
 30
0.0
 10
207.114593
 20
329.212990
 30
0.0
 10
206.010046
 20
329.212990
 30
0.0
  0
SPLINE
  5
121
100
AcDbEntity
  8
rfid_positioning_jig
 62
1
100
AcDbSpline
 70
8
 71
3
 72
8
 73
4
 74
0
 40
0
 40
0
 40
0
 40
0
 40
1
 40
1
 40
1
 40
1
 10
206.010046
 20
329.212990
 30
0.0
 10
204.905499
 20
329.212990
 30
0.0
 10
204.009796
 20
330.108340
 30
0.0
 10
204.009796
 20
331.212887
 30
0.0
  0
SPLINE
  5
122
100
AcDbEntity
  8
rfid_positioning_jig
 62
1
100
AcDbSpline
 70
8
 71
3
 72
8
 73
4
 74
0
 40
0
 40
0
 40
0
 40
0
 40
1
 40
1
 40
1
 40
1
 10
204.009796
 20
331.212887
 30
0.0
 10
204.009796
 20
332.317434
 30
0.0
 10
204.905499
 20
333.212784
 30
0.0
 10
206.010046
 20
333.212784
 30
0.0
  0
SPLINE
  5
123
100
AcDbEntity
  8
rfid_positioning_jig
 62
1
100
AcDbSpline
 70
8
 71
3
 72
8
 73
4
 74
0
 40
0
 40
0
 40
0
 40
0
 40
1
 40
1
 40
1
 40
1
 10
206.010046
 20
333.212784
 30
0.0
 10
207.114593
 20
333.212784
 30
0.0
 10
208.009943
 20
332.317434
 30
0.0
 10
208.009943
 20
331.212887
 30
0.0
  0
LWPOLYLINE
  5
124
100
AcDbEntity
  8
rfid_positioning_jig
 62
1
100
AcDbPolyline
 90
1
 70
1
 10
30.109935
 20
331.212887
 30
0.0
  0
SPLINE
  5
125
100
AcDbEntity
  8
rfid_positioning_jig
 62
1
100
AcDbSpline
 70
8
 71
3
 72
8
 73
4
 74
0
 40
0
 40
0
 40
0
 40
0
 40
1
 40
1
 40
1
 40
1
 10
208.009943
 20
454.112866
 30
0.0
 10
208.009943
 20
453.008318
 30
0.0
 10
207.114593
 20
452.112968
 30
0.0
 10
206.010046
 20
452.112968
 30
0.0
  0
SPLINE
  5
126
100
AcDbEntity
  8
rfid_positioning_jig
 62
1
100
AcDbSpline
 70
8
 71
3
 72
8
 73
4
 74
0
 40
0
 40
0
 40
0
 40
0
 40
1
 40
1
 40
1
 40
1
 10
206.010046
 20
452.112968
 30
0.0
 10
204.905499
 20
452.112968
 30
0.0
 10
204.009796
 20
453.008318
 30
0.0
 10
204.009796
 20
454.112866
 30
0.0
  0
SPLINE
  5
127
100
AcDbEntity
  8
rfid_positioning_jig
 62
1
100
AcDbSpline
 70
8
 71
3
 72
8
 73
4
 74
0
 40
0
 40
0
 40
0
 40
0
 40
1
 40
1
 40
1
 40
1
 10
204.009796
 20
454.112866
 30
0.0
 10
204.009796
 20
455.217413
 30
0.0
 10
204.905499
 20
456.112763
 30
0.0
 10
206.010046
 20
456.112763
 30
0.0
  0
SPLINE
  5
128
100
AcDbEntity
  8
rfid_positioning_jig
 62
1
100
AcDbSpline
 70
8
 71
3
 72
8
 73
4
 74
0
 40
0
 40
0
 40
0
 40
0
 40
1
 40
1
 40
1
 40
1
 10
206.010046
 20
456.112763
 30
0.0
 10
207.114593
 20
456.112763
 30
0.0
 10
208.009943
 20
455.217413
 30
0.0
 10
208.009943
 20
454.112866
 30
0.0
  0
LWPOLYLINE
  5
129
100
AcDbEntity
  8
rfid_positioning_jig
 62
1
100
AcDbPolyline
 90
1
 70
1
 10
208.009943
 20
331.212887
 30
0.0
  0
LWPOLYLINE
  5
12a
100
AcDbEntity
  8
rfid_positioning_jig
 62
1
100
AcDbPolyline
 90
1
 70
1
 10
208.009943
 20
454.112866
 30
0.0
  0
LWPOLYLINE
  5
12b
100
AcDbEntity
  8
rfid_positioning_jig
 62
1
100
AcDbPolyline
 90
4
 70
1
 10
143.275664
 20
355.873711
 30
0.0
 10
90.844244
 20
355.873711
 30
0.0
 10
90.844244
 20
429.452288
 30
0.0
 10
143.275664
 20
429.452288
 30
0.0
  0
SPLINE
  5
12c
100
AcDbEntity
  8
rfid_positioning_jig
 62
1
100
AcDbSpline
 70
8
 71
3
 72
8
 73
4
 74
0
 40
0
 40
0
 40
0
 40
0
 40
1
 40
1
 40
1
 40
1
 10
30.109935
 20
302.492649
 30
0.0
 10
30.109935
 20
301.388102
 30
0.0
 10
29.214585
 20
300.492752
 30
0.0
 10
28.110038
 20
300.492752
 30
0.0
  0
SPLINE
  5
12d
100
AcDbEntity
  8
rfid_positioning_jig
 62
1
100
AcDbSpline
 70
8
 71
3
 72
8
 73
4
 74
0
 40
0
 40
0
 40
0
 40
0
 40
1
 40
1
 40
1
 40
1
 10
28.110038
 20
300.492752
 30
0.0
 10
27.005491
 20
300.492752
 30
0.0
 10
26.109788
 20
301.388102
 30
0.0
 10
26.109788
 20
302.492649
 30
0.0
  0
SPLINE
  5
12e
100
AcDbEntity
  8
rfid_positioning_jig
 62
1
100
AcDbSpline
 70
8
 71
3
 72
8
 73
4
 74
0
 40
0
 40
0
 40
0
 40
0
 40
1
 40
1
 40
1
 40
1
 10
26.109788
 20
302.492649
 30
0.0
 10
26.109788
 20
303.597197
 30
0.0
 10
27.005491
 20
304.492547
 30
0.0
 10
28.110038
 20
304.492547
 30
0.0
  0
SPLINE
  5
12f
100
AcDbEntity
  8
rfid_positioning_jig
 62
1
100
AcDbSpline
 70
8
 71
3
 72
8
 73
4
 74
0
 40
0
 40
0
 40
0
 40
0
 40
1
 40
1
 40
1
 40
1
 10
28.110038
 20
304.492547
 30
0.0
 10
29.214585
 20
304.492547
 30
0.0
 10
30.109935
 20
303.597197
 30
0.0
 10
30.109935
 20
302.492649
 30
0.0
  0
LWPOLYLINE
  5
130
100
AcDbEntity
  8
rfid_positioning_jig
 62
1
100
AcDbPolyline
 90
4
 70
1
 10
212.060009
 20
173.542673
 30
0.0
 10
22.059899
 20
173.542673
 30
0.0
 10
22.059899
 20
308.542612
 30
0.0
 10
212.060009
 20
308.542612
 30
0.0
  0
SPLINE
  5
131
100
AcDbEntity
  8
rfid_positioning_jig
 62
1
100
AcDbSpline
 70
8
 71
3
 72
8
 73
4
 74
0
 40
0
 40
0
 40
0
 40
0
 40
1
 40
1
 40
1
 40
1
 10
30.109935
 20
179.592671
 30
0.0
 10
30.109935
 20
178.488124
 30
0.0
 10
29.214585
 20
177.592774
 30
0.0
 10
28.110038
 20
177.592774
 30
0.0
  0
SPLINE
  5
132
100
AcDbEntity
  8
rfid_positioning_jig
 62
1
100
AcDbSpline
 70
8
 71
3
 72
8
 73
4
 74
0
 40
0
 40
0
 40
0
 40
0
 40
1
 40
1
 40
1
 40
1
 10
28.110038
 20
177.592774
 30
0.0
 10
27.005491
 20
177.592774
 30
0.0
 10
26.109788
 20
178.488124
 30
0.0
 10
26.109788
 20
179.592671
 30
0.0
  0
SPLINE
  5
133
100
AcDbEntity
  8
rfid_positioning_jig
 62
1
100
AcDbSpline
 70
8
 71
3
 72
8
 73
4
 74
0
 40
0
 40
0
 40
0
 40
0
 40
1
 40
1
 40
1
 40
1
 10
26.109788
 20
179.592671
 30
0.0
 10
26.109788
 20
180.697218
 30
0.0
 10
27.005491
 20
181.592568
 30
0.0
 10
28.110038
 20
181.592568
 30
0.0
  0
SPLINE
  5
134
100
AcDbEntity
  8
rfid_positioning_jig
 62
1
100
AcDbSpline
 70
8
 71
3
 72
8
 73
4
 74
0
 40
0
 40
0
 40
0
 40
0
 40
1
 40
1
 40
1
 40
1
 10
28.110038
 20
181.592568
 30
0.0
 10
29.214585
 20
181.592568
 30
0.0
 10
30.109935
 20
180.697218
 30
0.0
 10
30.109935
 20
179.592671
 30
0.0
  0
LWPOLYLINE
  5
135
100
AcDbEntity
  8
rfid_positioning_jig
 62
1
100
AcDbPolyline
 90
1
 70
1
 10
30.109935
 20
302.492649
 30
0.0
  0
SPLINE
  5
136
100
AcDbEntity
  8
rfid_positioning_jig
 62
1
100
AcDbSpline
 70
8
 71
3
 72
8
 73
4
 74
0
 40
0
 40
0
 40
0
 40
0
 40
1
 40
1
 40
1
 40
1
 10
208.009943
 20
179.592671
 30
0.0
 10
208.009943
 20
178.488124
 30
0.0
 10
207.114593
 20
177.592774
 30
0.0
 10
206.010046
 20
177.592774
 30
0.0
  0
SPLINE
  5
137
100
AcDbEntity
  8
rfid_positioning_jig
 62
1
100
AcDbSpline
 70
8
 71
3
 72
8
 73
4
 74
0
 40
0
 40
0
 40
0
 40
0
 40
1
 40
1
 40
1
 40
1
 10
206.010046
 20
177.592774
 30
0.0
 10
204.905499
 20
177.592774
 30
0.0
 10
204.009796
 20
178.488124
 30
0.0
 10
204.009796
 20
179.592671
 30
0.0
  0
SPLINE
  5
138
100
AcDbEntity
  8
rfid_positioning_jig
 62
1
100
AcDbSpline
 70
8
 71
3
 72
8
 73
4
 74
0
 40
0
 40
0
 40
0
 40
0
 40
1
 40
1
 40
1
 40
1
 10
204.009796
 20
179.592671
 30
0.0
 10
204.009796
 20
180.697218
 30
0.0
 10
204.905499
 20
181.592568
 30
0.0
 10
206.010046
 20
181.592568
 30
0.0
  0
SPLINE
  5
139
100
AcDbEntity
  8
rfid_positioning_jig
 62
1
100
AcDbSpline
 70
8
 71
3
 72
8
 73
4
 74
0
 40
0
 40
0
 40
0
 40
0
 40
1
 40
1
 40
1
 40
1
 10
206.010046
 20
181.592568
 30
0.0
 10
207.114593
 20
181.592568
 30
0.0
 10
208.009943
 20
180.697218
 30
0.0
 10
208.009943
 20
179.592671
 30
0.0
  0
LWPOLYLINE
  5
13a
100
AcDbEntity
  8
rfid_positioning_jig
 62
1
100
AcDbPolyline
 90
1
 70
1
 10
30.109935
 20
179.592671
 30
0.0
  0
SPLINE
  5
13b
100
AcDbEntity
  8
rfid_positioning_jig
 62
1
100
AcDbSpline
 70
8
 71
3
 72
8
 73
4
 74
0
 40
0
 40
0
 40
0
 40
0
 40
1
 40
1
 40
1
 40
1
 10
208.009943
 20
302.492649
 30
0.0
 10
208.009943
 20
301.388102
 30
0.0
 10
207.114593
 20
300.492752
 30
0.0
 10
206.010046
 20
300.492752
 30
0.0
  0
SPLINE
  5
13c
100
AcDbEntity
  8
rfid_positioning_jig
 62
1
100
AcDbSpline
 70
8
 71
3
 72
8
 73
4
 74
0
 40
0
 40
0
 40
0
 40
0
 40
1
 40
1
 40
1
 40
1
 10
206.010046
 20
300.492752
 30
0.0
 10
204.905499
 20
300.492752
 30
0.0
 10
204.009796
 20
301.388102
 30
0.0
 10
204.009796
 20
302.492649
 30
0.0
  0
SPLINE
  5
13d
100
AcDbEntity
  8
rfid_positioning_jig
 62
1
100
AcDbSpline
 70
8
 71
3
 72
8
 73
4
 74
0
 40
0
 40
0
 40
0
 40
0
 40
1
 40
1
 40
1
 40
1
 10
204.009796
 20
302.492649
 30
0.0
 10
204.009796
 20
303.597197
 30
0.0
 10
204.905499
 20
304.492547
 30
0.0
 10
206.010046
 20
304.492547
 30
0.0
  0
SPLINE
  5
13e
100
AcDbEntity
  8
rfid_positioning_jig
 62
1
100
AcDbSpline
 70
8
 71
3
 72
8
 73
4
 74
0
 40
0
 40
0
 40
0
 40
0
 40
1
 40
1
 40
1
 40
1
 10
206.010046
 20
304.492547
 30
0.0
 10
207.114593
 20
304.492547
 30
0.0
 10
208.009943
 20
303.597197
 30
0.0
 10
208.009943
 20
302.492649
 30
0.0
  0
LWPOLYLINE
  5
13f
100
AcDbEntity
  8
rfid_positioning_jig
 62
1
100
AcDbPolyline
 90
1
 70
1
 10
208.009943
 20
179.592671
 30
0.0
  0
LWPOLYLINE
  5
140
100
AcDbEntity
  8
rfid_positioning_jig
 62
1
100
AcDbPolyline
 90
1
 70
1
 10
208.009943
 20
302.492649
 30
0.0
  0
LWPOLYLINE
  5
141
100
AcDbEntity
  8
rfid_positioning_jig
 62
1
100
AcDbPolyline
 90
4
 70
1
 10
143.275643
 20
204.253474
 30
0.0
 10
90.844265
 20
204.253474
 30
0.0
 10
90.844265
 20
277.831815
 30
0.0
 10
143.275643
 20
277.831815
 30
0.0
  0
SPLINE
  5
142
100
AcDbEntity
  8
rfid_positioning_jig
 62
1
100
AcDbSpline
 70
8
 71
3
 72
8
 73
4
 74
0
 40
0
 40
0
 40
0
 40
0
 40
1
 40
1
 40
1
 40
1
 10
30.109935
 20
603.708137
 30
0.0
 10
30.109935
 20
602.603590
 30
0.0
 10
29.214585
 20
601.708240
 30
0.0
 10
28.110038
 20
601.708240
 30
0.0
  0
SPLINE
  5
143
100
AcDbEntity
  8
rfid_positioning_jig
 62
1
100
AcDbSpline
 70
8
 71
3
 72
8
 73
4
 74
0
 40
0
 40
0
 40
0
 40
0
 40
1
 40
1
 40
1
 40
1
 10
28.110038
 20
601.708240
 30
0.0
 10
27.005491
 20
601.708240
 30
0.0
 10
26.109788
 20
602.603590
 30
0.0
 10
26.109788
 20
603.708137
 30
0.0
  0
SPLINE
  5
144
100
AcDbEntity
  8
rfid_positioning_jig
 62
1
100
AcDbSpline
 70
8
 71
3
 72
8
 73
4
 74
0
 40
0
 40
0
 40
0
 40
0
 40
1
 40
1
 40
1
 40
1
 10
26.109788
 20
603.708137
 30
0.0
 10
26.109788
 20
604.812685
 30
0.0
 10
27.005491
 20
605.708035
 30
0.0
 10
28.110038
 20
605.708035
 30
0.0
  0
SPLINE
  5
145
100
AcDbEntity
  8
rfid_positioning_jig
 62
1
100
AcDbSpline
 70
8
 71
3
 72
8
 73
4
 74
0
 40
0
 40
0
 40
0
 40
0
 40
1
 40
1
 40
1
 40
1
 10
28.110038
 20
605.708035
 30
0.0
 10
29.214585
 20
605.708035
 30
0.0
 10
30.109935
 20
604.812685
 30
0.0
 10
30.109935
 20
603.708137
 30
0.0
  0
LWPOLYLINE
  5
146
100
AcDbEntity
  8
rfid_positioning_jig
 62
1
100
AcDbPolyline
 90
4
 70
1
 10
212.060009
 20
474.758091
 30
0.0
 10
22.059899
 20
474.758091
 30
0.0
 10
22.059899
 20
609.758029
 30
0.0
 10
212.060009
 20
609.758029
 30
0.0
  0
SPLINE
  5
147
100
AcDbEntity
  8
rfid_positioning_jig
 62
1
100
AcDbSpline
 70
8
 71
3
 72
8
 73
4
 74
0
 40
0
 40
0
 40
0
 40
0
 40
1
 40
1
 40
1
 40
1
 10
30.109935
 20
480.808124
 30
0.0
 10
30.109935
 20
479.703577
 30
0.0
 10
29.214585
 20
478.808227
 30
0.0
 10
28.110038
 20
478.808227
 30
0.0
  0
SPLINE
  5
148
100
AcDbEntity
  8
rfid_positioning_jig
 62
1
100
AcDbSpline
 70
8
 71
3
 72
8
 73
4
 74
0
 40
0
 40
0
 40
0
 40
0
 40
1
 40
1
 40
1
 40
1
 10
28.110038
 20
478.808227
 30
0.0
 10
27.005491
 20
478.808227
 30
0.0
 10
26.109788
 20
479.703577
 30
0.0
 10
26.109788
 20
480.808124
 30
0.0
  0
SPLINE
  5
149
100
AcDbEntity
  8
rfid_positioning_jig
 62
1
100
AcDbSpline
 70
8
 71
3
 72
8
 73
4
 74
0
 40
0
 40
0
 40
0
 40
0
 40
1
 40
1
 40
1
 40
1
 10
26.109788
 20
480.808124
 30
0.0
 10
26.109788
 20
481.912671
 30
0.0
 10
27.005491
 20
482.808021
 30
0.0
 10
28.110038
 20
482.808021
 30
0.0
  0
SPLINE
  5
14a
100
AcDbEntity
  8
rfid_positioning_jig
 62
1
100
AcDbSpline
 70
8
 71
3
 72
8
 73
4
 74
0
 40
0
 40
0
 40
0
 40
0
 40
1
 40
1
 40
1
 40
1
 10
28.110038
 20
482.808021
 30
0.0
 10
29.214585
 20
482.808021
 30
0.0
 10
30.109935
 20
481.912671
 30
0.0
 10
30.109935
 20
480.808124
 30
0.0
  0
LWPOLYLINE
  5
14b
100
AcDbEntity
  8
rfid_positioning_jig
 62
1
100
AcDbPolyline
 90
1
 70
1
 10
30.109935
 20
603.708137
 30
0.0
  0
SPLINE
  5
14c
100
AcDbEntity
  8
rfid_positioning_jig
 62
1
100
AcDbSpline
 70
8
 71
3
 72
8
 73
4
 74
0
 40
0
 40
0
 40
0
 40
0
 40
1
 40
1
 40
1
 40
1
 10
208.009943
 20
480.808124
 30
0.0
 10
208.009943
 20
479.703577
 30
0.0
 10
207.114593
 20
478.808227
 30
0.0
 10
206.010046
 20
478.808227
 30
0.0
  0
SPLINE
  5
14d
100
AcDbEntity
  8
rfid_positioning_jig
 62
1
100
AcDbSpline
 70
8
 71
3
 72
8
 73
4
 74
0
 40
0
 40
0
 40
0
 40
0
 40
1
 40
1
 40
1
 40
1
 10
206.010046
 20
478.808227
 30
0.0
 10
204.905499
 20
478.808227
 30
0.0
 10
204.009796
 20
479.703577
 30
0.0
 10
204.009796
 20
480.808124
 30
0.0
  0
SPLINE
  5
14e
100
AcDbEntity
  8
rfid_positioning_jig
 62
1
100
AcDbSpline
 70
8
 71
3
 72
8
 73
4
 74
0
 40
0
 40
0
 40
0
 40
0
 40
1
 40
1
 40
1
 40
1
 10
204.009796
 20
480.808124
 30
0.0
 10
204.009796
 20
481.912671
 30
0.0
 10
204.905499
 20
482.808021
 30
0.0
 10
206.010046
 20
482.808021
 30
0.0
  0
SPLINE
  5
14f
100
AcDbEntity
  8
rfid_positioning_jig
 62
1
100
AcDbSpline
 70
8
 71
3
 72
8
 73
4
 74
0
 40
0
 40
0
 40
0
 40
0
 40
1
 40
1
 40
1
 40
1
 10
206.010046
 20
482.808021
 30
0.0
 10
207.114593
 20
482.808021
 30
0.0
 10
208.009943
 20
481.912671
 30
0.0
 10
208.009943
 20
480.808124
 30
0.0
  0
LWPOLYLINE
  5
150
100
AcDbEntity
  8
rfid_positioning_jig
 62
1
100
AcDbPolyline
 90
1
 70
1
 10
30.109935
 20
480.808124
 30
0.0
  0
SPLINE
  5
151
100
AcDbEntity
  8
rfid_positioning_jig
 62
1
100
AcDbSpline
 70
8
 71
3
 72
8
 73
4
 74
0
 40
0
 40
0
 40
0
 40
0
 40
1
 40
1
 40
1
 40
1
 10
208.009943
 20
603.708137
 30
0.0
 10
208.009943
 20
602.603590
 30
0.0
 10
207.114593
 20
601.708240
 30
0.0
 10
206.010046
 20
601.708240
 30
0.0
  0
SPLINE
  5
152
100
AcDbEntity
  8
rfid_positioning_jig
 62
1
100
AcDbSpline
 70
8
 71
3
 72
8
 73
4
 74
0
 40
0
 40
0
 40
0
 40
0
 40
1
 40
1
 40
1
 40
1
 10
206.010046
 20
601.708240
 30
0.0
 10
204.905499
 20
601.708240
 30
0.0
 10
204.009796
 20
602.603590
 30
0.0
 10
204.009796
 20
603.708137
 30
0.0
  0
SPLINE
  5
153
100
AcDbEntity
  8
rfid_positioning_jig
 62
1
100
AcDbSpline
 70
8
 71
3
 72
8
 73
4
 74
0
 40
0
 40
0
 40
0
 40
0
 40
1
 40
1
 40
1
 40
1
 10
204.009796
 20
603.708137
 30
0.0
 10
204.009796
 20
604.812685
 30
0.0
 10
204.905499
 20
605.708035
 30
0.0
 10
206.010046
 20
605.708035
 30
0.0
  0
SPLINE
  5
154
100
AcDbEntity
  8
rfid_positioning_jig
 62
1
100
AcDbSpline
 70
8
 71
3
 72
8
 73
4
 74
0
 40
0
 40
0
 40
0
 40
0
 40
1
 40
1
 40
1
 40
1
 10
206.010046
 20
605.708035
 30
0.0
 10
207.114593
 20
605.708035
 30
0.0
 10
208.009943
 20
604.812685
 30
0.0
 10
208.009943
 20
603.708137
 30
0.0
  0
LWPOLYLINE
  5
155
100
AcDbEntity
  8
rfid_positioning_jig
 62
1
100
AcDbPolyline
 90
1
 70
1
 10
208.009943
 20
480.808124
 30
0.0
  0
LWPOLYLINE
  5
156
100
AcDbEntity
  8
rfid_positioning_jig
 62
1
100
AcDbPolyline
 90
1
 70
1
 10
208.009943
 20
603.708137
 30
0.0
  0
LWPOLYLINE
  5
157
100
AcDbEntity
  8
rfid_positioning_jig
 62
7
100
AcDbPolyline
 90
7
 70
1
 10
173.336863
 20
545.827677
 30
0.0
 10
170.832141
 20
543.622816
 30
0.0
 10
169.332835
 20
545.351427
 30
0.0
 10
173.407418
 20
548.791010
 30
0.0
 10
175.876863
 20
548.791010
 30
0.0
 10
175.876863
 20
536.302677
 30
0.0
 10
173.336863
 20
536.302677
 30
0.0
  0
SPLINE
  5
158
100
AcDbEntity
  8
rfid_positioning_jig
 62
7
100
AcDbSpline
 70
8
 71
3
 72
8
 73
4
 74
0
 40
0
 40
0
 40
0
 40
0
 40
1
 40
1
 40
1
 40
1
 10
173.883598
 20
394.292339
 30
0.0
 10
174.130542
 20
394.515295
 30
0.0
 10
174.377487
 20
394.768237
 30
0.0
 10
174.624431
 20
395.050812
 30
0.0
  0
SPLINE
  5
159
100
AcDbEntity
  8
rfid_positioning_jig
 62
7
100
AcDbSpline
 70
8
 71
3
 72
8
 73
4
 74
0
 40
0
 40
0
 40
0
 40
0
 40
1
 40
1
 40
1
 40
1
 10
174.624431
 20
395.050812
 30
0.0
 10
174.871376
 20
395.333034
 30
0.0
 10
174.994848
 20
395.661823
 30
0.0
 10
174.994848
 20
396.038589
 30
0.0
  0
SPLINE
  5
15a
100
AcDbEntity
  8
rfid_positioning_jig
 62
7
100
AcDbSpline
 70
8
 71
3
 72
8
 73
4
 74
0
 40
0
 40
0
 40
0
 40
0
 40
1
 40
1
 40
1
 40
1
 10
174.994848
 20
396.038589
 30
0.0
 10
174.994848
 20
396.461923
 30
0.0
 10
174.842095
 20
396.793886
 30
0.0
 10
174.536237
 20
397.035186
 30
0.0
  0
SPLINE
  5
15b
100
AcDbEntity
  8
rfid_positioning_jig
 62
7
100
AcDbSpline
 70
8
 71
3
 72
8
 73
4
 74
0
 40
0
 40
0
 40
0
 40
0
 40
1
 40
1
 40
1
 40
1
 10
174.536237
 20
397.035186
 30
0.0
 10
174.230026
 20
397.276134
 30
0.0
 10
173.871956
 20
397.396431
 30
0.0
 10
173.460265
 20
397.396431
 30
0.0
  0
SPLINE
  5
15c
100
AcDbEntity
  8
rfid_positioning_jig
 62
7
100
AcDbSpline
 70
8
 71
3
 72
8
 73
4
 74
0
 40
0
 40
0
 40
0
 40
0
 40
1
 40
1
 40
1
 40
1
 10
173.460265
 20
397.396431
 30
0.0
 10
172.966376
 20
397.396431
 30
0.0
 10
172.581142
 20
397.243678
 30
0.0
 10
172.304917
 20
396.938173
 30
0.0
  0
SPLINE
  5
15d
100
AcDbEntity
  8
rfid_positioning_jig
 62
7
100
AcDbSpline
 70
8
 71
3
 72
8
 73
4
 74
0
 40
0
 40
0
 40
0
 40
0
 40
1
 40
1
 40
1
 40
1
 10
172.304917
 20
396.938173
 30
0.0
 10
172.028340
 20
396.631961
 30
0.0
 10
171.872765
 20
396.255900
 30
0.0
 10
171.837487
 20
395.808931
 30
0.0
  0
LWPOLYLINE
  5
15e
100
AcDbEntity
  8
rfid_positioning_jig
 62
7
100
AcDbPolyline
 90
2
 70
0
 10
169.032904
 20
389.935534
 30
0.0
 10
173.883598
 20
394.292339
 30
0.0
  0
SPLINE
  5
15f
100
AcDbEntity
  8
rfid_positioning_jig
 62
7
100
AcDbSpline
 70
8
 71
3
 72
8
 73
4
 74
0
 40
0
 40
0
 40
0
 40
0
 40
1
 40
1
 40
1
 40
1
 10
169.191654
 20
396.002959
 30
0.0
 10
169.226931
 20
396.649600
 30
0.0
 10
169.362045
 20
397.211575
 30
0.0
 10
169.597348
 20
397.687825
 30
0.0
  0
SPLINE
  5
160
100
AcDbEntity
  8
rfid_positioning_jig
 62
7
100
AcDbSpline
 70
8
 71
3
 72
8
 73
4
 74
0
 40
0
 40
0
 40
0
 40
0
 40
1
 40
1
 40
1
 40
1
 10
169.597348
 20
397.687825
 30
0.0
 10
169.832651
 20
398.163723
 30
0.0
 10
170.144154
 20
398.560598
 30
0.0
 10
170.532209
 20
398.878450
 30
0.0
  0
SPLINE
  5
161
100
AcDbEntity
  8
rfid_positioning_jig
 62
7
100
AcDbSpline
 70
8
 71
3
 72
8
 73
4
 74
0
 40
0
 40
0
 40
0
 40
0
 40
1
 40
1
 40
1
 40
1
 10
170.532209
 20
398.878450
 30
0.0
 10
170.920265
 20
399.195950
 30
0.0
 10
171.376053
 20
399.434075
 30
0.0
 10
171.899223
 20
399.592825
 30
0.0
  0
SPLINE
  5
162
100
AcDbEntity
  8
rfid_positioning_jig
 62
7
100
AcDbSpline
 70
8
 71
3
 72
8
 73
4
 74
0
 40
0
 40
0
 40
0
 40
0
 40
1
 40
1
 40
1
 40
1
 10
171.899223
 20
399.592825
 30
0.0
 10
172.422040
 20
399.751223
 30
0.0
 10
172.990012
 20
399.830950
 30
0.0
 10
173.601376
 20
399.830950
 30
0.0
  0
SPLINE
  5
163
100
AcDbEntity
  8
rfid_positioning_jig
 62
7
100
AcDbSpline
 70
8
 71
3
 72
8
 73
4
 74
0
 40
0
 40
0
 40
0
 40
0
 40
1
 40
1
 40
1
 40
1
 10
173.601376
 20
399.830950
 30
0.0
 10
174.165820
 20
399.830950
 30
0.0
 10
174.694987
 20
399.751223
 30
0.0
 10
175.188876
 20
399.592825
 30
0.0
  0
SPLINE
  5
164
100
AcDbEntity
  8
rfid_positioning_jig
 62
7
100
AcDbSpline
 70
8
 71
3
 72
8
 73
4
 74
0
 40
0
 40
0
 40
0
 40
0
 40
1
 40
1
 40
1
 40
1
 10
175.188876
 20
399.592825
 30
0.0
 10
175.682764
 20
399.434075
 30
0.0
 10
176.111742
 20
399.198773
 30
0.0
 10
176.476514
 20
398.887270
 30
0.0
  0
SPLINE
  5
165
100
AcDbEntity
  8
rfid_positioning_jig
 62
7
100
AcDbSpline
 70
8
 71
3
 72
8
 73
4
 74
0
 40
0
 40
0
 40
0
 40
0
 40
1
 40
1
 40
1
 40
1
 10
176.476514
 20
398.887270
 30
0.0
 10
176.840934
 20
398.575414
 30
0.0
 10
177.125978
 20
398.184536
 30
0.0
 10
177.332001
 20
397.714284
 30
0.0
  0
SPLINE
  5
166
100
AcDbEntity
  8
rfid_positioning_jig
 62
7
100
AcDbSpline
 70
8
 71
3
 72
8
 73
4
 74
0
 40
0
 40
0
 40
0
 40
0
 40
1
 40
1
 40
1
 40
1
 10
177.332001
 20
397.714284
 30
0.0
 10
177.537317
 20
397.243678
 30
0.0
 10
177.640681
 20
396.696873
 30
0.0
 10
177.640681
 20
396.073514
 30
0.0
  0
SPLINE
  5
167
100
AcDbEntity
  8
rfid_positioning_jig
 62
7
100
AcDbSpline
 70
8
 71
3
 72
8
 73
4
 74
0
 40
0
 40
0
 40
0
 40
0
 40
1
 40
1
 40
1
 40
1
 10
177.640681
 20
396.073514
 30
0.0
 10
177.640681
 20
395.673817
 30
0.0
 10
177.599406
 20
395.312220
 30
0.0
 10
177.517209
 20
394.988723
 30
0.0
  0
SPLINE
  5
168
100
AcDbEntity
  8
rfid_positioning_jig
 62
7
100
AcDbSpline
 70
8
 71
3
 72
8
 73
4
 74
0
 40
0
 40
0
 40
0
 40
0
 40
1
 40
1
 40
1
 40
1
 10
177.517209
 20
394.988723
 30
0.0
 10
177.434659
 20
394.665225
 30
0.0
 10
177.320006
 20
394.371362
 30
0.0
 10
177.173251
 20
394.106778
 30
0.0
  0
SPLINE
  5
169
100
AcDbEntity
  8
rfid_positioning_jig
 62
7
100
AcDbSpline
 70
8
 71
3
 72
8
 73
4
 74
0
 40
0
 40
0
 40
0
 40
0
 40
1
 40
1
 40
1
 40
1
 10
177.173251
 20
394.106778
 30
0.0
 10
177.026142
 20
393.842195
 30
0.0
 10
176.852576
 20
393.598425
 30
0.0
 10
176.652903
 20
393.375117
 30
0.0
  0
SPLINE
  5
16a
100
AcDbEntity
  8
rfid_positioning_jig
 62
7
100
AcDbSpline
 70
8
 71
3
 72
8
 73
4
 74
0
 40
0
 40
0
 40
0
 40
0
 40
1
 40
1
 40
1
 40
1
 10
176.652903
 20
393.375117
 30
0.0
 10
176.452878
 20
393.151456
 30
0.0
 10
176.235214
 20
392.934145
 30
0.0
 10
176.000264
 20
392.722125
 30
0.0
  0
LWPOLYLINE
  5
16b
100
AcDbEntity
  8
rfid_positioning_jig
 62
7
100
AcDbPolyline
 90
2
 70
0
 10
171.837487
 20
395.808931
 30
0.0
 10
169.191654
 20
396.002959
 30
0.0
  0
LWPOLYLINE
  5
16c
100
AcDbEntity
  8
rfid_positioning_jig
 62
7
100
AcDbPolyline
 90
6
 70
0
 10
176.000264
 20
392.722125
 30
0.0
 10
172.207903
 20
389.458931
 30
0.0
 10
177.746514
 20
389.458931
 30
0.0
 10
177.746514
 20
387.130951
 30
0.0
 10
169.032904
 20
387.130951
 30
0.0
 10
169.032904
 20
389.935534
 30
0.0
  0
SPLINE
  5
16d
100
AcDbEntity
  8
rfid_positioning_jig
 62
7
100
AcDbSpline
 70
8
 71
3
 72
8
 73
4
 74
0
 40
0
 40
0
 40
0
 40
0
 40
1
 40
1
 40
1
 40
1
 10
173.751341
 20
242.365771
 30
0.0
 10
173.998286
 20
242.365771
 30
0.0
 10
174.239233
 20
242.383410
 30
0.0
 10
174.474536
 20
242.418335
 30
0.0
  0
SPLINE
  5
16e
100
AcDbEntity
  8
rfid_positioning_jig
 62
7
100
AcDbSpline
 70
8
 71
3
 72
8
 73
4
 74
0
 40
0
 40
0
 40
0
 40
0
 40
1
 40
1
 40
1
 40
1
 10
174.474536
 20
242.418335
 30
0.0
 10
174.709839
 20
242.453965
 30
0.0
 10
174.924328
 20
242.521346
 30
0.0
 10
175.118355
 20
242.621535
 30
0.0
  0
SPLINE
  5
16f
100
AcDbEntity
  8
rfid_positioning_jig
 62
7
100
AcDbSpline
 70
8
 71
3
 72
8
 73
4
 74
0
 40
0
 40
0
 40
0
 40
0
 40
1
 40
1
 40
1
 40
1
 10
175.118355
 20
242.621535
 30
0.0
 10
175.312383
 20
242.721371
 30
0.0
 10
175.467958
 20
242.862129
 30
0.0
 10
175.585786
 20
243.044868
 30
0.0
  0
SPLINE
  5
170
100
AcDbEntity
  8
rfid_positioning_jig
 62
7
100
AcDbSpline
 70
8
 71
3
 72
8
 73
4
 74
0
 40
0
 40
0
 40
0
 40
0
 40
1
 40
1
 40
1
 40
1
 10
175.585786
 20
243.044868
 30
0.0
 10
175.703261
 20
243.226901
 30
0.0
 10
175.762175
 20
243.465026
 30
0.0
 10
175.762175
 20
243.758890
 30
0.0
  0
SPLINE
  5
171
100
AcDbEntity
  8
rfid_positioning_jig
 62
7
100
AcDbSpline
 70
8
 71
3
 72
8
 73
4
 74
0
 40
0
 40
0
 40
0
 40
0
 40
1
 40
1
 40
1
 40
1
 10
175.762175
 20
243.758890
 30
0.0
 10
175.762175
 20
244.135304
 30
0.0
 10
175.612244
 20
244.446807
 30
0.0
 10
175.312383
 20
244.694104
 30
0.0
  0
SPLINE
  5
172
100
AcDbEntity
  8
rfid_positioning_jig
 62
7
100
AcDbSpline
 70
8
 71
3
 72
8
 73
4
 74
0
 40
0
 40
0
 40
0
 40
0
 40
1
 40
1
 40
1
 40
1
 10
175.312383
 20
244.694104
 30
0.0
 10
175.012522
 20
244.941049
 30
0.0
 10
174.644928
 20
245.064168
 30
0.0
 10
174.209953
 20
245.064168
 30
0.0
  0
SPLINE
  5
173
100
AcDbEntity
  8
rfid_positioning_jig
 62
7
100
AcDbSpline
 70
8
 71
3
 72
8
 73
4
 74
0
 40
0
 40
0
 40
0
 40
0
 40
1
 40
1
 40
1
 40
1
 10
174.209953
 20
245.064168
 30
0.0
 10
173.798261
 20
245.064168
 30
0.0
 10
173.457478
 20
244.952337
 30
0.0
 10
173.186897
 20
244.729029
 30
0.0
  0
SPLINE
  5
174
100
AcDbEntity
  8
rfid_positioning_jig
 62
7
100
AcDbSpline
 70
8
 71
3
 72
8
 73
4
 74
0
 40
0
 40
0
 40
0
 40
0
 40
1
 40
1
 40
1
 40
1
 10
173.186897
 20
244.729029
 30
0.0
 10
172.916317
 20
244.505721
 30
0.0
 10
172.739928
 20
244.229143
 30
0.0
 10
172.657730
 20
243.900354
 30
0.0
  0
LWPOLYLINE
  5
175
100
AcDbEntity
  8
rfid_positioning_jig
 62
7
100
AcDbPolyline
 90
2
 70
0
 10
172.887036
 20
242.365771
 30
0.0
 10
173.751341
 20
242.365771
 30
0.0
  0
SPLINE
  5
176
100
AcDbEntity
  8
rfid_positioning_jig
 62
7
100
AcDbSpline
 70
8
 71
3
 72
8
 73
4
 74
0
 40
0
 40
0
 40
0
 40
0
 40
1
 40
1
 40
1
 40
1
 10
169.747314
 20
244.500076
 30
0.0
 10
169.888425
 20
245.040532
 30
0.0
 10
170.100092
 20
245.502318
 30
0.0
 10
170.382314
 20
245.884729
 30
0.0
  0
SPLINE
  5
177
100
AcDbEntity
  8
rfid_positioning_jig
 62
7
100
AcDbSpline
 70
8
 71
3
 72
8
 73
4
 74
0
 40
0
 40
0
 40
0
 40
0
 40
1
 40
1
 40
1
 40
1
 10
170.382314
 20
245.884729
 30
0.0
 10
170.664536
 20
246.266787
 30
0.0
 10
170.999675
 20
246.575468
 30
0.0
 10
171.387730
 20
246.810771
 30
0.0
  0
SPLINE
  5
178
100
AcDbEntity
  8
rfid_positioning_jig
 62
7
100
AcDbSpline
 70
8
 71
3
 72
8
 73
4
 74
0
 40
0
 40
0
 40
0
 40
0
 40
1
 40
1
 40
1
 40
1
 10
171.387730
 20
246.810771
 30
0.0
 10
171.775786
 20
247.045721
 30
0.0
 10
172.207939
 20
247.219287
 30
0.0
 10
172.684189
 20
247.330765
 30
0.0
  0
SPLINE
  5
179
100
AcDbEntity
  8
rfid_positioning_jig
 62
7
100
AcDbSpline
 70
8
 71
3
 72
8
 73
4
 74
0
 40
0
 40
0
 40
0
 40
0
 40
1
 40
1
 40
1
 40
1
 10
172.684189
 20
247.330765
 30
0.0
 10
173.160439
 20
247.442596
 30
0.0
 10
173.663147
 20
247.498687
 30
0.0
 10
174.192314
 20
247.498687
 30
0.0
  0
SPLINE
  5
17a
100
AcDbEntity
  8
rfid_positioning_jig
 62
7
100
AcDbSpline
 70
8
 71
3
 72
8
 73
4
 74
0
 40
0
 40
0
 40
0
 40
0
 40
1
 40
1
 40
1
 40
1
 10
174.192314
 20
247.498687
 30
0.0
 10
174.745116
 20
247.498687
 30
0.0
 10
175.277105
 20
247.430601
 30
0.0
 10
175.788633
 20
247.295840
 30
0.0
  0
SPLINE
  5
17b
100
AcDbEntity
  8
rfid_positioning_jig
 62
7
100
AcDbSpline
 70
8
 71
3
 72
8
 73
4
 74
0
 40
0
 40
0
 40
0
 40
0
 40
1
 40
1
 40
1
 40
1
 10
175.788633
 20
247.295840
 30
0.0
 10
176.300161
 20
247.160374
 30
0.0
 10
176.749953
 20
246.948707
 30
0.0
 10
177.138008
 20
246.660840
 30
0.0
  0
SPLINE
  5
17c
100
AcDbEntity
  8
rfid_positioning_jig
 62
7
100
AcDbSpline
 70
8
 71
3
 72
8
 73
4
 74
0
 40
0
 40
0
 40
0
 40
0
 40
1
 40
1
 40
1
 40
1
 10
177.138008
 20
246.660840
 30
0.0
 10
177.526064
 20
246.372268
 30
0.0
 10
177.834744
 20
246.010671
 30
0.0
 10
178.064050
 20
245.576049
 30
0.0
  0
SPLINE
  5
17d
100
AcDbEntity
  8
rfid_positioning_jig
 62
7
100
AcDbSpline
 70
8
 71
3
 72
8
 73
4
 74
0
 40
0
 40
0
 40
0
 40
0
 40
1
 40
1
 40
1
 40
1
 10
178.064050
 20
245.576049
 30
0.0
 10
178.293355
 20
245.140721
 30
0.0
 10
178.408008
 20
244.623196
 30
0.0
 10
178.408008
 20
244.023474
 30
0.0
  0
SPLINE
  5
17e
100
AcDbEntity
  8
rfid_positioning_jig
 62
7
100
AcDbSpline
 70
8
 71
3
 72
8
 73
4
 74
0
 40
0
 40
0
 40
0
 40
0
 40
1
 40
1
 40
1
 40
1
 10
178.408008
 20
244.023474
 30
0.0
 10
178.408008
 20
243.329560
 30
0.0
 10
178.225622
 20
242.736188
 30
0.0
 10
177.861202
 20
242.241946
 30
0.0
  0
SPLINE
  5
17f
100
AcDbEntity
  8
rfid_positioning_jig
 62
7
100
AcDbSpline
 70
8
 71
3
 72
8
 73
4
 74
0
 40
0
 40
0
 40
0
 40
0
 40
1
 40
1
 40
1
 40
1
 10
177.861202
 20
242.241946
 30
0.0
 10
177.496430
 20
241.748410
 30
0.0
 10
176.967264
 20
241.430910
 30
0.0
 10
176.273703
 20
241.289446
 30
0.0
  0
LWPOLYLINE
  5
180
100
AcDbEntity
  8
rfid_positioning_jig
 62
7
100
AcDbPolyline
 90
2
 70
0
 10
172.657730
 20
243.900354
 30
0.0
 10
169.747314
 20
244.500076
 30
0.0
  0
SPLINE
  5
181
100
AcDbEntity
  8
rfid_positioning_jig
 62
7
100
AcDbSpline
 70
8
 71
3
 72
8
 73
4
 74
0
 40
0
 40
0
 40
0
 40
0
 40
1
 40
1
 40
1
 40
1
 10
176.273703
 20
241.236882
 30
0.0
 10
176.650116
 20
241.189610
 30
0.0
 10
176.982080
 20
241.078132
 30
0.0
 10
177.270300
 20
240.901743
 30
0.0
  0
SPLINE
  5
182
100
AcDbEntity
  8
rfid_positioning_jig
 62
7
100
AcDbSpline
 70
8
 71
3
 72
8
 73
4
 74
0
 40
0
 40
0
 40
0
 40
0
 40
1
 40
1
 40
1
 40
1
 10
177.270300
 20
240.901743
 30
0.0
 10
177.558519
 20
240.725354
 30
0.0
 10
177.802289
 20
240.507338
 30
0.0
 10
178.002314
 20
240.249104
 30
0.0
  0
SPLINE
  5
183
100
AcDbEntity
  8
rfid_positioning_jig
 62
7
100
AcDbSpline
 70
8
 71
3
 72
8
 73
4
 74
0
 40
0
 40
0
 40
0
 40
0
 40
1
 40
1
 40
1
 40
1
 10
178.002314
 20
240.249104
 30
0.0
 10
178.201986
 20
239.990165
 30
0.0
 10
178.355091
 20
239.696302
 30
0.0
 10
178.460925
 20
239.367160
 30
0.0
  0
SPLINE
  5
184
100
AcDbEntity
  8
rfid_positioning_jig
 62
7
100
AcDbSpline
 70
8
 71
3
 72
8
 73
4
 74
0
 40
0
 40
0
 40
0
 40
0
 40
1
 40
1
 40
1
 40
1
 10
178.460925
 20
239.367160
 30
0.0
 10
178.566758
 20
239.037665
 30
0.0
 10
178.619675
 20
238.690532
 30
0.0
 10
178.619675
 20
238.326465
 30
0.0
  0
SPLINE
  5
185
100
AcDbEntity
  8
rfid_positioning_jig
 62
7
100
AcDbSpline
 70
8
 71
3
 72
8
 73
4
 74
0
 40
0
 40
0
 40
0
 40
0
 40
1
 40
1
 40
1
 40
1
 10
178.619675
 20
238.326465
 30
0.0
 10
178.619675
 20
237.702754
 30
0.0
 10
178.499025
 20
237.155949
 30
0.0
 10
178.258077
 20
236.685696
 30
0.0
  0
SPLINE
  5
186
100
AcDbEntity
  8
rfid_positioning_jig
 62
7
100
AcDbSpline
 70
8
 71
3
 72
8
 73
4
 74
0
 40
0
 40
0
 40
0
 40
0
 40
1
 40
1
 40
1
 40
1
 10
178.258077
 20
236.685696
 30
0.0
 10
178.017130
 20
236.215443
 30
0.0
 10
177.693633
 20
235.824213
 30
0.0
 10
177.287939
 20
235.512710
 30
0.0
  0
SPLINE
  5
187
100
AcDbEntity
  8
rfid_positioning_jig
 62
7
100
AcDbSpline
 70
8
 71
3
 72
8
 73
4
 74
0
 40
0
 40
0
 40
0
 40
0
 40
1
 40
1
 40
1
 40
1
 10
177.287939
 20
235.512710
 30
0.0
 10
176.882244
 20
235.201207
 30
0.0
 10
176.405994
 20
234.968727
 30
0.0
 10
175.859189
 20
234.816327
 30
0.0
  0
SPLINE
  5
188
100
AcDbEntity
  8
rfid_positioning_jig
 62
7
100
AcDbSpline
 70
8
 71
3
 72
8
 73
4
 74
0
 40
0
 40
0
 40
0
 40
0
 40
1
 40
1
 40
1
 40
1
 10
175.859189
 20
234.816327
 30
0.0
 10
175.312383
 20
234.663574
 30
0.0
 10
174.733122
 20
234.586668
 30
0.0
 10
174.121758
 20
234.586668
 30
0.0
  0
SPLINE
  5
189
100
AcDbEntity
  8
rfid_positioning_jig
 62
7
100
AcDbSpline
 70
8
 71
3
 72
8
 73
4
 74
0
 40
0
 40
0
 40
0
 40
0
 40
1
 40
1
 40
1
 40
1
 10
174.121758
 20
234.586668
 30
0.0
 10
173.004511
 20
234.586668
 30
0.0
 10
172.043192
 20
234.845607
 30
0.0
 10
171.237800
 20
235.362779
 30
0.0
  0
SPLINE
  5
18a
100
AcDbEntity
  8
rfid_positioning_jig
 62
7
100
AcDbSpline
 70
8
 71
3
 72
8
 73
4
 74
0
 40
0
 40
0
 40
0
 40
0
 40
1
 40
1
 40
1
 40
1
 10
171.237800
 20
235.362779
 30
0.0
 10
170.432408
 20
235.880304
 30
0.0
 10
169.900067
 20
236.697690
 30
0.0
 10
169.641480
 20
237.814938
 30
0.0
  0
LWPOLYLINE
  5
18b
100
AcDbEntity
  8
rfid_positioning_jig
 62
7
100
AcDbPolyline
 90
2
 70
0
 10
176.273703
 20
241.289446
 30
0.0
 10
176.273703
 20
241.236882
 30
0.0
  0
SPLINE
  5
18c
100
AcDbEntity
  8
rfid_positioning_jig
 62
7
100
AcDbSpline
 70
8
 71
3
 72
8
 73
4
 74
0
 40
0
 40
0
 40
0
 40
0
 40
1
 40
1
 40
1
 40
1
 10
172.428425
 20
238.467224
 30
0.0
 10
172.522617
 20
238.020607
 30
0.0
 10
172.713469
 20
237.667829
 30
0.0
 10
173.001689
 20
237.408890
 30
0.0
  0
SPLINE
  5
18d
100
AcDbEntity
  8
rfid_positioning_jig
 62
7
100
AcDbSpline
 70
8
 71
3
 72
8
 73
4
 74
0
 40
0
 40
0
 40
0
 40
0
 40
1
 40
1
 40
1
 40
1
 10
173.001689
 20
237.408890
 30
0.0
 10
173.289908
 20
237.150304
 30
0.0
 10
173.716064
 20
237.021188
 30
0.0
 10
174.280508
 20
237.021188
 30
0.0
  0
SPLINE
  5
18e
100
AcDbEntity
  8
rfid_positioning_jig
 62
7
100
AcDbSpline
 70
8
 71
3
 72
8
 73
4
 74
0
 40
0
 40
0
 40
0
 40
0
 40
1
 40
1
 40
1
 40
1
 10
174.280508
 20
237.021188
 30
0.0
 10
174.856594
 20
237.021188
 30
0.0
 10
175.283103
 20
237.170765
 30
0.0
 10
175.559328
 20
237.470979
 30
0.0
  0
SPLINE
  5
18f
100
AcDbEntity
  8
rfid_positioning_jig
 62
7
100
AcDbSpline
 70
8
 71
3
 72
8
 73
4
 74
0
 40
0
 40
0
 40
0
 40
0
 40
1
 40
1
 40
1
 40
1
 10
175.559328
 20
237.470979
 30
0.0
 10
175.835553
 20
237.770840
 30
0.0
 10
175.973841
 20
238.155721
 30
0.0
 10
175.973841
 20
238.625974
 30
0.0
  0
SPLINE
  5
190
100
AcDbEntity
  8
rfid_positioning_jig
 62
7
100
AcDbSpline
 70
8
 71
3
 72
8
 73
4
 74
0
 40
0
 40
0
 40
0
 40
0
 40
1
 40
1
 40
1
 40
1
 10
175.973841
 20
238.625974
 30
0.0
 10
175.973841
 20
238.978752
 30
0.0
 10
175.900464
 20
239.252507
 30
0.0
 10
175.753355
 20
239.446535
 30
0.0
  0
SPLINE
  5
191
100
AcDbEntity
  8
rfid_positioning_jig
 62
7
100
AcDbSpline
 70
8
 71
3
 72
8
 73
4
 74
0
 40
0
 40
0
 40
0
 40
0
 40
1
 40
1
 40
1
 40
1
 10
175.753355
 20
239.446535
 30
0.0
 10
175.606247
 20
239.640210
 30
0.0
 10
175.415394
 20
239.784496
 30
0.0
 10
175.180091
 20
239.878335
 30
0.0
  0
SPLINE
  5
192
100
AcDbEntity
  8
rfid_positioning_jig
 62
7
100
AcDbSpline
 70
8
 71
3
 72
8
 73
4
 74
0
 40
0
 40
0
 40
0
 40
0
 40
1
 40
1
 40
1
 40
1
 10
175.180091
 20
239.878335
 30
0.0
 10
174.944789
 20
239.972527
 30
0.0
 10
174.680205
 20
240.028618
 30
0.0
 10
174.386341
 20
240.046257
 30
0.0
  0
SPLINE
  5
193
100
AcDbEntity
  8
rfid_positioning_jig
 62
7
100
AcDbSpline
 70
8
 71
3
 72
8
 73
4
 74
0
 40
0
 40
0
 40
0
 40
0
 40
1
 40
1
 40
1
 40
1
 10
174.386341
 20
240.046257
 30
0.0
 10
174.092478
 20
240.063896
 30
0.0
 10
173.798261
 20
240.072715
 30
0.0
 10
173.504397
 20
240.072715
 30
0.0
  0
LWPOLYLINE
  5
194
100
AcDbEntity
  8
rfid_positioning_jig
 62
7
100
AcDbPolyline
 90
2
 70
0
 10
169.641480
 20
237.814938
 30
0.0
 10
172.428425
 20
238.467224
 30
0.0
  0
LWPOLYLINE
  5
195
100
AcDbEntity
  8
rfid_positioning_jig
 62
7
100
AcDbPolyline
 90
3
 70
0
 10
173.504397
 20
240.072715
 30
0.0
 10
172.887036
 20
240.072715
 30
0.0
 10
172.887036
 20
242.365771
 30
0.0
  0
LWPOLYLINE
  5
196
100
AcDbEntity
  8
rfid_positioning_jig
 62
7
100
AcDbPolyline
 90
4
 70
1
 10
206.759381
 20
92.604200
 30
0.0
 10
206.724104
 20
92.604200
 30
0.0
 10
203.954798
 20
88.300311
 30
0.0
 10
206.759381
 20
88.300311
 30
0.0
  0
LWPOLYLINE
  5
197
100
AcDbEntity
  8
rfid_positioning_jig
 62
7
100
AcDbPolyline
 90
11
 70
1
 10
206.759381
 20
86.077811
 30
0.0
 10
201.308965
 20
86.077811
 30
0.0
 10
201.308965
 20
88.300311
 30
0.0
 10
206.406604
 20
96.061422
 30
0.0
 10
209.299381
 20
96.061422
 30
0.0
 10
209.299381
 20
88.300311
 30
0.0
 10
210.904520
 20
88.300311
 30
0.0
 10
210.904520
 20
86.077811
 30
0.0
 10
209.299381
 20
86.077811
 30
0.0
 10
209.299381
 20
83.572736
 30
0.0
 10
206.759381
 20
83.572736
 30
0.0
  0
SPLINE
  5
198
100
AcDbEntity
  8
rfid_positioning_jig
 62
1
100
AcDbSpline
 70
8
 71
3
 72
8
 73
4
 74
0
 40
0
 40
0
 40
0
 40
0
 40
1
 40
1
 40
1
 40
1
 10
208.009943
 20
188.592289
 30
0.0
 10
208.009943
 20
187.487742
 30
0.0
 10
207.114593
 20
186.592392
 30
0.0
 10
206.010046
 20
186.592392
 30
0.0
  0
SPLINE
  5
199
100
AcDbEntity
  8
rfid_positioning_jig
 62
1
100
AcDbSpline
 70
8
 71
3
 72
8
 73
4
 74
0
 40
0
 40
0
 40
0
 40
0
 40
1
 40
1
 40
1
 40
1
 10
206.010046
 20
186.592392
 30
0.0
 10
204.905499
 20
186.592392
 30
0.0
 10
204.009796
 20
187.487742
 30
0.0
 10
204.009796
 20
188.592289
 30
0.0
  0
SPLINE
  5
19a
100
AcDbEntity
  8
rfid_positioning_jig
 62
1
100
AcDbSpline
 70
8
 71
3
 72
8
 73
4
 74
0
 40
0
 40
0
 40
0
 40
0
 40
1
 40
1
 40
1
 40
1
 10
204.009796
 20
188.592289
 30
0.0
 10
204.009796
 20
189.696837
 30
0.0
 10
204.905499
 20
190.592187
 30
0.0
 10
206.010046
 20
190.592187
 30
0.0
  0
SPLINE
  5
19b
100
AcDbEntity
  8
rfid_positioning_jig
 62
1
100
AcDbSpline
 70
8
 71
3
 72
8
 73
4
 74
0
 40
0
 40
0
 40
0
 40
0
 40
1
 40
1
 40
1
 40
1
 10
206.010046
 20
190.592187
 30
0.0
 10
207.114593
 20
190.592187
 30
0.0
 10
208.009943
 20
189.696837
 30
0.0
 10
208.009943
 20
188.592289
 30
0.0
  0
LWPOLYLINE
  5
19c
100
AcDbEntity
  8
rfid_positioning_jig
 62
1
100
AcDbPolyline
 90
4
 70
1
 10
97.025225
 20
510.198110
 30
0.0
 10
97.025225
 20
528.996332
 30
0.0
 10
137.096207
 20
528.996332
 30
0.0
 10
137.096207
 20
510.198110
 30
0.0
  0
SPLINE
  5
19d
100
AcDbEntity
  8
rfid_positioning_jig
 62
1
100
AcDbSpline
 70
8
 71
3
 72
8
 73
4
 74
0
 40
0
 40
0
 40
0
 40
0
 40
1
 40
1
 40
1
 40
1
 10
30.109935
 20
188.592289
 30
0.0
 10
30.109935
 20
187.487742
 30
0.0
 10
29.214585
 20
186.592392
 30
0.0
 10
28.110038
 20
186.592392
 30
0.0
  0
SPLINE
  5
19e
100
AcDbEntity
  8
rfid_positioning_jig
 62
1
100
AcDbSpline
 70
8
 71
3
 72
8
 73
4
 74
0
 40
0
 40
0
 40
0
 40
0
 40
1
 40
1
 40
1
 40
1
 10
28.110038
 20
186.592392
 30
0.0
 10
27.005491
 20
186.592392
 30
0.0
 10
26.109788
 20
187.487742
 30
0.0
 10
26.109788
 20
188.592289
 30
0.0
  0
SPLINE
  5
19f
100
AcDbEntity
  8
rfid_positioning_jig
 62
1
100
AcDbSpline
 70
8
 71
3
 72
8
 73
4
 74
0
 40
0
 40
0
 40
0
 40
0
 40
1
 40
1
 40
1
 40
1
 10
26.109788
 20
188.592289
 30
0.0
 10
26.109788
 20
189.696837
 30
0.0
 10
27.005491
 20
190.592187
 30
0.0
 10
28.110038
 20
190.592187
 30
0.0
  0
SPLINE
  5
1a0
100
AcDbEntity
  8
rfid_positioning_jig
 62
1
100
AcDbSpline
 70
8
 71
3
 72
8
 73
4
 74
0
 40
0
 40
0
 40
0
 40
0
 40
1
 40
1
 40
1
 40
1
 10
28.110038
 20
190.592187
 30
0.0
 10
29.214585
 20
190.592187
 30
0.0
 10
30.109935
 20
189.696837
 30
0.0
 10
30.109935
 20
188.592289
 30
0.0
  0
LWPOLYLINE
  5
1a1
100
AcDbEntity
  8
rfid_positioning_jig
 62
1
100
AcDbPolyline
 90
1
 70
1
 10
208.009943
 20
188.592289
 30
0.0
  0
SPLINE
  5
1a2
100
AcDbEntity
  8
rfid_positioning_jig
 62
1
100
AcDbSpline
 70
8
 71
3
 72
8
 73
4
 74
0
 40
0
 40
0
 40
0
 40
0
 40
1
 40
1
 40
1
 40
1
 10
30.109935
 20
340.213289
 30
0.0
 10
30.109935
 20
339.108742
 30
0.0
 10
29.214585
 20
338.213392
 30
0.0
 10
28.110038
 20
338.213392
 30
0.0
  0
SPLINE
  5
1a3
100
AcDbEntity
  8
rfid_positioning_jig
 62
1
100
AcDbSpline
 70
8
 71
3
 72
8
 73
4
 74
0
 40
0
 40
0
 40
0
 40
0
 40
1
 40
1
 40
1
 40
1
 10
28.110038
 20
338.213392
 30
0.0
 10
27.005491
 20
338.213392
 30
0.0
 10
26.109788
 20
339.108742
 30
0.0
 10
26.109788
 20
340.213289
 30
0.0
  0
SPLINE
  5
1a4
100
AcDbEntity
  8
rfid_positioning_jig
 62
1
100
AcDbSpline
 70
8
 71
3
 72
8
 73
4
 74
0
 40
0
 40
0
 40
0
 40
0
 40
1
 40
1
 40
1
 40
1
 10
26.109788
 20
340.213289
 30
0.0
 10
26.109788
 20
341.317836
 30
0.0
 10
27.005491
 20
342.213186
 30
0.0
 10
28.110038
 20
342.213186
 30
0.0
  0
SPLINE
  5
1a5
100
AcDbEntity
  8
rfid_positioning_jig
 62
1
100
AcDbSpline
 70
8
 71
3
 72
8
 73
4
 74
0
 40
0
 40
0
 40
0
 40
0
 40
1
 40
1
 40
1
 40
1
 10
28.110038
 20
342.213186
 30
0.0
 10
29.214585
 20
342.213186
 30
0.0
 10
30.109935
 20
341.317836
 30
0.0
 10
30.109935
 20
340.213289
 30
0.0
  0
LWPOLYLINE
  5
1a6
100
AcDbEntity
  8
rfid_positioning_jig
 62
1
100
AcDbPolyline
 90
1
 70
1
 10
30.109935
 20
188.592289
 30
0.0
  0
SPLINE
  5
1a7
100
AcDbEntity
  8
rfid_positioning_jig
 62
1
100
AcDbSpline
 70
8
 71
3
 72
8
 73
4
 74
0
 40
0
 40
0
 40
0
 40
0
 40
1
 40
1
 40
1
 40
1
 10
208.009943
 20
340.213289
 30
0.0
 10
208.009943
 20
339.108742
 30
0.0
 10
207.114593
 20
338.213392
 30
0.0
 10
206.010046
 20
338.213392
 30
0.0
  0
SPLINE
  5
1a8
100
AcDbEntity
  8
rfid_positioning_jig
 62
1
100
AcDbSpline
 70
8
 71
3
 72
8
 73
4
 74
0
 40
0
 40
0
 40
0
 40
0
 40
1
 40
1
 40
1
 40
1
 10
206.010046
 20
338.213392
 30
0.0
 10
204.905499
 20
338.213392
 30
0.0
 10
204.009796
 20
339.108742
 30
0.0
 10
204.009796
 20
340.213289
 30
0.0
  0
SPLINE
  5
1a9
100
AcDbEntity
  8
rfid_positioning_jig
 62
1
100
AcDbSpline
 70
8
 71
3
 72
8
 73
4
 74
0
 40
0
 40
0
 40
0
 40
0
 40
1
 40
1
 40
1
 40
1
 10
204.009796
 20
340.213289
 30
0.0
 10
204.009796
 20
341.317836
 30
0.0
 10
204.905499
 20
342.213186
 30
0.0
 10
206.010046
 20
342.213186
 30
0.0
  0
SPLINE
  5
1aa
100
AcDbEntity
  8
rfid_positioning_jig
 62
1
100
AcDbSpline
 70
8
 71
3
 72
8
 73
4
 74
0
 40
0
 40
0
 40
0
 40
0
 40
1
 40
1
 40
1
 40
1
 10
206.010046
 20
342.213186
 30
0.0
 10
207.114593
 20
342.213186
 30
0.0
 10
208.009943
 20
341.317836
 30
0.0
 10
208.009943
 20
340.213289
 30
0.0
  0
LWPOLYLINE
  5
1ab
100
AcDbEntity
  8
rfid_positioning_jig
 62
1
100
AcDbPolyline
 90
1
 70
1
 10
30.109935
 20
340.213289
 30
0.0
  0
SPLINE
  5
1ac
100
AcDbEntity
  8
rfid_positioning_jig
 62
1
100
AcDbSpline
 70
8
 71
3
 72
8
 73
4
 74
0
 40
0
 40
0
 40
0
 40
0
 40
1
 40
1
 40
1
 40
1
 10
30.109935
 20
489.808296
 30
0.0
 10
30.109935
 20
488.703749
 30
0.0
 10
29.214585
 20
487.808399
 30
0.0
 10
28.110038
 20
487.808399
 30
0.0
  0
SPLINE
  5
1ad
100
AcDbEntity
  8
rfid_positioning_jig
 62
1
100
AcDbSpline
 70
8
 71
3
 72
8
 73
4
 74
0
 40
0
 40
0
 40
0
 40
0
 40
1
 40
1
 40
1
 40
1
 10
28.110038
 20
487.808399
 30
0.0
 10
27.005491
 20
487.808399
 30
0.0
 10
26.109788
 20
488.703749
 30
0.0
 10
26.109788
 20
489.808296
 30
0.0
  0
SPLINE
  5
1ae
100
AcDbEntity
  8
rfid_positioning_jig
 62
1
100
AcDbSpline
 70
8
 71
3
 72
8
 73
4
 74
0
 40
0
 40
0
 40
0
 40
0
 40
1
 40
1
 40
1
 40
1
 10
26.109788
 20
489.808296
 30
0.0
 10
26.109788
 20
490.912843
 30
0.0
 10
27.005491
 20
491.808193
 30
0.0
 10
28.110038
 20
491.808193
 30
0.0
  0
SPLINE
  5
1af
100
AcDbEntity
  8
rfid_positioning_jig
 62
1
100
AcDbSpline
 70
8
 71
3
 72
8
 73
4
 74
0
 40
0
 40
0
 40
0
 40
0
 40
1
 40
1
 40
1
 40
1
 10
28.110038
 20
491.808193
 30
0.0
 10
29.214585
 20
491.808193
 30
0.0
 10
30.109935
 20
490.912843
 30
0.0
 10
30.109935
 20
489.808296
 30
0.0
  0
LWPOLYLINE
  5
1b0
100
AcDbEntity
  8
rfid_positioning_jig
 62
1
100
AcDbPolyline
 90
1
 70
1
 10
208.009943
 20
340.213289
 30
0.0
  0
SPLINE
  5
1b1
100
AcDbEntity
  8
rfid_positioning_jig
 62
1
100
AcDbSpline
 70
8
 71
3
 72
8
 73
4
 74
0
 40
0
 40
0
 40
0
 40
0
 40
1
 40
1
 40
1
 40
1
 10
208.009943
 20
489.808296
 30
0.0
 10
208.009943
 20
488.703749
 30
0.0
 10
207.114593
 20
487.808399
 30
0.0
 10
206.010046
 20
487.808399
 30
0.0
  0
SPLINE
  5
1b2
100
AcDbEntity
  8
rfid_positioning_jig
 62
1
100
AcDbSpline
 70
8
 71
3
 72
8
 73
4
 74
0
 40
0
 40
0
 40
0
 40
0
 40
1
 40
1
 40
1
 40
1
 10
206.010046
 20
487.808399
 30
0.0
 10
204.905499
 20
487.808399
 30
0.0
 10
204.009796
 20
488.703749
 30
0.0
 10
204.009796
 20
489.808296
 30
0.0
  0
SPLINE
  5
1b3
100
AcDbEntity
  8
rfid_positioning_jig
 62
1
100
AcDbSpline
 70
8
 71
3
 72
8
 73
4
 74
0
 40
0
 40
0
 40
0
 40
0
 40
1
 40
1
 40
1
 40
1
 10
204.009796
 20
489.808296
 30
0.0
 10
204.009796
 20
490.912843
 30
0.0
 10
204.905499
 20
491.808193
 30
0.0
 10
206.010046
 20
491.808193
 30
0.0
  0
SPLINE
  5
1b4
100
AcDbEntity
  8
rfid_positioning_jig
 62
1
100
AcDbSpline
 70
8
 71
3
 72
8
 73
4
 74
0
 40
0
 40
0
 40
0
 40
0
 40
1
 40
1
 40
1
 40
1
 10
206.010046
 20
491.808193
 30
0.0
 10
207.114593
 20
491.808193
 30
0.0
 10
208.009943
 20
490.912843
 30
0.0
 10
208.009943
 20
489.808296
 30
0.0
  0
LWPOLYLINE
  5
1b5
100
AcDbEntity
  8
rfid_positioning_jig
 62
1
100
AcDbPolyline
 90
1
 70
1
 10
30.109935
 20
489.808296
 30
0.0
  0
LWPOLYLINE
  5
1b6
100
AcDbEntity
  8
rfid_positioning_jig
 62
1
100
AcDbPolyline
 90
1
 70
1
 10
208.009943
 20
489.808296
 30
0.0
  0
ENDSEC
  0
SECTION
  2
OBJECTS
  0
DICTIONARY
  5
C
330
0
100
AcDbDictionary
  3
ACAD_GROUP
350
D
  3
ACAD_MLINESTYLE
350
17
  0
DICTIONARY
  5
D
330
C
100
AcDbDictionary
  0
DICTIONARY
  5
1A
330
C
100
AcDbDictionary
  0
DICTIONARY
  5
17
330
C
100
AcDbDictionary
  3
STANDARD
350
18
  0
DICTIONARY
  5
19
330
C
100
AcDbDictionary
  0
ENDSEC
  0
EOF
