  0
SECTION
  2
HEADER
  9
$ACADVER
  1
AC1012
  9
$DWGCODEPAGE
  3
undefined
  9
$INSBASE
 10
0.0
 20
0.0
 30
0.0
  9
$EXTMIN
 10
1.000000000000000E+20
 20
1.000000000000000E+20
 30
1.000000000000000E+20
  9
$EXTMAX
 10
-1.000000000000000E+20
 20
-1.000000000000000E+20
 30
-1.000000000000000E+20
  9
$LIMMIN
 10
0.0
 20
0.0
  9
$LIMMAX
 10
12.0
 20
9.0
  9
$ORTHOMODE
 70
     0
  9
$REGENMODE
 70
     1
  9
$FILLMODE
 70
     1
  9
$QTEXTMODE
 70
     0
  9
$MIRRTEXT
 70
     1
  9
$DRAGMODE
 70
     2
  9
$LTSCALE
 40
1.0
  9
$OSMODE
 70
    37
  9
$ATTMODE
 70
     1
  9
$TEXTSIZE
 40
0.2
  9
$TRACEWID
 40
0.05
  9
$TEXTSTYLE
  7
STANDARD
  9
$CLAYER
  8
0
  9
$CELTYPE
  6
BYLAYER
  9
$CECOLOR
 62
   256
  9
$CELTSCALE
 40
1.0
  9
$DELOBJ
 70
     1
  9
$DISPSILH
 70
     0
  9
$DIMSCALE
 40
1.0
  9
$DIMASZ
 40
0.18
  9
$DIMEXO
 40
0.0625
  9
$DIMDLI
 40
0.38
  9
$DIMRND
 40
0.0
  9
$DIMDLE
 40
0.0
  9
$DIMEXE
 40
0.18
  9
$DIMTP
 40
0.0
  9
$DIMTM
 40
0.0
  9
$DIMTXT
 40
0.18
  9
$DIMCEN
 40
0.09
  9
$DIMTSZ
 40
0.0
  9
$DIMTOL
 70
     0
  9
$DIMLIM
 70
     0
  9
$DIMTIH
 70
     1
  9
$DIMTOH
 70
     1
  9
$DIMSE1
 70
     0
  9
$DIMSE2
 70
     0
  9
$DIMTAD
 70
     0
  9
$DIMZIN
 70
     0
  9
$DIMBLK
  1

  9
$DIMASO
 70
     1
  9
$DIMSHO
 70
     1
  9
$DIMPOST
  1

  9
$DIMAPOST
  1

  9
$DIMALT
 70
     0
  9
$DIMALTD
 70
     2
  9
$DIMALTF
 40
25.4
  9
$DIMLFAC
 40
1.0
  9
$DIMTOFL
 70
     0
  9
$DIMTVP
 40
0.0
  9
$DIMTIX
 70
     0
  9
$DIMSOXD
 70
     0
  9
$DIMSAH
 70
     0
  9
$DIMBLK1
  1

  9
$DIMBLK2
  1

  9
$DIMSTYLE
  2
STANDARD
  9
$DIMCLRD
 70
     0
  9
$DIMCLRE
 70
     0
  9
$DIMCLRT
 70
     0
  9
$DIMTFAC
 40
1.0
  9
$DIMGAP
 40
0.09
  9
$DIMJUST
 70
     0
  9
$DIMSD1
 70
     0
  9
$DIMSD2
 70
     0
  9
$DIMTOLJ
 70
     1
  9
$DIMTZIN
 70
     0
  9
$DIMALTZ
 70
     0
  9
$DIMALTTZ
 70
     0
  9
$DIMFIT
 70
     3
  9
$DIMUPT
 70
     0
  9
$DIMUNIT
 70
     2
  9
$DIMDEC
 70
     4
  9
$DIMTDEC
 70
     4
  9
$DIMALTU
 70
     2
  9
$DIMALTTD
 70
     2
  9
$DIMTXSTY
  7
STANDARD
  9
$DIMAUNIT
 70
     0
  9
$LUNITS
 70
     2
  9
$LUPREC
 70
     4
  9
$SKETCHINC
 40
0.1
  9
$FILLETRAD
 40
0.5
  9
$AUNITS
 70
     0
  9
$AUPREC
 70
     0
  9
$MENU
  1
.
  9
$ELEVATION
 40
0.0
  9
$PELEVATION
 40
0.0
  9
$THICKNESS
 40
0.0
  9
$LIMCHECK
 70
     0
  9
$CHAMFERA
 40
0.5
  9
$CHAMFERB
 40
0.5
  9
$CHAMFERC
 40
1.0
  9
$CHAMFERD
 40
0.0
  9
$SKPOLY
 70
     0
  9
$TDCREATE
 40
2458464.662615729
  9
$TDUPDATE
 40
2458464.662615729
  9
$TDINDWG
 40
0.0000000116
  9
$TDUSRTIMER
 40
0.0000000116
  9
$USRTIMER
 70
     1
  9
$ANGBASE
 50
0.0
  9
$ANGDIR
 70
     0
  9
$PDMODE
 70
     0
  9
$PDSIZE
 40
0.0
  9
$PLINEWID
 40
0.0
  9
$COORDS
 70
     1
  9
$SPLFRAME
 70
     0
  9
$SPLINETYPE
 70
     6
  9
$SPLINESEGS
 70
     8
  9
$ATTDIA
 70
     0
  9
$ATTREQ
 70
     1
  9
$HANDLING
 70
     1
  9
$HANDSEED
  5
EC
  9
$SURFTAB1
 70
     6
  9
$SURFTAB2
 70
     6
  9
$SURFTYPE
 70
     6
  9
$SURFU
 70
     6
  9
$SURFV
 70
     6
  9
$UCSNAME
  2

  9
$UCSORG
 10
0.0
 20
0.0
 30
0.0
  9
$UCSXDIR
 10
1.0
 20
0.0
 30
0.0
  9
$UCSYDIR
 10
0.0
 20
1.0
 30
0.0
  9
$PUCSNAME
  2

  9
$PUCSORG
 10
0.0
 20
0.0
 30
0.0
  9
$PUCSXDIR
 10
1.0
 20
0.0
 30
0.0
  9
$PUCSYDIR
 10
0.0
 20
1.0
 30
0.0
  9
$USERI1
 70
     0
  9
$USERI2
 70
     0
  9
$USERI3
 70
     0
  9
$USERI4
 70
     0
  9
$USERI5
 70
     0
  9
$USERR1
 40
0.0
  9
$USERR2
 40
0.0
  9
$USERR3
 40
0.0
  9
$USERR4
 40
0.0
  9
$USERR5
 40
0.0
  9
$WORLDVIEW
 70
     1
  9
$SHADEDGE
 70
     3
  9
$SHADEDIF
 70
    70
  9
$TILEMODE
 70
     1
  9
$MAXACTVP
 70
    64
  9
$PINSBASE
 10
0.0
 20
0.0
 30
0.0
  9
$PLIMCHECK
 70
     0
  9
$PEXTMIN
 10
1.000000000000000E+20
 20
1.000000000000000E+20
 30
1.000000000000000E+20
  9
$PEXTMAX
 10
-1.000000000000000E+20
 20
-1.000000000000000E+20
 30
-1.000000000000000E+20
  9
$PLIMMIN
 10
0.0
 20
0.0
  9
$PLIMMAX
 10
12.0
 20
9.0
  9
$UNITMODE
 70
     0
  9
$VISRETAIN
 70
     1
  9
$PLINEGEN
 70
     0
  9
$PSLTSCALE
 70
     1
  9
$TREEDEPTH
 70
  3020
  9
$PICKSTYLE
 70
     1
  9
$CMLSTYLE
  2
STANDARD
  9
$CMLJUST
 70
     0
  9
$CMLSCALE
 40
1.0
  9
$SAVEIMAGES
 70
     1
  0
ENDSEC
  0
SECTION
  2
CLASSES
  0
CLASS
  1
ACDBDICTIONARYWDFLT
  2
AcDbDictionaryWithDefault
  3
ObjectDBX Classes
 90
    32768
280
     0
281
     0
  0
CLASS
  1
VISUALSTYLE
  2
AcDbVisualStyle
  3
ObjectDBX Classes
 90
     4095
280
     0
281
     0
  0
CLASS
  1
MATERIAL
  2
AcDbMaterial
  3
ObjectDBX Classes
 90
     1153
280
     0
281
     0
  0
CLASS
  1
SUN
  2
AcDbSun
  3
SCENEOE
 90
     1024
280
     0
281
     0
  0
CLASS
  1
DICTIONARYVAR
  2
AcDbDictionaryVar
  3
ObjectDBX Classes
 90
        0
280
     0
281
     0
  0
CLASS
  1
XRECORD
  2
AcDbXrecord
  3
AutoCAD 2000
 90
    32768
280
     0
281
     0
  0
CLASS
  1
LWPOLYLINE
  2
AcDbPolyline
  3
AutoCAD 2000
 90
    32768
280
     0
281
     1
  0
CLASS
  1
HATCH
  2
AcDbHatch
  3
AutoCAD 2000
 90
    32768
280
     0
281
     1
  0
CLASS
  1
ACDBPLACEHOLDER
  2
AcDbPlaceHolder
  3
ObjectDBX Classes
 90
        0
280
     0
281
     0
  0
CLASS
  1
LAYOUT
  2
AcDbLayout
  3
ObjectDBX Classes
 90
        0
280
     0
281
     0
  0
ENDSEC
  0
SECTION
  2
TABLES
  0
TABLE
  2
VPORT
  5
8
330
0
100
AcDbSymbolTable
 70
     1
  0
VPORT
  5
29
330
8
100
AcDbSymbolTableRecord
100
AcDbViewportTableRecord
  2
*ACTIVE
 70
     0
 10
0.0
 20
0.0
 11
1.0
 21
1.0
 12
0.0
 22
0.0
 13
0.0
 23
0.0
 14
0.5
 24
0.5
 15
0.5
 25
0.5
 16
0.0
 26
0.0
 36
1.0
 17
148.7061610201823
 27
210.182599498328
 37
0.0
 40
299.9999999249995
 41
1.333333333333336
 42
50.0
 43
0.0
 44
0.0
 50
0.0
 51
0.0
 71
     0
 72
   100
 73
     1
 74
     3
 75
     0
 76
     0
 77
     0
 78
     0
  0
ENDTAB
  0
TABLE
  2
LTYPE
  5
5
330
0
100
AcDbSymbolTable
 70
     1
  0
LTYPE
  5
14
330
5
100
AcDbSymbolTableRecord
100
AcDbLinetypeTableRecord
  2
BYBLOCK
 70
     0
  3

 72
    65
 73
     0
 40
0.0
  0
LTYPE
  5
15
330
5
100
AcDbSymbolTableRecord
100
AcDbLinetypeTableRecord
  2
BYLAYER
 70
     0
  3

 72
    65
 73
     0
 40
0.0
  0
LTYPE
  5
16
330
5
100
AcDbSymbolTableRecord
100
AcDbLinetypeTableRecord
  2
CONTINUOUS
 70
     0
  3
Solid line
 72
    65
 73
     0
 40
0.0
  0
ENDTAB
  0
TABLE
  2
LAYER
  5
2
330
0
100
AcDbSymbolTable
 70
     2
  0
LAYER
  5
10
330
2
100
AcDbSymbolTableRecord
100
AcDbLayerTableRecord
  2
0
 70
     0
 62
     7
  6
CONTINUOUS
  0
LAYER
  5
40
330
2
100
AcDbSymbolTableRecord
100
AcDbLayerTableRecord
  2
LAYER_1
 70
     0
 62
     7
  6
CONTINUOUS
  0
ENDTAB
  0
TABLE
  2
STYLE
  5
3
330
0
100
AcDbSymbolTable
 70
     1
  0
STYLE
  5
11
330
3
100
AcDbSymbolTableRecord
100
AcDbTextStyleTableRecord
  2
STANDARD
 70
     0
 40
0.0
 41
1.0
 50
0.0
 71
     0
 42
0.2
  3
txt
  4

  0
ENDTAB
  0
TABLE
  2
VIEW
  5
6
330
0
100
AcDbSymbolTable
 70
     0
  0
ENDTAB
  0
TABLE
  2
UCS
  5
7
330
0
100
AcDbSymbolTable
 70
     0
  0
ENDTAB
  0
TABLE
  2
APPID
  5
9
330
0
100
AcDbSymbolTable
 70
     1
  0
APPID
  5
12
330
9
100
AcDbSymbolTableRecord
100
AcDbRegAppTableRecord
  2
ACAD
 70
     0
  0
ENDTAB
  0
TABLE
  2
DIMSTYLE
  5
A
330
0
100
AcDbSymbolTable
 70
     1
  0
DIMSTYLE
105
27
330
A
100
AcDbSymbolTableRecord
100
AcDbDimStyleTableRecord
  2
STANDARD
 70
     0
  3

  4

  5

  6

  7

 40
1.0
 41
0.18
 42
0.0625
 43
0.38
 44
0.18
 45
0.0
 46
0.0
 47
0.0
 48
0.0
140
0.18
141
0.09
142
0.0
143
25.4
144
1.0
145
0.0
146
1.0
147
0.09
 71
     0
 72
     0
 73
     1
 74
     1
 75
     0
 76
     0
 77
     0
 78
     0
170
     0
171
     2
172
     0
173
     0
174
     0
175
     0
176
     0
177
     0
178
     0
270
     2
271
     4
272
     4
273
     2
274
     2
340
11
275
     0
280
     0
281
     0
282
     0
283
     1
284
     0
285
     0
286
     0
287
     3
288
     0
  0
ENDTAB
  0
TABLE
  2
BLOCK_RECORD
  5
1
330
0
100
AcDbSymbolTable
 70
     1
  0
BLOCK_RECORD
  5
1F
330
1
100
AcDbSymbolTableRecord
100
AcDbBlockTableRecord
  2
*MODEL_SPACE
  0
BLOCK_RECORD
  5
1B
330
1
100
AcDbSymbolTableRecord
100
AcDbBlockTableRecord
  2
*PAPER_SPACE
  0
ENDTAB
  0
ENDSEC
  0
SECTION
  2
BLOCKS
  0
BLOCK
  5
20
330
1F
100
AcDbEntity
  8
0
100
AcDbBlockBegin
  2
*MODEL_SPACE
 70
     0
 10
0.0
 20
0.0
 30
0.0
  3
*MODEL_SPACE
  1

  0
ENDBLK
  5
21
330
1F
100
AcDbEntity
  8
0
100
AcDbBlockEnd
  0
BLOCK
  5
1C
330
1B
100
AcDbEntity
 67
     1
  8
0
100
AcDbBlockBegin
  2
*PAPER_SPACE
 70
     0
 10
0.0
 20
0.0
 30
0.0
  3
*PAPER_SPACE
  1

  0
ENDBLK
  5
1D
330
1B
100
AcDbEntity
 67
     1
  8
0
100
AcDbBlockEnd
  0
ENDSEC
  0
SECTION
  2
ENTITIES
  0
SPLINE
  5
41
330
1F
100
AcDbEntity
  8
LAYER_1
 62
     3
100
AcDbSpline
210
0.0
220
0.0
230
1.0
 70
    11
 71
     3
 72
    29
 73
    25
 74
     0
 42
0.0000000001
 43
0.0000000001
 12
1.0
 22
0.0
 32
0.0
 13
1.0
 23
0.0
 33
0.0
 40
0.0
 40
0.0
 40
0.0
 40
0.0
 40
1.0
 40
1.0
 40
1.0
 40
2.0
 40
2.0
 40
2.0
 40
3.0
 40
3.0
 40
3.0
 40
4.0
 40
4.0
 40
4.0
 40
5.0
 40
5.0
 40
5.0
 40
6.0
 40
6.0
 40
6.0
 40
7.0
 40
7.0
 40
7.0
 40
8.0
 40
8.0
 40
8.0
 40
8.0
 10
-43.72368984267979
 20
355.7994779540896
 30
0.0
 10
-45.12389403467284
 20
355.7977727084775
 30
0.0
 10
-46.22464174543045
 20
354.4241311828157
 30
0.0
 10
-46.22296146377901
 20
353.0444252937615
 30
0.0
 10
-46.22296146377901
 20
353.0444252937615
 30
0.0
 10
-46.16580367205823
 20
306.1112568158889
 30
0.0
 10
-46.16580367205823
 20
306.1112568158889
 30
0.0
 10
-46.16412209238567
 20
304.7304851012067
 30
0.0
 10
-45.06046792901145
 20
303.7175923288968
 30
0.0
 10
-43.6602637370184
 20
303.7192975745082
 30
0.0
 10
-43.6602637370184
 20
303.7192975745082
 30
0.0
 10
24.8970838607637
 20
303.8042008168987
 30
0.0
 10
24.8970838607637
 20
303.8042008168987
 30
0.0
 10
26.29727728683913
 20
303.8059060493989
 30
0.0
 10
27.71524984555315
 20
304.820459460293
 30
0.0
 10
27.71356826588059
 20
306.2012311749746
 30
0.0
 10
27.71356826588059
 20
306.2012311749746
 30
0.0
 10
27.65641047416045
 20
353.1343996528463
 30
0.0
 10
27.65641047416045
 20
353.1343996528463
 30
0.0
 10
27.65473019250836
 20
354.5141055419036
 30
0.0
 10
26.23385289876095
 20
355.8846760940636
 30
0.0
 10
24.83365947268551
 20
355.8829708615611
 30
0.0
 10
24.83365947268551
 20
355.8829708615611
 30
0.0
 10
-43.72368984267979
 20
355.7994779540896
 30
0.0
 10
-43.72368984267979
 20
355.7994779540896
 30
0.0
  0
POLYLINE
  5
42
330
1F
100
AcDbEntity
  8
LAYER_1
 62
     5
100
AcDb2dPolyline
 66
     1
 10
0.0
 20
0.0
 30
0.0
  0
VERTEX
  5
43
330
42
100
AcDbEntity
  8
LAYER_1
 62
     5
100
AcDbVertex
100
AcDb2dVertex
 10
-39.78394804959066
 20
309.5103427125587
 30
0.0
  0
VERTEX
  5
44
330
42
100
AcDbEntity
  8
LAYER_1
 62
     5
100
AcDbVertex
100
AcDb2dVertex
 10
-39.83328209930986
 20
350.0193126615848
 30
0.0
  0
VERTEX
  5
45
330
42
100
AcDbEntity
  8
LAYER_1
 62
     5
100
AcDbVertex
100
AcDb2dVertex
 10
21.27448439063958
 20
350.0937330577102
 30
0.0
  0
VERTEX
  5
46
330
42
100
AcDbEntity
  8
LAYER_1
 62
     5
100
AcDbVertex
100
AcDb2dVertex
 10
21.32381844035878
 20
309.5847631086846
 30
0.0
  0
VERTEX
  5
47
330
42
100
AcDbEntity
  8
LAYER_1
 62
     5
100
AcDbVertex
100
AcDb2dVertex
 10
-39.78394804959066
 20
309.5103427125587
 30
0.0
  0
SEQEND
  5
48
330
42
100
AcDbEntity
  8
LAYER_1
 62
     5
  0
SPLINE
  5
49
330
1F
100
AcDbEntity
  8
LAYER_1
 62
     3
100
AcDbSpline
210
0.0
220
0.0
230
1.0
 70
    11
 71
     3
 72
    29
 73
    25
 74
     0
 42
0.0000000001
 43
0.0000000001
 12
1.0
 22
0.0
 32
0.0
 13
1.0
 23
0.0
 33
0.0
 40
0.0
 40
0.0
 40
0.0
 40
0.0
 40
1.0
 40
1.0
 40
1.0
 40
2.0
 40
2.0
 40
2.0
 40
3.0
 40
3.0
 40
3.0
 40
4.0
 40
4.0
 40
4.0
 40
5.0
 40
5.0
 40
5.0
 40
6.0
 40
6.0
 40
6.0
 40
7.0
 40
7.0
 40
7.0
 40
8.0
 40
8.0
 40
8.0
 40
8.0
 10
-43.72379489383063
 20
299.4319430863603
 30
0.0
 10
-45.12399908582368
 20
299.4302378407483
 30
0.0
 10
-46.22474679658129
 20
298.0565963150865
 30
0.0
 10
-46.22306651492985
 20
296.6768904260323
 30
0.0
 10
-46.22306651492985
 20
296.6768904260323
 30
0.0
 10
-46.16590872320907
 20
249.7437219481597
 30
0.0
 10
-46.16590872320907
 20
249.7437219481597
 30
0.0
 10
-46.16422714353651
 20
248.3629502334775
 30
0.0
 10
-45.06057298016229
 20
247.3500574611676
 30
0.0
 10
-43.66036878816924
 20
247.351762706779
 30
0.0
 10
-43.66036878816924
 20
247.351762706779
 30
0.0
 10
24.89697880961286
 20
247.4366659491695
 30
0.0
 10
24.89697880961286
 20
247.4366659491695
 30
0.0
 10
26.29717223568829
 20
247.4383711816697
 30
0.0
 10
27.71514479440231
 20
248.4529245925638
 30
0.0
 10
27.71346321472975
 20
249.8336963072454
 30
0.0
 10
27.71346321472975
 20
249.8336963072454
 30
0.0
 10
27.65630542300961
 20
296.7668647851171
 30
0.0
 10
27.65630542300961
 20
296.7668647851171
 30
0.0
 10
27.65462514135752
 20
298.1465706741744
 30
0.0
 10
26.2337478476101
 20
299.5171412263344
 30
0.0
 10
24.83355442153468
 20
299.5154359938319
 30
0.0
 10
24.83355442153468
 20
299.5154359938319
 30
0.0
 10
-43.72379489383063
 20
299.4319430863603
 30
0.0
 10
-43.72379489383063
 20
299.4319430863603
 30
0.0
  0
POLYLINE
  5
4A
330
1F
100
AcDbEntity
  8
LAYER_1
 62
     5
100
AcDb2dPolyline
 66
     1
 10
0.0
 20
0.0
 30
0.0
  0
VERTEX
  5
4B
330
4A
100
AcDbEntity
  8
LAYER_1
 62
     5
100
AcDbVertex
100
AcDb2dVertex
 10
-39.7840531007415
 20
253.1428078448294
 30
0.0
  0
VERTEX
  5
4C
330
4A
100
AcDbEntity
  8
LAYER_1
 62
     5
100
AcDbVertex
100
AcDb2dVertex
 10
-39.8333871504607
 20
293.6517777938556
 30
0.0
  0
VERTEX
  5
4D
330
4A
100
AcDbEntity
  8
LAYER_1
 62
     5
100
AcDbVertex
100
AcDb2dVertex
 10
21.27437933948874
 20
293.7261981899809
 30
0.0
  0
VERTEX
  5
4E
330
4A
100
AcDbEntity
  8
LAYER_1
 62
     5
100
AcDbVertex
100
AcDb2dVertex
 10
21.32371338920794
 20
253.2172282409554
 30
0.0
  0
VERTEX
  5
4F
330
4A
100
AcDbEntity
  8
LAYER_1
 62
     5
100
AcDbVertex
100
AcDb2dVertex
 10
-39.7840531007415
 20
253.1428078448294
 30
0.0
  0
SEQEND
  5
50
330
4A
100
AcDbEntity
  8
LAYER_1
 62
     5
  0
SPLINE
  5
51
330
1F
100
AcDbEntity
  8
LAYER_1
 62
     3
100
AcDbSpline
210
0.0
220
0.0
230
1.0
 70
    11
 71
     3
 72
    29
 73
    25
 74
     0
 42
0.0000000001
 43
0.0000000001
 12
1.0
 22
0.0
 32
0.0
 13
1.0
 23
0.0
 33
0.0
 40
0.0
 40
0.0
 40
0.0
 40
0.0
 40
1.0
 40
1.0
 40
1.0
 40
2.0
 40
2.0
 40
2.0
 40
3.0
 40
3.0
 40
3.0
 40
4.0
 40
4.0
 40
4.0
 40
5.0
 40
5.0
 40
5.0
 40
6.0
 40
6.0
 40
6.0
 40
7.0
 40
7.0
 40
7.0
 40
8.0
 40
8.0
 40
8.0
 40
8.0
 10
-43.72363731710437
 20
243.0644082186311
 30
0.0
 10
-45.12384150909742
 20
243.062702973019
 30
0.0
 10
-46.22458921985503
 20
241.6890614473573
 30
0.0
 10
-46.22290893820359
 20
240.3093555583031
 30
0.0
 10
-46.22290893820359
 20
240.3093555583031
 30
0.0
 10
-46.16575114648281
 20
193.3761870804304
 30
0.0
 10
-46.16575114648281
 20
193.3761870804304
 30
0.0
 10
-46.16406956681025
 20
191.9954153657482
 30
0.0
 10
-45.06041540343603
 20
190.9825225934383
 30
0.0
 10
-43.66021121144298
 20
190.9842278390498
 30
0.0
 10
-43.66021121144298
 20
190.9842278390498
 30
0.0
 10
24.89713638633912
 20
191.0691310814402
 30
0.0
 10
24.89713638633912
 20
191.0691310814402
 30
0.0
 10
26.29732981241455
 20
191.0708363139405
 30
0.0
 10
27.71530237112857
 20
192.0853897248346
 30
0.0
 10
27.71362079145601
 20
193.4661614395161
 30
0.0
 10
27.71362079145601
 20
193.4661614395161
 30
0.0
 10
27.65646299973587
 20
240.3993299173878
 30
0.0
 10
27.65646299973587
 20
240.3993299173878
 30
0.0
 10
27.65478271808378
 20
241.7790358064452
 30
0.0
 10
26.23390542433637
 20
243.1496063586051
 30
0.0
 10
24.83371199826093
 20
243.1479011261027
 30
0.0
 10
24.83371199826093
 20
243.1479011261027
 30
0.0
 10
-43.72363731710437
 20
243.0644082186311
 30
0.0
 10
-43.72363731710437
 20
243.0644082186311
 30
0.0
  0
POLYLINE
  5
52
330
1F
100
AcDbEntity
  8
LAYER_1
 62
     5
100
AcDb2dPolyline
 66
     1
 10
0.0
 20
0.0
 30
0.0
  0
VERTEX
  5
53
330
52
100
AcDbEntity
  8
LAYER_1
 62
     5
100
AcDbVertex
100
AcDb2dVertex
 10
-39.78389552401524
 20
196.7752729771002
 30
0.0
  0
VERTEX
  5
54
330
52
100
AcDbEntity
  8
LAYER_1
 62
     5
100
AcDbVertex
100
AcDb2dVertex
 10
-39.83322957373444
 20
237.2842429261264
 30
0.0
  0
VERTEX
  5
55
330
52
100
AcDbEntity
  8
LAYER_1
 62
     5
100
AcDbVertex
100
AcDb2dVertex
 10
21.274536916215
 20
237.3586633222517
 30
0.0
  0
VERTEX
  5
56
330
52
100
AcDbEntity
  8
LAYER_1
 62
     5
100
AcDbVertex
100
AcDb2dVertex
 10
21.3238709659342
 20
196.8496933732262
 30
0.0
  0
VERTEX
  5
57
330
52
100
AcDbEntity
  8
LAYER_1
 62
     5
100
AcDbVertex
100
AcDb2dVertex
 10
-39.78389552401524
 20
196.7752729771002
 30
0.0
  0
SEQEND
  5
58
330
52
100
AcDbEntity
  8
LAYER_1
 62
     5
  0
SPLINE
  5
59
330
1F
100
AcDbEntity
  8
LAYER_1
 62
     3
100
AcDbSpline
210
0.0
220
0.0
230
1.0
 70
    11
 71
     3
 72
    29
 73
    25
 74
     0
 42
0.0000000001
 43
0.0000000001
 12
1.0
 22
0.0
 32
0.0
 13
1.0
 23
0.0
 33
0.0
 40
0.0
 40
0.0
 40
0.0
 40
0.0
 40
1.0
 40
1.0
 40
1.0
 40
2.0
 40
2.0
 40
2.0
 40
3.0
 40
3.0
 40
3.0
 40
4.0
 40
4.0
 40
4.0
 40
5.0
 40
5.0
 40
5.0
 40
6.0
 40
6.0
 40
6.0
 40
7.0
 40
7.0
 40
7.0
 40
8.0
 40
8.0
 40
8.0
 40
8.0
 10
-43.72374236825521
 20
186.6968733509022
 30
0.0
 10
-45.12394656024826
 20
186.6951681052895
 30
0.0
 10
-46.22469427100587
 20
185.3215265796277
 30
0.0
 10
-46.22301398935443
 20
183.9418206905739
 30
0.0
 10
-46.22301398935443
 20
183.9418206905739
 30
0.0
 10
-46.16585619763365
 20
137.0086522127015
 30
0.0
 10
-46.16585619763365
 20
137.0086522127015
 30
0.0
 10
-46.16417461796109
 20
135.6278804980194
 30
0.0
 10
-45.06052045458687
 20
134.6149877257088
 30
0.0
 10
-43.66031626259382
 20
134.6166929713202
 30
0.0
 10
-43.66031626259382
 20
134.6166929713202
 30
0.0
 10
24.89703133518828
 20
134.7015962137107
 30
0.0
 10
24.89703133518828
 20
134.7015962137107
 30
0.0
 10
26.29722476126371
 20
134.7033014462109
 30
0.0
 10
27.71519731997773
 20
135.7178548571057
 30
0.0
 10
27.71351574030517
 20
137.0986265717866
 30
0.0
 10
27.71351574030517
 20
137.0986265717866
 30
0.0
 10
27.65635794858503
 20
184.0317950496583
 30
0.0
 10
27.65635794858503
 20
184.0317950496583
 30
0.0
 10
27.65467766693294
 20
185.411500938716
 30
0.0
 10
26.23380037318553
 20
186.7820714908759
 30
0.0
 10
24.83360694711009
 20
186.7803662583731
 30
0.0
 10
24.83360694711009
 20
186.7803662583731
 30
0.0
 10
-43.72374236825521
 20
186.6968733509022
 30
0.0
 10
-43.72374236825521
 20
186.6968733509022
 30
0.0
  0
POLYLINE
  5
5A
330
1F
100
AcDbEntity
  8
LAYER_1
 62
     5
100
AcDb2dPolyline
 66
     1
 10
0.0
 20
0.0
 30
0.0
  0
VERTEX
  5
5B
330
5A
100
AcDbEntity
  8
LAYER_1
 62
     5
100
AcDbVertex
100
AcDb2dVertex
 10
-39.78400057516608
 20
140.4077381093713
 30
0.0
  0
VERTEX
  5
5C
330
5A
100
AcDbEntity
  8
LAYER_1
 62
     5
100
AcDbVertex
100
AcDb2dVertex
 10
-39.83333462488528
 20
180.9167080583975
 30
0.0
  0
VERTEX
  5
5D
330
5A
100
AcDbEntity
  8
LAYER_1
 62
     5
100
AcDbVertex
100
AcDb2dVertex
 10
21.27443186506416
 20
180.9911284545228
 30
0.0
  0
VERTEX
  5
5E
330
5A
100
AcDbEntity
  8
LAYER_1
 62
     5
100
AcDbVertex
100
AcDb2dVertex
 10
21.32376591478336
 20
140.4821585054966
 30
0.0
  0
VERTEX
  5
5F
330
5A
100
AcDbEntity
  8
LAYER_1
 62
     5
100
AcDbVertex
100
AcDb2dVertex
 10
-39.78400057516608
 20
140.4077381093713
 30
0.0
  0
SEQEND
  5
60
330
5A
100
AcDbEntity
  8
LAYER_1
 62
     5
  0
SPLINE
  5
61
330
1F
100
AcDbEntity
  8
LAYER_1
 62
     3
100
AcDbSpline
210
0.0
220
0.0
230
1.0
 70
    11
 71
     3
 72
    29
 73
    25
 74
     0
 42
0.0000000001
 43
0.0000000001
 12
1.0
 22
0.0
 32
0.0
 13
1.0
 23
0.0
 33
0.0
 40
0.0
 40
0.0
 40
0.0
 40
0.0
 40
1.0
 40
1.0
 40
1.0
 40
2.0
 40
2.0
 40
2.0
 40
3.0
 40
3.0
 40
3.0
 40
4.0
 40
4.0
 40
4.0
 40
5.0
 40
5.0
 40
5.0
 40
6.0
 40
6.0
 40
6.0
 40
7.0
 40
7.0
 40
7.0
 40
8.0
 40
8.0
 40
8.0
 40
8.0
 10
-43.72363731710469
 20
130.3293384831733
 30
0.0
 10
-45.12384150909774
 20
130.3276332375606
 30
0.0
 10
-46.22458921985535
 20
128.9539917118988
 30
0.0
 10
-46.22290893820391
 20
127.574285822845
 30
0.0
 10
-46.22290893820391
 20
127.574285822845
 30
0.0
 10
-46.16575114648313
 20
80.64111734497263
 30
0.0
 10
-46.16575114648313
 20
80.64111734497263
 30
0.0
 10
-46.16406956681057
 20
79.26034563029044
 30
0.0
 10
-45.06041540343635
 20
78.24745285797988
 30
0.0
 10
-43.6602112114433
 20
78.2491581035913
 30
0.0
 10
-43.6602112114433
 20
78.2491581035913
 30
0.0
 10
24.8971363863388
 20
78.3340613459818
 30
0.0
 10
24.8971363863388
 20
78.3340613459818
 30
0.0
 10
26.29732981241423
 20
78.33576657848202
 30
0.0
 10
27.71530237112825
 20
79.35031998937677
 30
0.0
 10
27.71362079145569
 20
80.73109170405768
 30
0.0
 10
27.71362079145569
 20
80.73109170405768
 30
0.0
 10
27.65646299973555
 20
127.6642601819294
 30
0.0
 10
27.65646299973555
 20
127.6642601819294
 30
0.0
 10
27.65478271808346
 20
129.043966070987
 30
0.0
 10
26.23390542433604
 20
130.414536623147
 30
0.0
 10
24.83371199826061
 20
130.4128313906442
 30
0.0
 10
24.83371199826061
 20
130.4128313906442
 30
0.0
 10
-43.72363731710469
 20
130.3293384831733
 30
0.0
 10
-43.72363731710469
 20
130.3293384831733
 30
0.0
  0
POLYLINE
  5
62
330
1F
100
AcDbEntity
  8
LAYER_1
 62
     5
100
AcDb2dPolyline
 66
     1
 10
0.0
 20
0.0
 30
0.0
  0
VERTEX
  5
63
330
62
100
AcDbEntity
  8
LAYER_1
 62
     5
100
AcDbVertex
100
AcDb2dVertex
 10
-39.78389552401556
 20
84.04020324164239
 30
0.0
  0
VERTEX
  5
64
330
62
100
AcDbEntity
  8
LAYER_1
 62
     5
100
AcDbVertex
100
AcDb2dVertex
 10
-39.83322957373476
 20
124.5491731906686
 30
0.0
  0
VERTEX
  5
65
330
62
100
AcDbEntity
  8
LAYER_1
 62
     5
100
AcDbVertex
100
AcDb2dVertex
 10
21.27453691621468
 20
124.6235935867939
 30
0.0
  0
VERTEX
  5
66
330
62
100
AcDbEntity
  8
LAYER_1
 62
     5
100
AcDbVertex
100
AcDb2dVertex
 10
21.32387096593388
 20
84.11462363776774
 30
0.0
  0
VERTEX
  5
67
330
62
100
AcDbEntity
  8
LAYER_1
 62
     5
100
AcDbVertex
100
AcDb2dVertex
 10
-39.78389552401556
 20
84.04020324164239
 30
0.0
  0
SEQEND
  5
68
330
62
100
AcDbEntity
  8
LAYER_1
 62
     5
  0
SPLINE
  5
69
330
1F
100
AcDbEntity
  8
LAYER_1
 62
     3
100
AcDbSpline
210
0.0
220
0.0
230
1.0
 70
    11
 71
     3
 72
    29
 73
    25
 74
     0
 42
0.0000000001
 43
0.0000000001
 12
1.0
 22
0.0
 32
0.0
 13
1.0
 23
0.0
 33
0.0
 40
0.0
 40
0.0
 40
0.0
 40
0.0
 40
1.0
 40
1.0
 40
1.0
 40
2.0
 40
2.0
 40
2.0
 40
3.0
 40
3.0
 40
3.0
 40
4.0
 40
4.0
 40
4.0
 40
5.0
 40
5.0
 40
5.0
 40
6.0
 40
6.0
 40
6.0
 40
7.0
 40
7.0
 40
7.0
 40
8.0
 40
8.0
 40
8.0
 40
8.0
 10
34.92914207802024
 20
355.8003819013616
 30
0.0
 10
33.52893788602719
 20
355.7986766557495
 30
0.0
 10
32.42819017526958
 20
354.4250351300877
 30
0.0
 10
32.42987045692103
 20
353.0453292410335
 30
0.0
 10
32.42987045692103
 20
353.0453292410335
 30
0.0
 10
32.48702824864181
 20
306.1121607631609
 30
0.0
 10
32.48702824864181
 20
306.1121607631609
 30
0.0
 10
32.48870982831437
 20
304.7313890484787
 30
0.0
 10
33.59236399168859
 20
303.7184962761688
 30
0.0
 10
34.99256818368163
 20
303.7202015217802
 30
0.0
 10
34.99256818368163
 20
303.7202015217802
 30
0.0
 10
103.5499157814637
 20
303.8051047641707
 30
0.0
 10
103.5499157814637
 20
303.8051047641707
 30
0.0
 10
104.9501092075392
 20
303.8068099966709
 30
0.0
 10
106.3680817662532
 20
304.821363407565
 30
0.0
 10
106.3664001865806
 20
306.2021351222465
 30
0.0
 10
106.3664001865806
 20
306.2021351222465
 30
0.0
 10
106.3092423948605
 20
353.1353036001183
 30
0.0
 10
106.3092423948605
 20
353.1353036001183
 30
0.0
 10
106.3075621132084
 20
354.5150094891756
 30
0.0
 10
104.886684819461
 20
355.8855800413356
 30
0.0
 10
103.4864913933855
 20
355.8838748088331
 30
0.0
 10
103.4864913933855
 20
355.8838748088331
 30
0.0
 10
34.92914207802024
 20
355.8003819013616
 30
0.0
 10
34.92914207802024
 20
355.8003819013616
 30
0.0
  0
POLYLINE
  5
6A
330
1F
100
AcDbEntity
  8
LAYER_1
 62
     5
100
AcDb2dPolyline
 66
     1
 10
0.0
 20
0.0
 30
0.0
  0
VERTEX
  5
6B
330
6A
100
AcDbEntity
  8
LAYER_1
 62
     5
100
AcDbVertex
100
AcDb2dVertex
 10
38.86888387110937
 20
309.5112466598306
 30
0.0
  0
VERTEX
  5
6C
330
6A
100
AcDbEntity
  8
LAYER_1
 62
     5
100
AcDbVertex
100
AcDb2dVertex
 10
38.81954982139017
 20
350.0202166088568
 30
0.0
  0
VERTEX
  5
6D
330
6A
100
AcDbEntity
  8
LAYER_1
 62
     5
100
AcDbVertex
100
AcDb2dVertex
 10
99.92731631133961
 20
350.0946370049821
 30
0.0
  0
VERTEX
  5
6E
330
6A
100
AcDbEntity
  8
LAYER_1
 62
     5
100
AcDbVertex
100
AcDb2dVertex
 10
99.97665036105882
 20
309.5856670559566
 30
0.0
  0
VERTEX
  5
6F
330
6A
100
AcDbEntity
  8
LAYER_1
 62
     5
100
AcDbVertex
100
AcDb2dVertex
 10
38.86888387110937
 20
309.5112466598306
 30
0.0
  0
SEQEND
  5
70
330
6A
100
AcDbEntity
  8
LAYER_1
 62
     5
  0
SPLINE
  5
71
330
1F
100
AcDbEntity
  8
LAYER_1
 62
     3
100
AcDbSpline
210
0.0
220
0.0
230
1.0
 70
    11
 71
     3
 72
    29
 73
    25
 74
     0
 42
0.0000000001
 43
0.0000000001
 12
1.0
 22
0.0
 32
0.0
 13
1.0
 23
0.0
 33
0.0
 40
0.0
 40
0.0
 40
0.0
 40
0.0
 40
1.0
 40
1.0
 40
1.0
 40
2.0
 40
2.0
 40
2.0
 40
3.0
 40
3.0
 40
3.0
 40
4.0
 40
4.0
 40
4.0
 40
5.0
 40
5.0
 40
5.0
 40
6.0
 40
6.0
 40
6.0
 40
7.0
 40
7.0
 40
7.0
 40
8.0
 40
8.0
 40
8.0
 40
8.0
 10
34.9290370268694
 20
299.4328470336323
 30
0.0
 10
33.52883283487635
 20
299.4311417880202
 30
0.0
 10
32.42808512411874
 20
298.0575002623585
 30
0.0
 10
32.42976540577019
 20
296.6777943733043
 30
0.0
 10
32.42976540577019
 20
296.6777943733043
 30
0.0
 10
32.48692319749097
 20
249.7446258954317
 30
0.0
 10
32.48692319749097
 20
249.7446258954317
 30
0.0
 10
32.48860477716353
 20
248.3638541807495
 30
0.0
 10
33.59225894053775
 20
247.3509614084395
 30
0.0
 10
34.99246313253079
 20
247.3526666540509
 30
0.0
 10
34.99246313253079
 20
247.3526666540509
 30
0.0
 10
103.5498107303129
 20
247.4375698964414
 30
0.0
 10
103.5498107303129
 20
247.4375698964414
 30
0.0
 10
104.9500041563883
 20
247.4392751289417
 30
0.0
 10
106.3679767151023
 20
248.4538285398358
 30
0.0
 10
106.3662951354298
 20
249.8346002545173
 30
0.0
 10
106.3662951354298
 20
249.8346002545173
 30
0.0
 10
106.3091373437096
 20
296.767768732389
 30
0.0
 10
106.3091373437096
 20
296.767768732389
 30
0.0
 10
106.3074570620576
 20
298.1474746214464
 30
0.0
 10
104.8865797683101
 20
299.5180451736063
 30
0.0
 10
103.4863863422347
 20
299.5163399411039
 30
0.0
 10
103.4863863422347
 20
299.5163399411039
 30
0.0
 10
34.9290370268694
 20
299.4328470336323
 30
0.0
 10
34.9290370268694
 20
299.4328470336323
 30
0.0
  0
POLYLINE
  5
72
330
1F
100
AcDbEntity
  8
LAYER_1
 62
     5
100
AcDb2dPolyline
 66
     1
 10
0.0
 20
0.0
 30
0.0
  0
VERTEX
  5
73
330
72
100
AcDbEntity
  8
LAYER_1
 62
     5
100
AcDbVertex
100
AcDb2dVertex
 10
38.86877881995853
 20
253.1437117921014
 30
0.0
  0
VERTEX
  5
74
330
72
100
AcDbEntity
  8
LAYER_1
 62
     5
100
AcDbVertex
100
AcDb2dVertex
 10
38.81944477023933
 20
293.6526817411276
 30
0.0
  0
VERTEX
  5
75
330
72
100
AcDbEntity
  8
LAYER_1
 62
     5
100
AcDbVertex
100
AcDb2dVertex
 10
99.92721126018877
 20
293.7271021372529
 30
0.0
  0
VERTEX
  5
76
330
72
100
AcDbEntity
  8
LAYER_1
 62
     5
100
AcDbVertex
100
AcDb2dVertex
 10
99.97654530990798
 20
253.2181321882274
 30
0.0
  0
VERTEX
  5
77
330
72
100
AcDbEntity
  8
LAYER_1
 62
     5
100
AcDbVertex
100
AcDb2dVertex
 10
38.86877881995853
 20
253.1437117921014
 30
0.0
  0
SEQEND
  5
78
330
72
100
AcDbEntity
  8
LAYER_1
 62
     5
  0
SPLINE
  5
79
330
1F
100
AcDbEntity
  8
LAYER_1
 62
     3
100
AcDbSpline
210
0.0
220
0.0
230
1.0
 70
    11
 71
     3
 72
    29
 73
    25
 74
     0
 42
0.0000000001
 43
0.0000000001
 12
1.0
 22
0.0
 32
0.0
 13
1.0
 23
0.0
 33
0.0
 40
0.0
 40
0.0
 40
0.0
 40
0.0
 40
1.0
 40
1.0
 40
1.0
 40
2.0
 40
2.0
 40
2.0
 40
3.0
 40
3.0
 40
3.0
 40
4.0
 40
4.0
 40
4.0
 40
5.0
 40
5.0
 40
5.0
 40
6.0
 40
6.0
 40
6.0
 40
7.0
 40
7.0
 40
7.0
 40
8.0
 40
8.0
 40
8.0
 40
8.0
 10
34.92919460359566
 20
243.0653121659031
 30
0.0
 10
33.52899041160261
 20
243.063606920291
 30
0.0
 10
32.428242700845
 20
241.6899653946292
 30
0.0
 10
32.42992298249645
 20
240.3102595055751
 30
0.0
 10
32.42992298249645
 20
240.3102595055751
 30
0.0
 10
32.48708077421723
 20
193.3770910277024
 30
0.0
 10
32.48708077421723
 20
193.3770910277024
 30
0.0
 10
32.48876235388979
 20
191.9963193130202
 30
0.0
 10
33.59241651726401
 20
190.9834265407103
 30
0.0
 10
34.99262070925705
 20
190.9851317863217
 30
0.0
 10
34.99262070925705
 20
190.9851317863217
 30
0.0
 10
103.5499683070392
 20
191.0700350287122
 30
0.0
 10
103.5499683070392
 20
191.0700350287122
 30
0.0
 10
104.9501617331146
 20
191.0717402612125
 30
0.0
 10
106.3681342918286
 20
192.0862936721066
 30
0.0
 10
106.366452712156
 20
193.4670653867881
 30
0.0
 10
106.366452712156
 20
193.4670653867881
 30
0.0
 10
106.3092949204359
 20
240.4002338646598
 30
0.0
 10
106.3092949204359
 20
240.4002338646598
 30
0.0
 10
106.3076146387838
 20
241.7799397537171
 30
0.0
 10
104.8867373450364
 20
243.1505103058771
 30
0.0
 10
103.486543918961
 20
243.1488050733746
 30
0.0
 10
103.486543918961
 20
243.1488050733746
 30
0.0
 10
34.92919460359566
 20
243.0653121659031
 30
0.0
 10
34.92919460359566
 20
243.0653121659031
 30
0.0
  0
POLYLINE
  5
7A
330
1F
100
AcDbEntity
  8
LAYER_1
 62
     5
100
AcDb2dPolyline
 66
     1
 10
0.0
 20
0.0
 30
0.0
  0
VERTEX
  5
7B
330
7A
100
AcDbEntity
  8
LAYER_1
 62
     5
100
AcDbVertex
100
AcDb2dVertex
 10
38.86893639668479
 20
196.7761769243722
 30
0.0
  0
VERTEX
  5
7C
330
7A
100
AcDbEntity
  8
LAYER_1
 62
     5
100
AcDbVertex
100
AcDb2dVertex
 10
38.81960234696559
 20
237.2851468733984
 30
0.0
  0
VERTEX
  5
7D
330
7A
100
AcDbEntity
  8
LAYER_1
 62
     5
100
AcDbVertex
100
AcDb2dVertex
 10
99.92736883691504
 20
237.3595672695237
 30
0.0
  0
VERTEX
  5
7E
330
7A
100
AcDbEntity
  8
LAYER_1
 62
     5
100
AcDbVertex
100
AcDb2dVertex
 10
99.97670288663423
 20
196.8505973204982
 30
0.0
  0
VERTEX
  5
7F
330
7A
100
AcDbEntity
  8
LAYER_1
 62
     5
100
AcDbVertex
100
AcDb2dVertex
 10
38.86893639668479
 20
196.7761769243722
 30
0.0
  0
SEQEND
  5
80
330
7A
100
AcDbEntity
  8
LAYER_1
 62
     5
  0
SPLINE
  5
81
330
1F
100
AcDbEntity
  8
LAYER_1
 62
     3
100
AcDbSpline
210
0.0
220
0.0
230
1.0
 70
    11
 71
     3
 72
    29
 73
    25
 74
     0
 42
0.0000000001
 43
0.0000000001
 12
1.0
 22
0.0
 32
0.0
 13
1.0
 23
0.0
 33
0.0
 40
0.0
 40
0.0
 40
0.0
 40
0.0
 40
1.0
 40
1.0
 40
1.0
 40
2.0
 40
2.0
 40
2.0
 40
3.0
 40
3.0
 40
3.0
 40
4.0
 40
4.0
 40
4.0
 40
5.0
 40
5.0
 40
5.0
 40
6.0
 40
6.0
 40
6.0
 40
7.0
 40
7.0
 40
7.0
 40
8.0
 40
8.0
 40
8.0
 40
8.0
 10
34.92908955244482
 20
186.6977772981742
 30
0.0
 10
33.52888536045177
 20
186.6960720525615
 30
0.0
 10
32.42813764969416
 20
185.3224305268997
 30
0.0
 10
32.42981793134561
 20
183.9427246378459
 30
0.0
 10
32.42981793134561
 20
183.9427246378459
 30
0.0
 10
32.48697572306639
 20
137.0095561599735
 30
0.0
 10
32.48697572306639
 20
137.0095561599735
 30
0.0
 10
32.48865730273895
 20
135.6287844452913
 30
0.0
 10
33.59231146611317
 20
134.6158916729808
 30
0.0
 10
34.99251565810621
 20
134.6175969185922
 30
0.0
 10
34.99251565810621
 20
134.6175969185922
 30
0.0
 10
103.5498632558883
 20
134.7025001609827
 30
0.0
 10
103.5498632558883
 20
134.7025001609827
 30
0.0
 10
104.9500566819637
 20
134.7042053934829
 30
0.0
 10
106.3680292406778
 20
135.7187588043776
 30
0.0
 10
106.3663476610052
 20
137.0995305190586
 30
0.0
 10
106.3663476610052
 20
137.0995305190586
 30
0.0
 10
106.3091898692851
 20
184.0326989969303
 30
0.0
 10
106.3091898692851
 20
184.0326989969303
 30
0.0
 10
106.307509587633
 20
185.4124048859879
 30
0.0
 10
104.8866322938856
 20
186.7829754381479
 30
0.0
 10
103.4864388678101
 20
186.7812702056451
 30
0.0
 10
103.4864388678101
 20
186.7812702056451
 30
0.0
 10
34.92908955244482
 20
186.6977772981742
 30
0.0
 10
34.92908955244482
 20
186.6977772981742
 30
0.0
  0
POLYLINE
  5
82
330
1F
100
AcDbEntity
  8
LAYER_1
 62
     5
100
AcDb2dPolyline
 66
     1
 10
0.0
 20
0.0
 30
0.0
  0
VERTEX
  5
83
330
82
100
AcDbEntity
  8
LAYER_1
 62
     5
100
AcDbVertex
100
AcDb2dVertex
 10
38.86883134553395
 20
140.4086420566433
 30
0.0
  0
VERTEX
  5
84
330
82
100
AcDbEntity
  8
LAYER_1
 62
     5
100
AcDbVertex
100
AcDb2dVertex
 10
38.81949729581475
 20
180.9176120056694
 30
0.0
  0
VERTEX
  5
85
330
82
100
AcDbEntity
  8
LAYER_1
 62
     5
100
AcDbVertex
100
AcDb2dVertex
 10
99.9272637857642
 20
180.9920324017948
 30
0.0
  0
VERTEX
  5
86
330
82
100
AcDbEntity
  8
LAYER_1
 62
     5
100
AcDbVertex
100
AcDb2dVertex
 10
99.97659783548339
 20
140.4830624527686
 30
0.0
  0
VERTEX
  5
87
330
82
100
AcDbEntity
  8
LAYER_1
 62
     5
100
AcDbVertex
100
AcDb2dVertex
 10
38.86883134553395
 20
140.4086420566433
 30
0.0
  0
SEQEND
  5
88
330
82
100
AcDbEntity
  8
LAYER_1
 62
     5
  0
SPLINE
  5
89
330
1F
100
AcDbEntity
  8
LAYER_1
 62
     3
100
AcDbSpline
210
0.0
220
0.0
230
1.0
 70
    11
 71
     3
 72
    29
 73
    25
 74
     0
 42
0.0000000001
 43
0.0000000001
 12
1.0
 22
0.0
 32
0.0
 13
1.0
 23
0.0
 33
0.0
 40
0.0
 40
0.0
 40
0.0
 40
0.0
 40
1.0
 40
1.0
 40
1.0
 40
2.0
 40
2.0
 40
2.0
 40
3.0
 40
3.0
 40
3.0
 40
4.0
 40
4.0
 40
4.0
 40
5.0
 40
5.0
 40
5.0
 40
6.0
 40
6.0
 40
6.0
 40
7.0
 40
7.0
 40
7.0
 40
8.0
 40
8.0
 40
8.0
 40
8.0
 10
34.92919460359534
 20
130.3302424304453
 30
0.0
 10
33.52899041160229
 20
130.3285371848326
 30
0.0
 10
32.42824270084468
 20
128.9548956591708
 30
0.0
 10
32.42992298249613
 20
127.575189770117
 30
0.0
 10
32.42992298249613
 20
127.575189770117
 30
0.0
 10
32.48708077421691
 20
80.6420212922446
 30
0.0
 10
32.48708077421691
 20
80.6420212922446
 30
0.0
 10
32.48876235388947
 20
79.26124957756241
 30
0.0
 10
33.59241651726368
 20
78.24835680525185
 30
0.0
 10
34.99262070925673
 20
78.25006205086326
 30
0.0
 10
34.99262070925673
 20
78.25006205086326
 30
0.0
 10
103.5499683070388
 20
78.33496529325376
 30
0.0
 10
103.5499683070388
 20
78.33496529325376
 30
0.0
 10
104.9501617331143
 20
78.33667052575399
 30
0.0
 10
106.3681342918283
 20
79.35122393664874
 30
0.0
 10
106.3664527121557
 20
80.73199565132965
 30
0.0
 10
106.3664527121557
 20
80.73199565132965
 30
0.0
 10
106.3092949204356
 20
127.6651641292014
 30
0.0
 10
106.3092949204356
 20
127.6651641292014
 30
0.0
 10
106.3076146387835
 20
129.044870018259
 30
0.0
 10
104.8867373450361
 20
130.415440570419
 30
0.0
 10
103.4865439189606
 20
130.4137353379162
 30
0.0
 10
103.4865439189606
 20
130.4137353379162
 30
0.0
 10
34.92919460359534
 20
130.3302424304453
 30
0.0
 10
34.92919460359534
 20
130.3302424304453
 30
0.0
  0
POLYLINE
  5
8A
330
1F
100
AcDbEntity
  8
LAYER_1
 62
     5
100
AcDb2dPolyline
 66
     1
 10
0.0
 20
0.0
 30
0.0
  0
VERTEX
  5
8B
330
8A
100
AcDbEntity
  8
LAYER_1
 62
     5
100
AcDbVertex
100
AcDb2dVertex
 10
38.86893639668447
 20
84.04110718891435
 30
0.0
  0
VERTEX
  5
8C
330
8A
100
AcDbEntity
  8
LAYER_1
 62
     5
100
AcDbVertex
100
AcDb2dVertex
 10
38.81960234696527
 20
124.5500771379405
 30
0.0
  0
VERTEX
  5
8D
330
8A
100
AcDbEntity
  8
LAYER_1
 62
     5
100
AcDbVertex
100
AcDb2dVertex
 10
99.92736883691471
 20
124.6244975340659
 30
0.0
  0
VERTEX
  5
8E
330
8A
100
AcDbEntity
  8
LAYER_1
 62
     5
100
AcDbVertex
100
AcDb2dVertex
 10
99.97670288663392
 20
84.1155275850397
 30
0.0
  0
VERTEX
  5
8F
330
8A
100
AcDbEntity
  8
LAYER_1
 62
     5
100
AcDbVertex
100
AcDb2dVertex
 10
38.86893639668447
 20
84.04110718891435
 30
0.0
  0
SEQEND
  5
90
330
8A
100
AcDbEntity
  8
LAYER_1
 62
     5
  0
SPLINE
  5
91
330
1F
100
AcDbEntity
  8
LAYER_1
 62
     3
100
AcDbSpline
210
0.0
220
0.0
230
1.0
 70
    11
 71
     3
 72
    29
 73
    25
 74
     0
 42
0.0000000001
 43
0.0000000001
 12
1.0
 22
0.0
 32
0.0
 13
1.0
 23
0.0
 33
0.0
 40
0.0
 40
0.0
 40
0.0
 40
0.0
 40
1.0
 40
1.0
 40
1.0
 40
2.0
 40
2.0
 40
2.0
 40
3.0
 40
3.0
 40
3.0
 40
4.0
 40
4.0
 40
4.0
 40
5.0
 40
5.0
 40
5.0
 40
6.0
 40
6.0
 40
6.0
 40
7.0
 40
7.0
 40
7.0
 40
8.0
 40
8.0
 40
8.0
 40
8.0
 10
114.237194252716
 20
355.8012858486332
 30
0.0
 10
112.836990060723
 20
355.7995806030211
 30
0.0
 10
111.7362423499654
 20
354.4259390773593
 30
0.0
 10
111.7379226316168
 20
353.0462331883052
 30
0.0
 10
111.7379226316168
 20
353.0462331883052
 30
0.0
 10
111.7950804233376
 20
306.1130647104325
 30
0.0
 10
111.7950804233376
 20
306.1130647104325
 30
0.0
 10
111.7967620030102
 20
304.7322929957503
 30
0.0
 10
112.9004161663844
 20
303.7194002234404
 30
0.0
 10
114.3006203583774
 20
303.7211054690518
 30
0.0
 10
114.3006203583774
 20
303.7211054690518
 30
0.0
 10
182.8579679561599
 20
303.8060087114423
 30
0.0
 10
182.8579679561599
 20
303.8060087114423
 30
0.0
 10
184.2581613822353
 20
303.8077139439425
 30
0.0
 10
185.6761339409487
 20
304.8222673548366
 30
0.0
 10
185.6744523612761
 20
306.2030390695182
 30
0.0
 10
185.6744523612761
 20
306.2030390695182
 30
0.0
 10
185.617294569556
 20
353.1362075473899
 30
0.0
 10
185.617294569556
 20
353.1362075473899
 30
0.0
 10
185.6156142879045
 20
354.5159134364472
 30
0.0
 10
184.1947369941571
 20
355.8864839886072
 30
0.0
 10
182.7945435680817
 20
355.8847787561048
 30
0.0
 10
182.7945435680817
 20
355.8847787561048
 30
0.0
 10
114.237194252716
 20
355.8012858486332
 30
0.0
 10
114.237194252716
 20
355.8012858486332
 30
0.0
  0
POLYLINE
  5
92
330
1F
100
AcDbEntity
  8
LAYER_1
 62
     5
100
AcDb2dPolyline
 66
     1
 10
0.0
 20
0.0
 30
0.0
  0
VERTEX
  5
93
330
92
100
AcDbEntity
  8
LAYER_1
 62
     5
100
AcDbVertex
100
AcDb2dVertex
 10
118.1769360458052
 20
309.5121506071023
 30
0.0
  0
VERTEX
  5
94
330
92
100
AcDbEntity
  8
LAYER_1
 62
     5
100
AcDbVertex
100
AcDb2dVertex
 10
118.127601996086
 20
350.0211205561284
 30
0.0
  0
VERTEX
  5
95
330
92
100
AcDbEntity
  8
LAYER_1
 62
     5
100
AcDbVertex
100
AcDb2dVertex
 10
179.2353684860357
 20
350.0955409522538
 30
0.0
  0
VERTEX
  5
96
330
92
100
AcDbEntity
  8
LAYER_1
 62
     5
100
AcDbVertex
100
AcDb2dVertex
 10
179.2847025357549
 20
309.5865710032282
 30
0.0
  0
VERTEX
  5
97
330
92
100
AcDbEntity
  8
LAYER_1
 62
     5
100
AcDbVertex
100
AcDb2dVertex
 10
118.1769360458052
 20
309.5121506071023
 30
0.0
  0
SEQEND
  5
98
330
92
100
AcDbEntity
  8
LAYER_1
 62
     5
  0
SPLINE
  5
99
330
1F
100
AcDbEntity
  8
LAYER_1
 62
     3
100
AcDbSpline
210
0.0
220
0.0
230
1.0
 70
    11
 71
     3
 72
    29
 73
    25
 74
     0
 42
0.0000000001
 43
0.0000000001
 12
1.0
 22
0.0
 32
0.0
 13
1.0
 23
0.0
 33
0.0
 40
0.0
 40
0.0
 40
0.0
 40
0.0
 40
1.0
 40
1.0
 40
1.0
 40
2.0
 40
2.0
 40
2.0
 40
3.0
 40
3.0
 40
3.0
 40
4.0
 40
4.0
 40
4.0
 40
5.0
 40
5.0
 40
5.0
 40
6.0
 40
6.0
 40
6.0
 40
7.0
 40
7.0
 40
7.0
 40
8.0
 40
8.0
 40
8.0
 40
8.0
 10
114.2370892015652
 20
299.433750980904
 30
0.0
 10
112.8368850095722
 20
299.4320457352919
 30
0.0
 10
111.7361372988145
 20
298.0584042096301
 30
0.0
 10
111.737817580466
 20
296.678698320576
 30
0.0
 10
111.737817580466
 20
296.678698320576
 30
0.0
 10
111.7949753721868
 20
249.7455298427033
 30
0.0
 10
111.7949753721868
 20
249.7455298427033
 30
0.0
 10
111.7966569518593
 20
248.3647581280211
 30
0.0
 10
112.9003111152335
 20
247.3518653557112
 30
0.0
 10
114.3005153072266
 20
247.3535706013226
 30
0.0
 10
114.3005153072266
 20
247.3535706013226
 30
0.0
 10
182.857862905009
 20
247.4384738437131
 30
0.0
 10
182.857862905009
 20
247.4384738437131
 30
0.0
 10
184.2580563310844
 20
247.4401790762133
 30
0.0
 10
185.6760288897978
 20
248.4547324871074
 30
0.0
 10
185.6743473101253
 20
249.835504201789
 30
0.0
 10
185.6743473101253
 20
249.835504201789
 30
0.0
 10
185.6171895184051
 20
296.7686726796607
 30
0.0
 10
185.6171895184051
 20
296.7686726796607
 30
0.0
 10
185.6155092367537
 20
298.148378568718
 30
0.0
 10
184.1946319430063
 20
299.518949120878
 30
0.0
 10
182.7944385169308
 20
299.5172438883755
 30
0.0
 10
182.7944385169308
 20
299.5172438883755
 30
0.0
 10
114.2370892015652
 20
299.433750980904
 30
0.0
 10
114.2370892015652
 20
299.433750980904
 30
0.0
  0
POLYLINE
  5
9A
330
1F
100
AcDbEntity
  8
LAYER_1
 62
     5
100
AcDb2dPolyline
 66
     1
 10
0.0
 20
0.0
 30
0.0
  0
VERTEX
  5
9B
330
9A
100
AcDbEntity
  8
LAYER_1
 62
     5
100
AcDbVertex
100
AcDb2dVertex
 10
118.1768309946543
 20
253.1446157393731
 30
0.0
  0
VERTEX
  5
9C
330
9A
100
AcDbEntity
  8
LAYER_1
 62
     5
100
AcDbVertex
100
AcDb2dVertex
 10
118.1274969449351
 20
293.6535856883992
 30
0.0
  0
VERTEX
  5
9D
330
9A
100
AcDbEntity
  8
LAYER_1
 62
     5
100
AcDbVertex
100
AcDb2dVertex
 10
179.2352634348849
 20
293.7280060845246
 30
0.0
  0
VERTEX
  5
9E
330
9A
100
AcDbEntity
  8
LAYER_1
 62
     5
100
AcDbVertex
100
AcDb2dVertex
 10
179.2845974846041
 20
253.219036135499
 30
0.0
  0
VERTEX
  5
9F
330
9A
100
AcDbEntity
  8
LAYER_1
 62
     5
100
AcDbVertex
100
AcDb2dVertex
 10
118.1768309946543
 20
253.1446157393731
 30
0.0
  0
SEQEND
  5
A0
330
9A
100
AcDbEntity
  8
LAYER_1
 62
     5
  0
SPLINE
  5
A1
330
1F
100
AcDbEntity
  8
LAYER_1
 62
     3
100
AcDbSpline
210
0.0
220
0.0
230
1.0
 70
    11
 71
     3
 72
    29
 73
    25
 74
     0
 42
0.0000000001
 43
0.0000000001
 12
1.0
 22
0.0
 32
0.0
 13
1.0
 23
0.0
 33
0.0
 40
0.0
 40
0.0
 40
0.0
 40
0.0
 40
1.0
 40
1.0
 40
1.0
 40
2.0
 40
2.0
 40
2.0
 40
3.0
 40
3.0
 40
3.0
 40
4.0
 40
4.0
 40
4.0
 40
5.0
 40
5.0
 40
5.0
 40
6.0
 40
6.0
 40
6.0
 40
7.0
 40
7.0
 40
7.0
 40
8.0
 40
8.0
 40
8.0
 40
8.0
 10
114.2372467782915
 20
243.0662161131747
 30
0.0
 10
112.8370425862984
 20
243.0645108675627
 30
0.0
 10
111.7362948755408
 20
241.6908693419009
 30
0.0
 10
111.7379751571923
 20
240.3111634528467
 30
0.0
 10
111.7379751571923
 20
240.3111634528467
 30
0.0
 10
111.795132948913
 20
193.3779949749744
 30
0.0
 10
111.795132948913
 20
193.3779949749744
 30
0.0
 10
111.7968145285856
 20
191.9972232602922
 30
0.0
 10
112.9004686919598
 20
190.9843304879816
 30
0.0
 10
114.3006728839528
 20
190.986035733593
 30
0.0
 10
114.3006728839528
 20
190.986035733593
 30
0.0
 10
182.8580204817353
 20
191.0709389759836
 30
0.0
 10
182.8580204817353
 20
191.0709389759836
 30
0.0
 10
184.2582139078107
 20
191.0726442084838
 30
0.0
 10
185.6761864665241
 20
192.0871976193785
 30
0.0
 10
185.6745048868515
 20
193.4679693340594
 30
0.0
 10
185.6745048868515
 20
193.4679693340594
 30
0.0
 10
185.6173470951314
 20
240.4011378119315
 30
0.0
 10
185.6173470951314
 20
240.4011378119315
 30
0.0
 10
185.6156668134799
 20
241.7808437009888
 30
0.0
 10
184.1947895197325
 20
243.1514142531488
 30
0.0
 10
182.7945960936571
 20
243.1497090206463
 30
0.0
 10
182.7945960936571
 20
243.1497090206463
 30
0.0
 10
114.2372467782915
 20
243.0662161131747
 30
0.0
 10
114.2372467782915
 20
243.0662161131747
 30
0.0
  0
POLYLINE
  5
A2
330
1F
100
AcDbEntity
  8
LAYER_1
 62
     5
100
AcDb2dPolyline
 66
     1
 10
0.0
 20
0.0
 30
0.0
  0
VERTEX
  5
A3
330
A2
100
AcDbEntity
  8
LAYER_1
 62
     5
100
AcDbVertex
100
AcDb2dVertex
 10
118.1769885713806
 20
196.7770808716441
 30
0.0
  0
VERTEX
  5
A4
330
A2
100
AcDbEntity
  8
LAYER_1
 62
     5
100
AcDbVertex
100
AcDb2dVertex
 10
118.1276545216614
 20
237.28605082067
 30
0.0
  0
VERTEX
  5
A5
330
A2
100
AcDbEntity
  8
LAYER_1
 62
     5
100
AcDbVertex
100
AcDb2dVertex
 10
179.2354210116112
 20
237.3604712167954
 30
0.0
  0
VERTEX
  5
A6
330
A2
100
AcDbEntity
  8
LAYER_1
 62
     5
100
AcDbVertex
100
AcDb2dVertex
 10
179.2847550613303
 20
196.8515012677695
 30
0.0
  0
VERTEX
  5
A7
330
A2
100
AcDbEntity
  8
LAYER_1
 62
     5
100
AcDbVertex
100
AcDb2dVertex
 10
118.1769885713806
 20
196.7770808716441
 30
0.0
  0
SEQEND
  5
A8
330
A2
100
AcDbEntity
  8
LAYER_1
 62
     5
  0
SPLINE
  5
A9
330
1F
100
AcDbEntity
  8
LAYER_1
 62
     3
100
AcDbSpline
210
0.0
220
0.0
230
1.0
 70
    11
 71
     3
 72
    29
 73
    25
 74
     0
 42
0.0000000001
 43
0.0000000001
 12
1.0
 22
0.0
 32
0.0
 13
1.0
 23
0.0
 33
0.0
 40
0.0
 40
0.0
 40
0.0
 40
0.0
 40
1.0
 40
1.0
 40
1.0
 40
2.0
 40
2.0
 40
2.0
 40
3.0
 40
3.0
 40
3.0
 40
4.0
 40
4.0
 40
4.0
 40
5.0
 40
5.0
 40
5.0
 40
6.0
 40
6.0
 40
6.0
 40
7.0
 40
7.0
 40
7.0
 40
8.0
 40
8.0
 40
8.0
 40
8.0
 10
114.2371417271406
 20
186.6986812454462
 30
0.0
 10
112.8369375351476
 20
186.6969759998335
 30
0.0
 10
111.73618982439
 20
185.3233344741716
 30
0.0
 10
111.7378701060414
 20
183.9436285851172
 30
0.0
 10
111.7378701060414
 20
183.9436285851172
 30
0.0
 10
111.7950278977622
 20
137.0104601072455
 30
0.0
 10
111.7950278977622
 20
137.0104601072455
 30
0.0
 10
111.7967094774347
 20
135.6296883925633
 30
0.0
 10
112.900363640809
 20
134.6167956202527
 30
0.0
 10
114.300567832802
 20
134.6185008658641
 30
0.0
 10
114.300567832802
 20
134.6185008658641
 30
0.0
 10
182.8579154305844
 20
134.7034041082546
 30
0.0
 10
182.8579154305844
 20
134.7034041082546
 30
0.0
 10
184.2581088566599
 20
134.7051093407549
 30
0.0
 10
185.6760814153732
 20
135.7196627516496
 30
0.0
 10
185.6743998357007
 20
137.1004344663305
 30
0.0
 10
185.6743998357007
 20
137.1004344663305
 30
0.0
 10
185.6172420439806
 20
184.0336029442022
 30
0.0
 10
185.6172420439806
 20
184.0336029442022
 30
0.0
 10
185.6155617623291
 20
185.4133088332593
 30
0.0
 10
184.1946844685817
 20
186.7838793854199
 30
0.0
 10
182.7944910425063
 20
186.7821741529171
 30
0.0
 10
182.7944910425063
 20
186.7821741529171
 30
0.0
 10
114.2371417271406
 20
186.6986812454462
 30
0.0
 10
114.2371417271406
 20
186.6986812454462
 30
0.0
  0
POLYLINE
  5
AA
330
1F
100
AcDbEntity
  8
LAYER_1
 62
     5
100
AcDb2dPolyline
 66
     1
 10
0.0
 20
0.0
 30
0.0
  0
VERTEX
  5
AB
330
AA
100
AcDbEntity
  8
LAYER_1
 62
     5
100
AcDbVertex
100
AcDb2dVertex
 10
118.1768835202298
 20
140.4095460039152
 30
0.0
  0
VERTEX
  5
AC
330
AA
100
AcDbEntity
  8
LAYER_1
 62
     5
100
AcDbVertex
100
AcDb2dVertex
 10
118.1275494705105
 20
180.9185159529414
 30
0.0
  0
VERTEX
  5
AD
330
AA
100
AcDbEntity
  8
LAYER_1
 62
     5
100
AcDbVertex
100
AcDb2dVertex
 10
179.2353159604603
 20
180.9929363490668
 30
0.0
  0
VERTEX
  5
AE
330
AA
100
AcDbEntity
  8
LAYER_1
 62
     5
100
AcDbVertex
100
AcDb2dVertex
 10
179.2846500101795
 20
140.4839664000406
 30
0.0
  0
VERTEX
  5
AF
330
AA
100
AcDbEntity
  8
LAYER_1
 62
     5
100
AcDbVertex
100
AcDb2dVertex
 10
118.1768835202298
 20
140.4095460039152
 30
0.0
  0
SEQEND
  5
B0
330
AA
100
AcDbEntity
  8
LAYER_1
 62
     5
  0
SPLINE
  5
B1
330
1F
100
AcDbEntity
  8
LAYER_1
 62
     3
100
AcDbSpline
210
0.0
220
0.0
230
1.0
 70
    11
 71
     3
 72
    29
 73
    25
 74
     0
 42
0.0000000001
 43
0.0000000001
 12
1.0
 22
0.0
 32
0.0
 13
1.0
 23
0.0
 33
0.0
 40
0.0
 40
0.0
 40
0.0
 40
0.0
 40
1.0
 40
1.0
 40
1.0
 40
2.0
 40
2.0
 40
2.0
 40
3.0
 40
3.0
 40
3.0
 40
4.0
 40
4.0
 40
4.0
 40
5.0
 40
5.0
 40
5.0
 40
6.0
 40
6.0
 40
6.0
 40
7.0
 40
7.0
 40
7.0
 40
8.0
 40
8.0
 40
8.0
 40
8.0
 10
114.2372467782911
 20
130.3311463777173
 30
0.0
 10
112.8370425862981
 20
130.3294411321045
 30
0.0
 10
111.7362948755405
 20
128.9557996064428
 30
0.0
 10
111.7379751571919
 20
127.5760937173883
 30
0.0
 10
111.7379751571919
 20
127.5760937173883
 30
0.0
 10
111.7951329489127
 20
80.64292523951657
 30
0.0
 10
111.7951329489127
 20
80.64292523951657
 30
0.0
 10
111.7968145285853
 20
79.26215352483437
 30
0.0
 10
112.9004686919595
 20
78.24926075252382
 30
0.0
 10
114.3006728839525
 20
78.25096599813524
 30
0.0
 10
114.3006728839525
 20
78.25096599813524
 30
0.0
 10
182.8580204817346
 20
78.33586924052574
 30
0.0
 10
182.8580204817346
 20
78.33586924052574
 30
0.0
 10
184.2582139078101
 20
78.33757447302597
 30
0.0
 10
185.6761864665241
 20
79.35212788392072
 30
0.0
 10
185.6745048868515
 20
80.73289959860162
 30
0.0
 10
185.6745048868515
 20
80.73289959860162
 30
0.0
 10
185.6173470951314
 20
127.6660680764733
 30
0.0
 10
185.6173470951314
 20
127.6660680764733
 30
0.0
 10
185.6156668134793
 20
129.0457739655303
 30
0.0
 10
184.1947895197319
 20
130.416344517691
 30
0.0
 10
182.7945960936565
 20
130.4146392851881
 30
0.0
 10
182.7945960936565
 20
130.4146392851881
 30
0.0
 10
114.2372467782911
 20
130.3311463777173
 30
0.0
 10
114.2372467782911
 20
130.3311463777173
 30
0.0
  0
POLYLINE
  5
B2
330
1F
100
AcDbEntity
  8
LAYER_1
 62
     5
100
AcDb2dPolyline
 66
     1
 10
0.0
 20
0.0
 30
0.0
  0
VERTEX
  5
B3
330
B2
100
AcDbEntity
  8
LAYER_1
 62
     5
100
AcDbVertex
100
AcDb2dVertex
 10
118.1769885713803
 20
84.04201113618633
 30
0.0
  0
VERTEX
  5
B4
330
B2
100
AcDbEntity
  8
LAYER_1
 62
     5
100
AcDbVertex
100
AcDb2dVertex
 10
118.1276545216611
 20
124.5509810852125
 30
0.0
  0
VERTEX
  5
B5
330
B2
100
AcDbEntity
  8
LAYER_1
 62
     5
100
AcDbVertex
100
AcDb2dVertex
 10
179.2354210116105
 20
124.6254014813379
 30
0.0
  0
VERTEX
  5
B6
330
B2
100
AcDbEntity
  8
LAYER_1
 62
     5
100
AcDbVertex
100
AcDb2dVertex
 10
179.2847550613297
 20
84.11643153231168
 30
0.0
  0
VERTEX
  5
B7
330
B2
100
AcDbEntity
  8
LAYER_1
 62
     5
100
AcDbVertex
100
AcDb2dVertex
 10
118.1769885713803
 20
84.04201113618633
 30
0.0
  0
SEQEND
  5
B8
330
B2
100
AcDbEntity
  8
LAYER_1
 62
     5
  0
SPLINE
  5
B9
330
1F
100
AcDbEntity
  8
LAYER_1
 62
     3
100
AcDbSpline
210
0.0
220
0.0
230
1.0
 70
    11
 71
     3
 72
    29
 73
    25
 74
     0
 42
0.0000000001
 43
0.0000000001
 12
1.0
 22
0.0
 32
0.0
 13
1.0
 23
0.0
 33
0.0
 40
0.0
 40
0.0
 40
0.0
 40
0.0
 40
1.0
 40
1.0
 40
1.0
 40
2.0
 40
2.0
 40
2.0
 40
3.0
 40
3.0
 40
3.0
 40
4.0
 40
4.0
 40
4.0
 40
5.0
 40
5.0
 40
5.0
 40
6.0
 40
6.0
 40
6.0
 40
7.0
 40
7.0
 40
7.0
 40
8.0
 40
8.0
 40
8.0
 40
8.0
 10
193.5454040041381
 20
355.7994779540892
 30
0.0
 10
192.1451998121444
 20
355.7977727084772
 30
0.0
 10
191.0444521013874
 20
354.4241311828154
 30
0.0
 10
191.0461323830389
 20
353.0444252937613
 30
0.0
 10
191.0461323830389
 20
353.0444252937613
 30
0.0
 10
191.103290174759
 20
306.1112568158886
 30
0.0
 10
191.103290174759
 20
306.1112568158886
 30
0.0
 10
191.1049717544316
 20
304.7304851012064
 30
0.0
 10
192.2086259178058
 20
303.7175923288964
 30
0.0
 10
193.6088301097995
 20
303.7192975745079
 30
0.0
 10
193.6088301097995
 20
303.7192975745079
 30
0.0
 10
262.1661777075816
 20
303.8042008168984
 30
0.0
 10
262.1661777075816
 20
303.8042008168984
 30
0.0
 10
263.566371133657
 20
303.8059060493986
 30
0.0
 10
264.9843436923704
 20
304.8204594602927
 30
0.0
 10
264.9826621126978
 20
306.2012311749743
 30
0.0
 10
264.9826621126978
 20
306.2012311749743
 30
0.0
 10
264.9255043209777
 20
353.134399652846
 30
0.0
 10
264.9255043209777
 20
353.134399652846
 30
0.0
 10
264.9238240393262
 20
354.5141055419033
 30
0.0
 10
263.5029467455788
 20
355.8846760940633
 30
0.0
 10
262.1027533195034
 20
355.8829708615608
 30
0.0
 10
262.1027533195034
 20
355.8829708615608
 30
0.0
 10
193.5454040041381
 20
355.7994779540892
 30
0.0
 10
193.5454040041381
 20
355.7994779540892
 30
0.0
  0
POLYLINE
  5
BA
330
1F
100
AcDbEntity
  8
LAYER_1
 62
     5
100
AcDb2dPolyline
 66
     1
 10
0.0
 20
0.0
 30
0.0
  0
VERTEX
  5
BB
330
BA
100
AcDbEntity
  8
LAYER_1
 62
     5
100
AcDbVertex
100
AcDb2dVertex
 10
197.4851457972272
 20
309.5103427125583
 30
0.0
  0
VERTEX
  5
BC
330
BA
100
AcDbEntity
  8
LAYER_1
 62
     5
100
AcDbVertex
100
AcDb2dVertex
 10
197.435811747508
 20
350.0193126615845
 30
0.0
  0
VERTEX
  5
BD
330
BA
100
AcDbEntity
  8
LAYER_1
 62
     5
100
AcDbVertex
100
AcDb2dVertex
 10
258.5435782374575
 20
350.0937330577099
 30
0.0
  0
VERTEX
  5
BE
330
BA
100
AcDbEntity
  8
LAYER_1
 62
     5
100
AcDbVertex
100
AcDb2dVertex
 10
258.5929122871767
 20
309.5847631086843
 30
0.0
  0
VERTEX
  5
BF
330
BA
100
AcDbEntity
  8
LAYER_1
 62
     5
100
AcDbVertex
100
AcDb2dVertex
 10
197.4851457972272
 20
309.5103427125583
 30
0.0
  0
SEQEND
  5
C0
330
BA
100
AcDbEntity
  8
LAYER_1
 62
     5
  0
SPLINE
  5
C1
330
1F
100
AcDbEntity
  8
LAYER_1
 62
     3
100
AcDbSpline
210
0.0
220
0.0
230
1.0
 70
    11
 71
     3
 72
    29
 73
    25
 74
     0
 42
0.0000000001
 43
0.0000000001
 12
1.0
 22
0.0
 32
0.0
 13
1.0
 23
0.0
 33
0.0
 40
0.0
 40
0.0
 40
0.0
 40
0.0
 40
1.0
 40
1.0
 40
1.0
 40
2.0
 40
2.0
 40
2.0
 40
3.0
 40
3.0
 40
3.0
 40
4.0
 40
4.0
 40
4.0
 40
5.0
 40
5.0
 40
5.0
 40
6.0
 40
6.0
 40
6.0
 40
7.0
 40
7.0
 40
7.0
 40
8.0
 40
8.0
 40
8.0
 40
8.0
 10
193.5452989529873
 20
299.43194308636
 30
0.0
 10
192.1450947609936
 20
299.430237840748
 30
0.0
 10
191.0443470502366
 20
298.0565963150862
 30
0.0
 10
191.046027331888
 20
296.676890426032
 30
0.0
 10
191.046027331888
 20
296.676890426032
 30
0.0
 10
191.1031851236082
 20
249.7437219481594
 30
0.0
 10
191.1031851236082
 20
249.7437219481594
 30
0.0
 10
191.1048667032807
 20
248.3629502334772
 30
0.0
 10
192.208520866655
 20
247.3500574611672
 30
0.0
 10
193.6087250586486
 20
247.3517627067787
 30
0.0
 10
193.6087250586486
 20
247.3517627067787
 30
0.0
 10
262.1660726564307
 20
247.4366659491691
 30
0.0
 10
262.1660726564307
 20
247.4366659491691
 30
0.0
 10
263.5662660825062
 20
247.4383711816694
 30
0.0
 10
264.9842386412196
 20
248.4529245925635
 30
0.0
 10
264.982557061547
 20
249.833696307245
 30
0.0
 10
264.982557061547
 20
249.833696307245
 30
0.0
 10
264.9253992698269
 20
296.7668647851168
 30
0.0
 10
264.9253992698269
 20
296.7668647851168
 30
0.0
 10
264.9237189881754
 20
298.1465706741741
 30
0.0
 10
263.502841694428
 20
299.517141226334
 30
0.0
 10
262.1026482683526
 20
299.5154359938315
 30
0.0
 10
262.1026482683526
 20
299.5154359938315
 30
0.0
 10
193.5452989529873
 20
299.43194308636
 30
0.0
 10
193.5452989529873
 20
299.43194308636
 30
0.0
  0
POLYLINE
  5
C2
330
1F
100
AcDbEntity
  8
LAYER_1
 62
     5
100
AcDb2dPolyline
 66
     1
 10
0.0
 20
0.0
 30
0.0
  0
VERTEX
  5
C3
330
C2
100
AcDbEntity
  8
LAYER_1
 62
     5
100
AcDbVertex
100
AcDb2dVertex
 10
197.4850407460764
 20
253.1428078448291
 30
0.0
  0
VERTEX
  5
C4
330
C2
100
AcDbEntity
  8
LAYER_1
 62
     5
100
AcDbVertex
100
AcDb2dVertex
 10
197.4357066963572
 20
293.6517777938553
 30
0.0
  0
VERTEX
  5
C5
330
C2
100
AcDbEntity
  8
LAYER_1
 62
     5
100
AcDbVertex
100
AcDb2dVertex
 10
258.5434731863066
 20
293.7261981899807
 30
0.0
  0
VERTEX
  5
C6
330
C2
100
AcDbEntity
  8
LAYER_1
 62
     5
100
AcDbVertex
100
AcDb2dVertex
 10
258.5928072360258
 20
253.2172282409551
 30
0.0
  0
VERTEX
  5
C7
330
C2
100
AcDbEntity
  8
LAYER_1
 62
     5
100
AcDbVertex
100
AcDb2dVertex
 10
197.4850407460764
 20
253.1428078448291
 30
0.0
  0
SEQEND
  5
C8
330
C2
100
AcDbEntity
  8
LAYER_1
 62
     5
  0
SPLINE
  5
C9
330
1F
100
AcDbEntity
  8
LAYER_1
 62
     3
100
AcDbSpline
210
0.0
220
0.0
230
1.0
 70
    11
 71
     3
 72
    29
 73
    25
 74
     0
 42
0.0000000001
 43
0.0000000001
 12
1.0
 22
0.0
 32
0.0
 13
1.0
 23
0.0
 33
0.0
 40
0.0
 40
0.0
 40
0.0
 40
0.0
 40
1.0
 40
1.0
 40
1.0
 40
2.0
 40
2.0
 40
2.0
 40
3.0
 40
3.0
 40
3.0
 40
4.0
 40
4.0
 40
4.0
 40
5.0
 40
5.0
 40
5.0
 40
6.0
 40
6.0
 40
6.0
 40
7.0
 40
7.0
 40
7.0
 40
8.0
 40
8.0
 40
8.0
 40
8.0
 10
193.5454565297135
 20
243.0644082186308
 30
0.0
 10
192.1452523377198
 20
243.0627029730187
 30
0.0
 10
191.0445046269629
 20
241.6890614473569
 30
0.0
 10
191.0461849086143
 20
240.3093555583028
 30
0.0
 10
191.0461849086143
 20
240.3093555583028
 30
0.0
 10
191.1033427003345
 20
193.3761870804304
 30
0.0
 10
191.1033427003345
 20
193.3761870804304
 30
0.0
 10
191.105024280007
 20
191.9954153657482
 30
0.0
 10
192.2086784433812
 20
190.9825225934377
 30
0.0
 10
193.6088826353749
 20
190.9842278390491
 30
0.0
 10
193.6088826353749
 20
190.9842278390491
 30
0.0
 10
262.166230233157
 20
191.0691310814396
 30
0.0
 10
262.166230233157
 20
191.0691310814396
 30
0.0
 10
263.5664236592324
 20
191.0708363139398
 30
0.0
 10
264.9843962179458
 20
192.0853897248346
 30
0.0
 10
264.9827146382733
 20
193.4661614395155
 30
0.0
 10
264.9827146382733
 20
193.4661614395155
 30
0.0
 10
264.9255568465531
 20
240.3993299173875
 30
0.0
 10
264.9255568465531
 20
240.3993299173875
 30
0.0
 10
264.9238765649017
 20
241.7790358064449
 30
0.0
 10
263.5029992711542
 20
243.1496063586048
 30
0.0
 10
262.1028058450788
 20
243.1479011261023
 30
0.0
 10
262.1028058450788
 20
243.1479011261023
 30
0.0
 10
193.5454565297135
 20
243.0644082186308
 30
0.0
 10
193.5454565297135
 20
243.0644082186308
 30
0.0
  0
POLYLINE
  5
CA
330
1F
100
AcDbEntity
  8
LAYER_1
 62
     5
100
AcDb2dPolyline
 66
     1
 10
0.0
 20
0.0
 30
0.0
  0
VERTEX
  5
CB
330
CA
100
AcDbEntity
  8
LAYER_1
 62
     5
100
AcDbVertex
100
AcDb2dVertex
 10
197.4851983228027
 20
196.7752729771002
 30
0.0
  0
VERTEX
  5
CC
330
CA
100
AcDbEntity
  8
LAYER_1
 62
     5
100
AcDbVertex
100
AcDb2dVertex
 10
197.4358642730834
 20
237.2842429261261
 30
0.0
  0
VERTEX
  5
CD
330
CA
100
AcDbEntity
  8
LAYER_1
 62
     5
100
AcDbVertex
100
AcDb2dVertex
 10
258.5436307630329
 20
237.3586633222514
 30
0.0
  0
VERTEX
  5
CE
330
CA
100
AcDbEntity
  8
LAYER_1
 62
     5
100
AcDbVertex
100
AcDb2dVertex
 10
258.5929648127521
 20
196.8496933732255
 30
0.0
  0
VERTEX
  5
CF
330
CA
100
AcDbEntity
  8
LAYER_1
 62
     5
100
AcDbVertex
100
AcDb2dVertex
 10
197.4851983228027
 20
196.7752729771002
 30
0.0
  0
SEQEND
  5
D0
330
CA
100
AcDbEntity
  8
LAYER_1
 62
     5
  0
SPLINE
  5
D1
330
1F
100
AcDbEntity
  8
LAYER_1
 62
     3
100
AcDbSpline
210
0.0
220
0.0
230
1.0
 70
    11
 71
     3
 72
    29
 73
    25
 74
     0
 42
0.0000000001
 43
0.0000000001
 12
1.0
 22
0.0
 32
0.0
 13
1.0
 23
0.0
 33
0.0
 40
0.0
 40
0.0
 40
0.0
 40
0.0
 40
1.0
 40
1.0
 40
1.0
 40
2.0
 40
2.0
 40
2.0
 40
3.0
 40
3.0
 40
3.0
 40
4.0
 40
4.0
 40
4.0
 40
5.0
 40
5.0
 40
5.0
 40
6.0
 40
6.0
 40
6.0
 40
7.0
 40
7.0
 40
7.0
 40
8.0
 40
8.0
 40
8.0
 40
8.0
 10
193.5453514785627
 20
186.6968733509022
 30
0.0
 10
192.145147286569
 20
186.6951681052895
 30
0.0
 10
191.044399575812
 20
185.3215265796277
 30
0.0
 10
191.0460798574635
 20
183.9418206905733
 30
0.0
 10
191.0460798574635
 20
183.9418206905733
 30
0.0
 10
191.1032376491836
 20
137.0086522127015
 30
0.0
 10
191.1032376491836
 20
137.0086522127015
 30
0.0
 10
191.1049192288562
 20
135.6278804980194
 30
0.0
 10
192.2085733922304
 20
134.6149877257088
 30
0.0
 10
193.6087775842241
 20
134.6166929713202
 30
0.0
 10
193.6087775842241
 20
134.6166929713202
 30
0.0
 10
262.1661251820062
 20
134.7015962137107
 30
0.0
 10
262.1661251820062
 20
134.7015962137107
 30
0.0
 10
263.5663186080816
 20
134.7033014462109
 30
0.0
 10
264.984291166795
 20
135.7178548571057
 30
0.0
 10
264.9826095871224
 20
137.0986265717866
 30
0.0
 10
264.9826095871224
 20
137.0986265717866
 30
0.0
 10
264.9254517954023
 20
184.0317950496583
 30
0.0
 10
264.9254517954023
 20
184.0317950496583
 30
0.0
 10
264.9237715137508
 20
185.4115009387153
 30
0.0
 10
263.5028942200034
 20
186.7820714908759
 30
0.0
 10
262.102700793928
 20
186.7803662583731
 30
0.0
 10
262.102700793928
 20
186.7803662583731
 30
0.0
 10
193.5453514785627
 20
186.6968733509022
 30
0.0
 10
193.5453514785627
 20
186.6968733509022
 30
0.0
  0
POLYLINE
  5
D2
330
1F
100
AcDbEntity
  8
LAYER_1
 62
     5
100
AcDb2dPolyline
 66
     1
 10
0.0
 20
0.0
 30
0.0
  0
VERTEX
  5
D3
330
D2
100
AcDbEntity
  8
LAYER_1
 62
     5
100
AcDbVertex
100
AcDb2dVertex
 10
197.4850932716518
 20
140.4077381093713
 30
0.0
  0
VERTEX
  5
D4
330
D2
100
AcDbEntity
  8
LAYER_1
 62
     5
100
AcDbVertex
100
AcDb2dVertex
 10
197.4357592219326
 20
180.9167080583975
 30
0.0
  0
VERTEX
  5
D5
330
D2
100
AcDbEntity
  8
LAYER_1
 62
     5
100
AcDbVertex
100
AcDb2dVertex
 10
258.5435257118821
 20
180.9911284545228
 30
0.0
  0
VERTEX
  5
D6
330
D2
100
AcDbEntity
  8
LAYER_1
 62
     5
100
AcDbVertex
100
AcDb2dVertex
 10
258.5928597616012
 20
140.4821585054966
 30
0.0
  0
VERTEX
  5
D7
330
D2
100
AcDbEntity
  8
LAYER_1
 62
     5
100
AcDbVertex
100
AcDb2dVertex
 10
197.4850932716518
 20
140.4077381093713
 30
0.0
  0
SEQEND
  5
D8
330
D2
100
AcDbEntity
  8
LAYER_1
 62
     5
  0
SPLINE
  5
D9
330
1F
100
AcDbEntity
  8
LAYER_1
 62
     3
100
AcDbSpline
210
0.0
220
0.0
230
1.0
 70
    11
 71
     3
 72
    29
 73
    25
 74
     0
 42
0.0000000001
 43
0.0000000001
 12
1.0
 22
0.0
 32
0.0
 13
1.0
 23
0.0
 33
0.0
 40
0.0
 40
0.0
 40
0.0
 40
0.0
 40
1.0
 40
1.0
 40
1.0
 40
2.0
 40
2.0
 40
2.0
 40
3.0
 40
3.0
 40
3.0
 40
4.0
 40
4.0
 40
4.0
 40
5.0
 40
5.0
 40
5.0
 40
6.0
 40
6.0
 40
6.0
 40
7.0
 40
7.0
 40
7.0
 40
8.0
 40
8.0
 40
8.0
 40
8.0
 10
193.5454565297129
 20
130.3293384831733
 30
0.0
 10
192.1452523377198
 20
130.3276332375606
 30
0.0
 10
191.0445046269622
 20
128.9539917118988
 30
0.0
 10
191.0461849086137
 20
127.5742858228443
 30
0.0
 10
191.0461849086137
 20
127.5742858228443
 30
0.0
 10
191.1033427003345
 20
80.64111734497263
 30
0.0
 10
191.1033427003345
 20
80.64111734497263
 30
0.0
 10
191.105024280007
 20
79.26034563029044
 30
0.0
 10
192.2086784433812
 20
78.24745285797988
 30
0.0
 10
193.6088826353743
 20
78.2491581035913
 30
0.0
 10
193.6088826353743
 20
78.2491581035913
 30
0.0
 10
262.1662302331564
 20
78.3340613459818
 30
0.0
 10
262.1662302331564
 20
78.3340613459818
 30
0.0
 10
263.5664236592318
 20
78.33576657848202
 30
0.0
 10
264.9843962179458
 20
79.35031998937677
 30
0.0
 10
264.9827146382733
 20
80.73109170405768
 30
0.0
 10
264.9827146382733
 20
80.73109170405768
 30
0.0
 10
264.9255568465531
 20
127.6642601819294
 30
0.0
 10
264.9255568465531
 20
127.6642601819294
 30
0.0
 10
264.923876564901
 20
129.0439660709864
 30
0.0
 10
263.5029992711536
 20
130.414536623147
 30
0.0
 10
262.1028058450782
 20
130.4128313906442
 30
0.0
 10
262.1028058450782
 20
130.4128313906442
 30
0.0
 10
193.5454565297129
 20
130.3293384831733
 30
0.0
 10
193.5454565297129
 20
130.3293384831733
 30
0.0
  0
POLYLINE
  5
DA
330
1F
100
AcDbEntity
  8
LAYER_1
 62
     5
100
AcDb2dPolyline
 66
     1
 10
0.0
 20
0.0
 30
0.0
  0
VERTEX
  5
DB
330
DA
100
AcDbEntity
  8
LAYER_1
 62
     5
100
AcDbVertex
100
AcDb2dVertex
 10
197.485198322802
 20
84.04020324164239
 30
0.0
  0
VERTEX
  5
DC
330
DA
100
AcDbEntity
  8
LAYER_1
 62
     5
100
AcDbVertex
100
AcDb2dVertex
 10
197.4358642730828
 20
124.5491731906686
 30
0.0
  0
VERTEX
  5
DD
330
DA
100
AcDbEntity
  8
LAYER_1
 62
     5
100
AcDbVertex
100
AcDb2dVertex
 10
258.5436307630322
 20
124.6235935867939
 30
0.0
  0
VERTEX
  5
DE
330
DA
100
AcDbEntity
  8
LAYER_1
 62
     5
100
AcDbVertex
100
AcDb2dVertex
 10
258.5929648127515
 20
84.11462363776774
 30
0.0
  0
VERTEX
  5
DF
330
DA
100
AcDbEntity
  8
LAYER_1
 62
     5
100
AcDbVertex
100
AcDb2dVertex
 10
197.485198322802
 20
84.04020324164239
 30
0.0
  0
SEQEND
  5
E0
330
DA
100
AcDbEntity
  8
LAYER_1
 62
     5
  0
ENDSEC
  0
SECTION
  2
OBJECTS
  0
DICTIONARY
  5
C
330
0
100
AcDbDictionary
  3
ACAD_GROUP
350
D
  3
ACAD_LAYOUT
350
1A
  3
ACAD_MATERIAL
350
3B
  3
ACAD_MLEADERSTYLE
350
E3
  3
ACAD_MLINESTYLE
350
17
  3
ACAD_PLOTSETTINGS
350
19
  3
ACAD_VISUALSTYLE
350
2A
  3
ACDBVARIABLEDICTIONARY
350
E1
1001
ACAD
1000
TREAT_AS_HARD
1070
     0
  0
DICTIONARY
  5
D
102
{ACAD_REACTORS
330
C
102
}
330
C
100
AcDbDictionary
1001
ACAD
1000
TREAT_AS_HARD
1070
     0
  0
DICTIONARY
  5
1A
102
{ACAD_REACTORS
330
C
102
}
330
C
100
AcDbDictionary
1001
ACAD
1000
TREAT_AS_HARD
1070
     0
  0
DICTIONARY
  5
3B
102
{ACAD_REACTORS
330
C
102
}
330
C
100
AcDbDictionary
  3
BYBLOCK
350
3D
  3
BYLAYER
350
3C
  3
GLOBAL
350
3E
1001
ACAD
1000
TREAT_AS_HARD
1070
     0
  0
DICTIONARY
  5
E3
102
{ACAD_REACTORS
330
C
102
}
330
C
100
AcDbDictionary
1001
ACAD
1000
TREAT_AS_HARD
1070
     0
  0
DICTIONARY
  5
17
102
{ACAD_REACTORS
330
C
102
}
330
C
100
AcDbDictionary
  3
STANDARD
350
18
1001
ACAD
1000
TREAT_AS_HARD
1070
     0
  0
DICTIONARY
  5
19
102
{ACAD_REACTORS
330
C
102
}
330
C
100
AcDbDictionary
1001
ACAD
1000
TREAT_AS_HARD
1070
     0
  0
DICTIONARY
  5
2A
102
{ACAD_REACTORS
330
C
102
}
330
C
100
AcDbDictionary
  3
2DWIREFRAME
350
2F
  3
3DWIREFRAME
350
30
  3
3D_HIDDEN
350
31
  3
BASIC
350
32
  3
BRIGHTEN
350
36
  3
COLORCHANGE
350
3A
  3
CONCEPTUAL
350
34
  3
DIM
350
35
  3
FACEPATTERN
350
39
  3
FLAT
350
2B
  3
FLATWITHEDGES
350
2C
  3
GOURAUD
350
2D
  3
GOURAUDWITHEDGES
350
2E
  3
LINEPATTERN
350
38
  3
REALISTIC
350
33
  3
THICKEN
350
37
1001
ACAD
1000
TREAT_AS_HARD
1070
     0
  0
DICTIONARY
  5
E1
102
{ACAD_REACTORS
330
C
102
}
330
C
100
AcDbDictionary
  3
DIMASSOC
350
E4
  3
HIDETEXT
350
E5
1001
ACAD
1000
TREAT_AS_HARD
1070
     0
  0
MATERIAL
  5
3D
102
{ACAD_REACTORS
330
3B
102
}
102
{ACAD_XDICTIONARY
360
E8
102
}
330
3B
100
AcDbMaterial
  1
ByBlock
  0
MATERIAL
  5
3C
102
{ACAD_REACTORS
330
3B
102
}
102
{ACAD_XDICTIONARY
360
E6
102
}
330
3B
100
AcDbMaterial
  1
ByLayer
  0
MATERIAL
  5
3E
102
{ACAD_REACTORS
330
3B
102
}
102
{ACAD_XDICTIONARY
360
EA
102
}
330
3B
100
AcDbMaterial
  1
Global
  0
MLINESTYLE
  5
18
102
{ACAD_REACTORS
330
17
102
}
330
17
100
AcDbMlineStyle
  2
Standard
 70
     0
  3

 62
   256
 51
90.0
 52
90.0
 71
     2
 49
0.5
 62
   256
  6
BYLAYER
 49
-0.5
 62
   256
  6
BYLAYER
  0
ACAD_PROXY_OBJECT
  5
2F
102
{ACAD_REACTORS
330
2A
102
}
330
2A
100
AcDbZombieObject
 90
      499
 91
      501
 93
      436
310
42CC9915DA5C99599C985B595049028333333333333E3BF0000000000000FB0107901411070040501600405405064090741402480A0340
1001
ACAD
1000
AcDbSavedByObjectVersion
1070
     0
  0
ACAD_PROXY_OBJECT
  5
30
102
{ACAD_REACTORS
330
2A
102
}
330
2A
100
AcDbZombieObject
 90
      499
 91
      501
 93
      436
310
42CCD915DA5C99599C985B595059028333333333333E3BF0000000000000FB0107901411070040501600405405064090741402480A0340
1001
ACAD
1000
AcDbSavedByObjectVersion
1070
     0
  0
ACAD_PROXY_OBJECT
  5
31
102
{ACAD_REACTORS
330
2A
102
}
330
2A
100
AcDbZombieObject
 90
      499
 91
      501
 93
      500
310
424CD108121A5919195B90640502408333333333333E3BF0000000000000FB01079024090700405020000000000001110200405405064090740C02480A0340
1001
ACAD
1000
AcDbSavedByObjectVersion
1070
     0
  0
ACAD_PROXY_OBJECT
  5
32
102
{ACAD_REACTORS
330
2A
102
}
330
2A
100
AcDbZombieObject
 90
      499
 91
      501
 93
      388
310
4150985CDA58D07406404333333333333E3BF0000000000000FB0107A41107004050150841D405064090741402480A0350
1001
ACAD
1000
AcDbSavedByObjectVersion
1070
     0
  0
ACAD_PROXY_OBJECT
  5
36
102
{ACAD_REACTORS
330
2A
102
}
330
2A
100
AcDbZombieObject
 90
      499
 91
      501
 93
      428
310
42109C9A59DA1D195B90C409028333333333333E3BF0000000000000FB010790141107004050150841D405064090741402480A029950
1001
ACAD
1000
AcDbSavedByObjectVersion
1070
     0
  0
ACAD_PROXY_OBJECT
  5
3A
102
{ACAD_REACTORS
330
2A
102
}
330
2A
100
AcDbZombieObject
 90
      499
 91
      501
 93
      452
310
42D0DBDB1BDC90DA185B99D95104090240C333333333333E3BF0000000000000FB0108901411070040501508421405064090741402480A0350
1001
ACAD
1000
AcDbSavedByObjectVersion
1070
     0
  0
ACAD_PROXY_OBJECT
  5
34
102
{ACAD_REACTORS
330
2A
102
}
330
2A
100
AcDbZombieObject
 90
      499
 91
      501
 93
      500
310
4290DBDB98D95C1D1D585B10940D028333333333333E3BF0000000000000FB0107902409070040501000000000000111010841D405064090740C02480A0340
1001
ACAD
1000
AcDbSavedByObjectVersion
1070
     0
  0
ACAD_PROXY_OBJECT
  5
35
102
{ACAD_REACTORS
330
2A
102
}
330
2A
100
AcDbZombieObject
 90
      499
 91
      501
 93
      412
310
40D11A5B50B409028333333333333E3BF0000000000000FB010790141107004050150841D405064090741402480A02677FFFFFD0
1001
ACAD
1000
AcDbSavedByObjectVersion
1070
     0
  0
ACAD_PROXY_OBJECT
  5
39
102
{ACAD_REACTORS
330
2A
102
}
330
2A
100
AcDbZombieObject
 90
      499
 91
      501
 93
      444
310
42D19858D95C185D1D195C9B90F409028333333333333E3BF0000000000000FB010790141107004050150841D405064090741402480A0350
1001
ACAD
1000
AcDbSavedByObjectVersion
1070
     0
  0
ACAD_PROXY_OBJECT
  5
2B
102
{ACAD_REACTORS
330
2A
102
}
330
2A
100
AcDbZombieObject
 90
      499
 91
      501
 93
      388
310
41119B185D240901404333333333333E3BF0000000000000F9010740A41107004050150841D405064090741402480A1B50
1001
ACAD
1000
AcDbSavedByObjectVersion
1070
     0
  0
ACAD_PROXY_OBJECT
  5
2C
102
{ACAD_REACTORS
330
2A
102
}
330
2A
100
AcDbZombieObject
 90
      499
 91
      501
 93
      476
310
43519B185D15DA5D1A115919D95CD0140901404333333333333E3BF0000000000000F9010740901411070040501600405405064090741402480A1B50
1001
ACAD
1000
AcDbSavedByObjectVersion
1070
     0
  0
ACAD_PROXY_OBJECT
  5
2D
102
{ACAD_REACTORS
330
2A
102
}
330
2A
100
AcDbZombieObject
 90
      499
 91
      501
 93
      412
310
41D1DBDD5C985D5910240902404333333333333E3BF0000000000000F9010740A411070040501641D405064090741402480A1B50
1001
ACAD
1000
AcDbSavedByObjectVersion
1070
     0
  0
ACAD_PROXY_OBJECT
  5
2E
102
{ACAD_REACTORS
330
2A
102
}
330
2A
100
AcDbZombieObject
 90
      499
 91
      501
 93
      500
310
4411DBDD5C985D5915DA5D1A115919D95CD0340902404333333333333E3BF0000000000000F9010740901411070040501600405405064090741402480A1B50
1001
ACAD
1000
AcDbSavedByObjectVersion
1070
     0
  0
ACAD_PROXY_OBJECT
  5
38
102
{ACAD_REACTORS
330
2A
102
}
330
2A
100
AcDbZombieObject
 90
      499
 91
      501
 93
      444
310
42D31A5B995C185D1D195C9B90E409028333333333333E3BF0000000000000FB010790141107004050750841D405064090741402483A0350
1001
ACAD
1000
AcDbSavedByObjectVersion
1070
     0
  0
ACAD_PROXY_OBJECT
  5
33
102
{ACAD_REACTORS
330
2A
102
}
330
2A
100
AcDbZombieObject
 90
      499
 91
      501
 93
      420
310
425499585B1A5CDD1A58D08409028333333333333E3BF0000000000000FB01079019070040501508421405064090741402480A1B40
1001
ACAD
1000
AcDbSavedByObjectVersion
1070
     0
  0
ACAD_PROXY_OBJECT
  5
37
102
{ACAD_REACTORS
330
2A
102
}
330
2A
100
AcDbZombieObject
 90
      499
 91
      501
 93
      412
310
41D51A1A58DAD95B90D409028333333333333E3BF0000000000000FB010790141107004050150C41D405064090741402480A0350
1001
ACAD
1000
AcDbSavedByObjectVersion
1070
     0
  0
DICTIONARYVAR
  5
E4
102
{ACAD_REACTORS
330
E1
102
}
330
E1
100
DictionaryVariables
280
     0
  1
2
  0
DICTIONARYVAR
  5
E5
102
{ACAD_REACTORS
330
E1
102
}
330
E1
100
DictionaryVariables
280
     0
  1
1
  0
DICTIONARY
  5
E8
330
3D
100
AcDbDictionary
  3
ACAD_XREC_ROUNDTRIP
360
E9
1001
ACAD
1000
TREAT_AS_HARD
1070
     1
  0
DICTIONARY
  5
E6
330
3C
100
AcDbDictionary
  3
ACAD_XREC_ROUNDTRIP
360
E7
1001
ACAD
1000
TREAT_AS_HARD
1070
     1
  0
DICTIONARY
  5
EA
330
3E
100
AcDbDictionary
  3
ACAD_XREC_ROUNDTRIP
360
EB
1001
ACAD
1000
TREAT_AS_HARD
1070
     1
  0
XRECORD
  5
E9
102
{ACAD_REACTORS
330
E8
102
}
330
E8
100
AcDbXrecord
102
MATERIAL
148
0.0
149
0.0
149
0.0
 93
        0
 94
      127
282
     0
 72
     1
 77
     1
171
     1
175
     1
179
     1
273
     0
  0
XRECORD
  5
E7
102
{ACAD_REACTORS
330
E6
102
}
330
E6
100
AcDbXrecord
102
MATERIAL
148
0.0
149
0.0
149
0.0
 93
        0
 94
      127
282
     0
 72
     1
 77
     1
171
     1
175
     1
179
     1
273
     0
  0
XRECORD
  5
EB
102
{ACAD_REACTORS
330
EA
102
}
330
EA
100
AcDbXrecord
102
MATERIAL
148
0.0
149
0.0
149
0.0
 93
        0
 94
      127
282
     0
 72
     1
 77
     1
171
     1
175
     1
179
     1
273
     0
  0
ENDSEC
  0
EOF
