  0
SECTION
  2
HEADER
  9
$ACADVER
  1
AC1012
  9
$DWGCODEPAGE
  3
undefined
  9
$INSBASE
 10
0.0
 20
0.0
 30
0.0
  9
$EXTMIN
 10
1.000000000000000E+20
 20
1.000000000000000E+20
 30
1.000000000000000E+20
  9
$EXTMAX
 10
-1.000000000000000E+20
 20
-1.000000000000000E+20
 30
-1.000000000000000E+20
  9
$LIMMIN
 10
0.0
 20
0.0
  9
$LIMMAX
 10
12.0
 20
9.0
  9
$ORTHOMODE
 70
     0
  9
$REGENMODE
 70
     1
  9
$FILLMODE
 70
     1
  9
$QTEXTMODE
 70
     0
  9
$MIRRTEXT
 70
     1
  9
$DRAGMODE
 70
     2
  9
$LTSCALE
 40
1.0
  9
$OSMODE
 70
    37
  9
$ATTMODE
 70
     1
  9
$TEXTSIZE
 40
0.2
  9
$TRACEWID
 40
0.05
  9
$TEXTSTYLE
  7
STANDARD
  9
$CLAYER
  8
0
  9
$CELTYPE
  6
BYLAYER
  9
$CECOLOR
 62
   256
  9
$CELTSCALE
 40
1.0
  9
$DELOBJ
 70
     1
  9
$DISPSILH
 70
     0
  9
$DIMSCALE
 40
1.0
  9
$DIMASZ
 40
0.18
  9
$DIMEXO
 40
0.0625
  9
$DIMDLI
 40
0.38
  9
$DIMRND
 40
0.0
  9
$DIMDLE
 40
0.0
  9
$DIMEXE
 40
0.18
  9
$DIMTP
 40
0.0
  9
$DIMTM
 40
0.0
  9
$DIMTXT
 40
0.18
  9
$DIMCEN
 40
0.09
  9
$DIMTSZ
 40
0.0
  9
$DIMTOL
 70
     0
  9
$DIMLIM
 70
     0
  9
$DIMTIH
 70
     1
  9
$DIMTOH
 70
     1
  9
$DIMSE1
 70
     0
  9
$DIMSE2
 70
     0
  9
$DIMTAD
 70
     0
  9
$DIMZIN
 70
     0
  9
$DIMBLK
  1

  9
$DIMASO
 70
     1
  9
$DIMSHO
 70
     1
  9
$DIMPOST
  1

  9
$DIMAPOST
  1

  9
$DIMALT
 70
     0
  9
$DIMALTD
 70
     2
  9
$DIMALTF
 40
25.4
  9
$DIMLFAC
 40
1.0
  9
$DIMTOFL
 70
     0
  9
$DIMTVP
 40
0.0
  9
$DIMTIX
 70
     0
  9
$DIMSOXD
 70
     0
  9
$DIMSAH
 70
     0
  9
$DIMBLK1
  1

  9
$DIMBLK2
  1

  9
$DIMSTYLE
  2
STANDARD
  9
$DIMCLRD
 70
     0
  9
$DIMCLRE
 70
     0
  9
$DIMCLRT
 70
     0
  9
$DIMTFAC
 40
1.0
  9
$DIMGAP
 40
0.09
  9
$DIMJUST
 70
     0
  9
$DIMSD1
 70
     0
  9
$DIMSD2
 70
     0
  9
$DIMTOLJ
 70
     1
  9
$DIMTZIN
 70
     0
  9
$DIMALTZ
 70
     0
  9
$DIMALTTZ
 70
     0
  9
$DIMFIT
 70
     3
  9
$DIMUPT
 70
     0
  9
$DIMUNIT
 70
     2
  9
$DIMDEC
 70
     4
  9
$DIMTDEC
 70
     4
  9
$DIMALTU
 70
     2
  9
$DIMALTTD
 70
     2
  9
$DIMTXSTY
  7
STANDARD
  9
$DIMAUNIT
 70
     0
  9
$LUNITS
 70
     2
  9
$LUPREC
 70
     4
  9
$SKETCHINC
 40
0.1
  9
$FILLETRAD
 40
0.5
  9
$AUNITS
 70
     0
  9
$AUPREC
 70
     0
  9
$MENU
  1
.
  9
$ELEVATION
 40
0.0
  9
$PELEVATION
 40
0.0
  9
$THICKNESS
 40
0.0
  9
$LIMCHECK
 70
     0
  9
$CHAMFERA
 40
0.5
  9
$CHAMFERB
 40
0.5
  9
$CHAMFERC
 40
1.0
  9
$CHAMFERD
 40
0.0
  9
$SKPOLY
 70
     0
  9
$TDCREATE
 40
2458464.50994213
  9
$TDUPDATE
 40
2458464.50994213
  9
$TDINDWG
 40
0.0000000116
  9
$TDUSRTIMER
 40
0.0000000116
  9
$USRTIMER
 70
     1
  9
$ANGBASE
 50
0.0
  9
$ANGDIR
 70
     0
  9
$PDMODE
 70
     0
  9
$PDSIZE
 40
0.0
  9
$PLINEWID
 40
0.0
  9
$COORDS
 70
     1
  9
$SPLFRAME
 70
     0
  9
$SPLINETYPE
 70
     6
  9
$SPLINESEGS
 70
     8
  9
$ATTDIA
 70
     0
  9
$ATTREQ
 70
     1
  9
$HANDLING
 70
     1
  9
$HANDSEED
  5
EC
  9
$SURFTAB1
 70
     6
  9
$SURFTAB2
 70
     6
  9
$SURFTYPE
 70
     6
  9
$SURFU
 70
     6
  9
$SURFV
 70
     6
  9
$UCSNAME
  2

  9
$UCSORG
 10
0.0
 20
0.0
 30
0.0
  9
$UCSXDIR
 10
1.0
 20
0.0
 30
0.0
  9
$UCSYDIR
 10
0.0
 20
1.0
 30
0.0
  9
$PUCSNAME
  2

  9
$PUCSORG
 10
0.0
 20
0.0
 30
0.0
  9
$PUCSXDIR
 10
1.0
 20
0.0
 30
0.0
  9
$PUCSYDIR
 10
0.0
 20
1.0
 30
0.0
  9
$USERI1
 70
     0
  9
$USERI2
 70
     0
  9
$USERI3
 70
     0
  9
$USERI4
 70
     0
  9
$USERI5
 70
     0
  9
$USERR1
 40
0.0
  9
$USERR2
 40
0.0
  9
$USERR3
 40
0.0
  9
$USERR4
 40
0.0
  9
$USERR5
 40
0.0
  9
$WORLDVIEW
 70
     1
  9
$SHADEDGE
 70
     3
  9
$SHADEDIF
 70
    70
  9
$TILEMODE
 70
     1
  9
$MAXACTVP
 70
    64
  9
$PINSBASE
 10
0.0
 20
0.0
 30
0.0
  9
$PLIMCHECK
 70
     0
  9
$PEXTMIN
 10
1.000000000000000E+20
 20
1.000000000000000E+20
 30
1.000000000000000E+20
  9
$PEXTMAX
 10
-1.000000000000000E+20
 20
-1.000000000000000E+20
 30
-1.000000000000000E+20
  9
$PLIMMIN
 10
0.0
 20
0.0
  9
$PLIMMAX
 10
12.0
 20
9.0
  9
$UNITMODE
 70
     0
  9
$VISRETAIN
 70
     1
  9
$PLINEGEN
 70
     0
  9
$PSLTSCALE
 70
     1
  9
$TREEDEPTH
 70
  3020
  9
$PICKSTYLE
 70
     1
  9
$CMLSTYLE
  2
STANDARD
  9
$CMLJUST
 70
     0
  9
$CMLSCALE
 40
1.0
  9
$SAVEIMAGES
 70
     1
  0
ENDSEC
  0
SECTION
  2
CLASSES
  0
CLASS
  1
ACDBDICTIONARYWDFLT
  2
AcDbDictionaryWithDefault
  3
ObjectDBX Classes
 90
    32768
280
     0
281
     0
  0
CLASS
  1
VISUALSTYLE
  2
AcDbVisualStyle
  3
ObjectDBX Classes
 90
     4095
280
     0
281
     0
  0
CLASS
  1
MATERIAL
  2
AcDbMaterial
  3
ObjectDBX Classes
 90
     1153
280
     0
281
     0
  0
CLASS
  1
SUN
  2
AcDbSun
  3
SCENEOE
 90
     1024
280
     0
281
     0
  0
CLASS
  1
DICTIONARYVAR
  2
AcDbDictionaryVar
  3
ObjectDBX Classes
 90
        0
280
     0
281
     0
  0
CLASS
  1
XRECORD
  2
AcDbXrecord
  3
AutoCAD 2000
 90
    32768
280
     0
281
     0
  0
CLASS
  1
LWPOLYLINE
  2
AcDbPolyline
  3
AutoCAD 2000
 90
    32768
280
     0
281
     1
  0
CLASS
  1
HATCH
  2
AcDbHatch
  3
AutoCAD 2000
 90
    32768
280
     0
281
     1
  0
CLASS
  1
ACDBPLACEHOLDER
  2
AcDbPlaceHolder
  3
ObjectDBX Classes
 90
        0
280
     0
281
     0
  0
CLASS
  1
LAYOUT
  2
AcDbLayout
  3
ObjectDBX Classes
 90
        0
280
     0
281
     0
  0
ENDSEC
  0
SECTION
  2
TABLES
  0
TABLE
  2
VPORT
  5
8
330
0
100
AcDbSymbolTable
 70
     1
  0
VPORT
  5
29
330
8
100
AcDbSymbolTableRecord
100
AcDbViewportTableRecord
  2
*ACTIVE
 70
     0
 10
0.0
 20
0.0
 11
1.0
 21
1.0
 12
0.0
 22
0.0
 13
0.0
 23
0.0
 14
0.5
 24
0.5
 15
0.5
 25
0.5
 16
0.0
 26
0.0
 36
1.0
 17
148.7061610201823
 27
210.182599498328
 37
0.0
 40
299.9999999249995
 41
1.333333333333336
 42
50.0
 43
0.0
 44
0.0
 50
0.0
 51
0.0
 71
     0
 72
   100
 73
     1
 74
     3
 75
     0
 76
     0
 77
     0
 78
     0
  0
ENDTAB
  0
TABLE
  2
LTYPE
  5
5
330
0
100
AcDbSymbolTable
 70
     1
  0
LTYPE
  5
14
330
5
100
AcDbSymbolTableRecord
100
AcDbLinetypeTableRecord
  2
BYBLOCK
 70
     0
  3

 72
    65
 73
     0
 40
0.0
  0
LTYPE
  5
15
330
5
100
AcDbSymbolTableRecord
100
AcDbLinetypeTableRecord
  2
BYLAYER
 70
     0
  3

 72
    65
 73
     0
 40
0.0
  0
LTYPE
  5
16
330
5
100
AcDbSymbolTableRecord
100
AcDbLinetypeTableRecord
  2
CONTINUOUS
 70
     0
  3
Solid line
 72
    65
 73
     0
 40
0.0
  0
ENDTAB
  0
TABLE
  2
LAYER
  5
2
330
0
100
AcDbSymbolTable
 70
     2
  0
LAYER
  5
10
330
2
100
AcDbSymbolTableRecord
100
AcDbLayerTableRecord
  2
0
 70
     0
 62
     7
  6
CONTINUOUS
  0
LAYER
  5
40
330
2
100
AcDbSymbolTableRecord
100
AcDbLayerTableRecord
  2
LAYER_1
 70
     0
 62
     7
  6
CONTINUOUS
  0
ENDTAB
  0
TABLE
  2
STYLE
  5
3
330
0
100
AcDbSymbolTable
 70
     1
  0
STYLE
  5
11
330
3
100
AcDbSymbolTableRecord
100
AcDbTextStyleTableRecord
  2
STANDARD
 70
     0
 40
0.0
 41
1.0
 50
0.0
 71
     0
 42
0.2
  3
txt
  4

  0
ENDTAB
  0
TABLE
  2
VIEW
  5
6
330
0
100
AcDbSymbolTable
 70
     0
  0
ENDTAB
  0
TABLE
  2
UCS
  5
7
330
0
100
AcDbSymbolTable
 70
     0
  0
ENDTAB
  0
TABLE
  2
APPID
  5
9
330
0
100
AcDbSymbolTable
 70
     1
  0
APPID
  5
12
330
9
100
AcDbSymbolTableRecord
100
AcDbRegAppTableRecord
  2
ACAD
 70
     0
  0
ENDTAB
  0
TABLE
  2
DIMSTYLE
  5
A
330
0
100
AcDbSymbolTable
 70
     1
  0
DIMSTYLE
105
27
330
A
100
AcDbSymbolTableRecord
100
AcDbDimStyleTableRecord
  2
STANDARD
 70
     0
  3

  4

  5

  6

  7

 40
1.0
 41
0.18
 42
0.0625
 43
0.38
 44
0.18
 45
0.0
 46
0.0
 47
0.0
 48
0.0
140
0.18
141
0.09
142
0.0
143
25.4
144
1.0
145
0.0
146
1.0
147
0.09
 71
     0
 72
     0
 73
     1
 74
     1
 75
     0
 76
     0
 77
     0
 78
     0
170
     0
171
     2
172
     0
173
     0
174
     0
175
     0
176
     0
177
     0
178
     0
270
     2
271
     4
272
     4
273
     2
274
     2
340
11
275
     0
280
     0
281
     0
282
     0
283
     1
284
     0
285
     0
286
     0
287
     3
288
     0
  0
ENDTAB
  0
TABLE
  2
BLOCK_RECORD
  5
1
330
0
100
AcDbSymbolTable
 70
     1
  0
BLOCK_RECORD
  5
1F
330
1
100
AcDbSymbolTableRecord
100
AcDbBlockTableRecord
  2
*MODEL_SPACE
  0
BLOCK_RECORD
  5
1B
330
1
100
AcDbSymbolTableRecord
100
AcDbBlockTableRecord
  2
*PAPER_SPACE
  0
ENDTAB
  0
ENDSEC
  0
SECTION
  2
BLOCKS
  0
BLOCK
  5
20
330
1F
100
AcDbEntity
  8
0
100
AcDbBlockBegin
  2
*MODEL_SPACE
 70
     0
 10
0.0
 20
0.0
 30
0.0
  3
*MODEL_SPACE
  1

  0
ENDBLK
  5
21
330
1F
100
AcDbEntity
  8
0
100
AcDbBlockEnd
  0
BLOCK
  5
1C
330
1B
100
AcDbEntity
 67
     1
  8
0
100
AcDbBlockBegin
  2
*PAPER_SPACE
 70
     0
 10
0.0
 20
0.0
 30
0.0
  3
*PAPER_SPACE
  1

  0
ENDBLK
  5
1D
330
1B
100
AcDbEntity
 67
     1
  8
0
100
AcDbBlockEnd
  0
ENDSEC
  0
SECTION
  2
ENTITIES
  0
SPLINE
  5
41
330
1F
100
AcDbEntity
  8
LAYER_1
 62
     7
100
AcDbSpline
210
0.0
220
0.0
230
1.0
 70
    11
 71
     3
 72
    29
 73
    25
 74
     0
 42
0.0000000001
 43
0.0000000001
 12
1.0
 22
0.0
 32
0.0
 13
1.0
 23
0.0
 33
0.0
 40
0.0
 40
0.0
 40
0.0
 40
0.0
 40
1.0
 40
1.0
 40
1.0
 40
2.0
 40
2.0
 40
2.0
 40
3.0
 40
3.0
 40
3.0
 40
4.0
 40
4.0
 40
4.0
 40
5.0
 40
5.0
 40
5.0
 40
6.0
 40
6.0
 40
6.0
 40
7.0
 40
7.0
 40
7.0
 40
8.0
 40
8.0
 40
8.0
 40
8.0
 10
-43.72368984267979
 20
355.7994779540896
 30
0.0
 10
-45.12389403467284
 20
355.7977727084788
 30
0.0
 10
-46.22464174543045
 20
354.424131182817
 30
0.0
 10
-46.22296146377901
 20
353.0444252937606
 30
0.0
 10
-46.22296146377901
 20
353.0444252937606
 30
0.0
 10
-46.16580367205823
 20
306.1112568158889
 30
0.0
 10
-46.16580367205823
 20
306.1112568158889
 30
0.0
 10
-46.16412209238567
 20
304.7304851012067
 30
0.0
 10
-45.06046792901145
 20
303.7175923288968
 30
0.0
 10
-43.6602637370184
 20
303.7192975745082
 30
0.0
 10
-43.6602637370184
 20
303.7192975745082
 30
0.0
 10
24.8970838607637
 20
303.8042008168987
 30
0.0
 10
24.8970838607637
 20
303.8042008168987
 30
0.0
 10
26.29727728683913
 20
303.8059060493989
 30
0.0
 10
27.71524984555315
 20
304.820459460293
 30
0.0
 10
27.71356826588059
 20
306.2012311749746
 30
0.0
 10
27.71356826588059
 20
306.2012311749746
 30
0.0
 10
27.65641047416045
 20
353.1343996528469
 30
0.0
 10
27.65641047416045
 20
353.1343996528469
 30
0.0
 10
27.65473019250836
 20
354.5141055419027
 30
0.0
 10
26.23385289876095
 20
355.884676094062
 30
0.0
 10
24.83365947268551
 20
355.8829708615618
 30
0.0
 10
24.83365947268551
 20
355.8829708615618
 30
0.0
 10
-43.72368984267979
 20
355.7994779540896
 30
0.0
 10
-43.72368984267979
 20
355.7994779540896
 30
0.0
  0
POLYLINE
  5
42
330
1F
100
AcDbEntity
  8
LAYER_1
 62
     7
100
AcDb2dPolyline
 66
     1
 10
0.0
 20
0.0
 30
0.0
  0
VERTEX
  5
43
330
42
100
AcDbEntity
  8
LAYER_1
 62
     7
100
AcDbVertex
100
AcDb2dVertex
 10
-39.78394804959066
 20
309.5103427125587
 30
0.0
  0
VERTEX
  5
44
330
42
100
AcDbEntity
  8
LAYER_1
 62
     7
100
AcDbVertex
100
AcDb2dVertex
 10
-39.83328209930986
 20
350.0193126615848
 30
0.0
  0
VERTEX
  5
45
330
42
100
AcDbEntity
  8
LAYER_1
 62
     7
100
AcDbVertex
100
AcDb2dVertex
 10
21.27448439063958
 20
350.0937330577102
 30
0.0
  0
VERTEX
  5
46
330
42
100
AcDbEntity
  8
LAYER_1
 62
     7
100
AcDbVertex
100
AcDb2dVertex
 10
21.32381844035878
 20
309.5847631086846
 30
0.0
  0
VERTEX
  5
47
330
42
100
AcDbEntity
  8
LAYER_1
 62
     7
100
AcDbVertex
100
AcDb2dVertex
 10
-39.78394804959066
 20
309.5103427125587
 30
0.0
  0
SEQEND
  5
48
330
42
100
AcDbEntity
  8
LAYER_1
 62
     7
  0
SPLINE
  5
49
330
1F
100
AcDbEntity
  8
LAYER_1
 62
     7
100
AcDbSpline
210
0.0
220
0.0
230
1.0
 70
    11
 71
     3
 72
    29
 73
    25
 74
     0
 42
0.0000000001
 43
0.0000000001
 12
1.0
 22
0.0
 32
0.0
 13
1.0
 23
0.0
 33
0.0
 40
0.0
 40
0.0
 40
0.0
 40
0.0
 40
1.0
 40
1.0
 40
1.0
 40
2.0
 40
2.0
 40
2.0
 40
3.0
 40
3.0
 40
3.0
 40
4.0
 40
4.0
 40
4.0
 40
5.0
 40
5.0
 40
5.0
 40
6.0
 40
6.0
 40
6.0
 40
7.0
 40
7.0
 40
7.0
 40
8.0
 40
8.0
 40
8.0
 40
8.0
 10
-43.72372485972922
 20
299.43194308636
 30
0.0
 10
-45.12392905172226
 20
299.4302378407492
 30
0.0
 10
-46.22467676247988
 20
298.0565963150875
 30
0.0
 10
-46.22299648082844
 20
296.676890426031
 30
0.0
 10
-46.22299648082844
 20
296.676890426031
 30
0.0
 10
-46.16583868910765
 20
249.7437219481594
 30
0.0
 10
-46.16583868910765
 20
249.7437219481594
 30
0.0
 10
-46.16415710943509
 20
248.3629502334772
 30
0.0
 10
-45.06050294606088
 20
247.3500574611672
 30
0.0
 10
-43.66029875406783
 20
247.3517627067787
 30
0.0
 10
-43.66029875406783
 20
247.3517627067787
 30
0.0
 10
24.89704884371428
 20
247.4366659491691
 30
0.0
 10
24.89704884371428
 20
247.4366659491691
 30
0.0
 10
26.29724226978971
 20
247.4383711816694
 30
0.0
 10
27.71521482850373
 20
248.4529245925635
 30
0.0
 10
27.71353324883116
 20
249.833696307245
 30
0.0
 10
27.71353324883116
 20
249.833696307245
 30
0.0
 10
27.65637545711103
 20
296.7668647851174
 30
0.0
 10
27.65637545711103
 20
296.7668647851174
 30
0.0
 10
27.65469517545894
 20
298.1465706741731
 30
0.0
 10
26.23381788171152
 20
299.5171412263325
 30
0.0
 10
24.83362445563609
 20
299.5154359938322
 30
0.0
 10
24.83362445563609
 20
299.5154359938322
 30
0.0
 10
-43.72372485972922
 20
299.43194308636
 30
0.0
 10
-43.72372485972922
 20
299.43194308636
 30
0.0
  0
POLYLINE
  5
4A
330
1F
100
AcDbEntity
  8
LAYER_1
 62
     7
100
AcDb2dPolyline
 66
     1
 10
0.0
 20
0.0
 30
0.0
  0
VERTEX
  5
4B
330
4A
100
AcDbEntity
  8
LAYER_1
 62
     7
100
AcDbVertex
100
AcDb2dVertex
 10
-39.78398306664009
 20
253.1428078448291
 30
0.0
  0
VERTEX
  5
4C
330
4A
100
AcDbEntity
  8
LAYER_1
 62
     7
100
AcDbVertex
100
AcDb2dVertex
 10
-39.83331711635929
 20
293.6517777938553
 30
0.0
  0
VERTEX
  5
4D
330
4A
100
AcDbEntity
  8
LAYER_1
 62
     7
100
AcDbVertex
100
AcDb2dVertex
 10
21.27444937359015
 20
293.7261981899807
 30
0.0
  0
VERTEX
  5
4E
330
4A
100
AcDbEntity
  8
LAYER_1
 62
     7
100
AcDbVertex
100
AcDb2dVertex
 10
21.32378342330935
 20
253.2172282409551
 30
0.0
  0
VERTEX
  5
4F
330
4A
100
AcDbEntity
  8
LAYER_1
 62
     7
100
AcDbVertex
100
AcDb2dVertex
 10
-39.78398306664009
 20
253.1428078448291
 30
0.0
  0
SEQEND
  5
50
330
4A
100
AcDbEntity
  8
LAYER_1
 62
     7
  0
SPLINE
  5
51
330
1F
100
AcDbEntity
  8
LAYER_1
 62
     7
100
AcDbSpline
210
0.0
220
0.0
230
1.0
 70
    11
 71
     3
 72
    29
 73
    25
 74
     0
 42
0.0000000001
 43
0.0000000001
 12
1.0
 22
0.0
 32
0.0
 13
1.0
 23
0.0
 33
0.0
 40
0.0
 40
0.0
 40
0.0
 40
0.0
 40
1.0
 40
1.0
 40
1.0
 40
2.0
 40
2.0
 40
2.0
 40
3.0
 40
3.0
 40
3.0
 40
4.0
 40
4.0
 40
4.0
 40
5.0
 40
5.0
 40
5.0
 40
6.0
 40
6.0
 40
6.0
 40
7.0
 40
7.0
 40
7.0
 40
8.0
 40
8.0
 40
8.0
 40
8.0
 10
-43.72368984267915
 20
243.0644082186301
 30
0.0
 10
-45.1238940346722
 20
243.0627029730194
 30
0.0
 10
-46.22464174542981
 20
241.6890614473576
 30
0.0
 10
-46.22296146377837
 20
240.3093555583012
 30
0.0
 10
-46.22296146377837
 20
240.3093555583012
 30
0.0
 10
-46.16580367205759
 20
193.3761870804292
 30
0.0
 10
-46.16580367205759
 20
193.3761870804292
 30
0.0
 10
-46.16412209238502
 20
191.995415365747
 30
0.0
 10
-45.06046792901081
 20
190.9825225934377
 30
0.0
 10
-43.66026373701776
 20
190.9842278390491
 30
0.0
 10
-43.66026373701776
 20
190.9842278390491
 30
0.0
 10
24.89708386076434
 20
191.0691310814396
 30
0.0
 10
24.89708386076434
 20
191.0691310814396
 30
0.0
 10
26.29727728683977
 20
191.0708363139398
 30
0.0
 10
27.71524984555379
 20
192.0853897248333
 30
0.0
 10
27.71356826588123
 20
193.4661614395155
 30
0.0
 10
27.71356826588123
 20
193.4661614395155
 30
0.0
 10
27.65641047416109
 20
240.3993299173875
 30
0.0
 10
27.65641047416109
 20
240.3993299173875
 30
0.0
 10
27.654730192509
 20
241.7790358064433
 30
0.0
 10
26.23385289876159
 20
243.1496063586026
 30
0.0
 10
24.83365947268616
 20
243.1479011261023
 30
0.0
 10
24.83365947268616
 20
243.1479011261023
 30
0.0
 10
-43.72368984267915
 20
243.0644082186301
 30
0.0
 10
-43.72368984267915
 20
243.0644082186301
 30
0.0
  0
POLYLINE
  5
52
330
1F
100
AcDbEntity
  8
LAYER_1
 62
     7
100
AcDb2dPolyline
 66
     1
 10
0.0
 20
0.0
 30
0.0
  0
VERTEX
  5
53
330
52
100
AcDbEntity
  8
LAYER_1
 62
     7
100
AcDbVertex
100
AcDb2dVertex
 10
-39.78394804959002
 20
196.7752729770989
 30
0.0
  0
VERTEX
  5
54
330
52
100
AcDbEntity
  8
LAYER_1
 62
     7
100
AcDbVertex
100
AcDb2dVertex
 10
-39.83328209930922
 20
237.2842429261254
 30
0.0
  0
VERTEX
  5
55
330
52
100
AcDbEntity
  8
LAYER_1
 62
     7
100
AcDbVertex
100
AcDb2dVertex
 10
21.27448439064022
 20
237.3586633222508
 30
0.0
  0
VERTEX
  5
56
330
52
100
AcDbEntity
  8
LAYER_1
 62
     7
100
AcDbVertex
100
AcDb2dVertex
 10
21.32381844035942
 20
196.8496933732255
 30
0.0
  0
VERTEX
  5
57
330
52
100
AcDbEntity
  8
LAYER_1
 62
     7
100
AcDbVertex
100
AcDb2dVertex
 10
-39.78394804959002
 20
196.7752729770989
 30
0.0
  0
SEQEND
  5
58
330
52
100
AcDbEntity
  8
LAYER_1
 62
     7
  0
SPLINE
  5
59
330
1F
100
AcDbEntity
  8
LAYER_1
 62
     7
100
AcDbSpline
210
0.0
220
0.0
230
1.0
 70
    11
 71
     3
 72
    29
 73
    25
 74
     0
 42
0.0000000001
 43
0.0000000001
 12
1.0
 22
0.0
 32
0.0
 13
1.0
 23
0.0
 33
0.0
 40
0.0
 40
0.0
 40
0.0
 40
0.0
 40
1.0
 40
1.0
 40
1.0
 40
2.0
 40
2.0
 40
2.0
 40
3.0
 40
3.0
 40
3.0
 40
4.0
 40
4.0
 40
4.0
 40
5.0
 40
5.0
 40
5.0
 40
6.0
 40
6.0
 40
6.0
 40
7.0
 40
7.0
 40
7.0
 40
8.0
 40
8.0
 40
8.0
 40
8.0
 10
-43.72368984267851
 20
186.6968733508996
 30
0.0
 10
-45.12389403467156
 20
186.6951681052882
 30
0.0
 10
-46.22464174542917
 20
185.3215265796264
 30
0.0
 10
-46.22296146377772
 20
183.9418206905707
 30
0.0
 10
-46.22296146377772
 20
183.9418206905707
 30
0.0
 10
-46.16580367205695
 20
137.0086522126983
 30
0.0
 10
-46.16580367205695
 20
137.0086522126983
 30
0.0
 10
-46.16412209238438
 20
135.6278804980161
 30
0.0
 10
-45.06046792901017
 20
134.6149877257069
 30
0.0
 10
-43.66026373701713
 20
134.6166929713183
 30
0.0
 10
-43.66026373701713
 20
134.6166929713183
 30
0.0
 10
24.89708386076499
 20
134.7015962137088
 30
0.0
 10
24.89708386076499
 20
134.7015962137088
 30
0.0
 10
26.29727728684042
 20
134.703301446209
 30
0.0
 10
27.71524984555443
 20
135.7178548571025
 30
0.0
 10
27.71356826588187
 20
137.0986265717846
 30
0.0
 10
27.71356826588187
 20
137.0986265717846
 30
0.0
 10
27.65641047416173
 20
184.031795049657
 30
0.0
 10
27.65641047416173
 20
184.031795049657
 30
0.0
 10
27.65473019250964
 20
185.4115009387127
 30
0.0
 10
26.23385289876223
 20
186.7820714908721
 30
0.0
 10
24.8336594726868
 20
186.7803662583718
 30
0.0
 10
24.8336594726868
 20
186.7803662583718
 30
0.0
 10
-43.72368984267851
 20
186.6968733508996
 30
0.0
 10
-43.72368984267851
 20
186.6968733508996
 30
0.0
  0
POLYLINE
  5
5A
330
1F
100
AcDbEntity
  8
LAYER_1
 62
     7
100
AcDb2dPolyline
 66
     1
 10
0.0
 20
0.0
 30
0.0
  0
VERTEX
  5
5B
330
5A
100
AcDbEntity
  8
LAYER_1
 62
     7
100
AcDbVertex
100
AcDb2dVertex
 10
-39.78394804958938
 20
140.4077381093681
 30
0.0
  0
VERTEX
  5
5C
330
5A
100
AcDbEntity
  8
LAYER_1
 62
     7
100
AcDbVertex
100
AcDb2dVertex
 10
-39.83328209930858
 20
180.9167080583949
 30
0.0
  0
VERTEX
  5
5D
330
5A
100
AcDbEntity
  8
LAYER_1
 62
     7
100
AcDbVertex
100
AcDb2dVertex
 10
21.27448439064086
 20
180.9911284545203
 30
0.0
  0
VERTEX
  5
5E
330
5A
100
AcDbEntity
  8
LAYER_1
 62
     7
100
AcDbVertex
100
AcDb2dVertex
 10
21.32381844036006
 20
140.4821585054947
 30
0.0
  0
VERTEX
  5
5F
330
5A
100
AcDbEntity
  8
LAYER_1
 62
     7
100
AcDbVertex
100
AcDb2dVertex
 10
-39.78394804958938
 20
140.4077381093681
 30
0.0
  0
SEQEND
  5
60
330
5A
100
AcDbEntity
  8
LAYER_1
 62
     7
  0
SPLINE
  5
61
330
1F
100
AcDbEntity
  8
LAYER_1
 62
     7
100
AcDbSpline
210
0.0
220
0.0
230
1.0
 70
    11
 71
     3
 72
    29
 73
    25
 74
     0
 42
0.0000000001
 43
0.0000000001
 12
1.0
 22
0.0
 32
0.0
 13
1.0
 23
0.0
 33
0.0
 40
0.0
 40
0.0
 40
0.0
 40
0.0
 40
1.0
 40
1.0
 40
1.0
 40
2.0
 40
2.0
 40
2.0
 40
3.0
 40
3.0
 40
3.0
 40
4.0
 40
4.0
 40
4.0
 40
5.0
 40
5.0
 40
5.0
 40
6.0
 40
6.0
 40
6.0
 40
7.0
 40
7.0
 40
7.0
 40
8.0
 40
8.0
 40
8.0
 40
8.0
 10
-43.72375987677896
 20
130.3293384831682
 30
0.0
 10
-45.12396406877201
 20
130.3276332375567
 30
0.0
 10
-46.22471177952963
 20
128.953991711895
 30
0.0
 10
-46.22303149787817
 20
127.5742858228392
 30
0.0
 10
-46.22303149787817
 20
127.5742858228392
 30
0.0
 10
-46.1658737061574
 20
80.64111734496686
 30
0.0
 10
-46.1658737061574
 20
80.64111734496686
 30
0.0
 10
-46.16419212648483
 20
79.26034563028466
 30
0.0
 10
-45.06053796311062
 20
78.24745285797538
 30
0.0
 10
-43.66033377111758
 20
78.24915810358681
 30
0.0
 10
-43.66033377111758
 20
78.24915810358681
 30
0.0
 10
24.89701382666453
 20
78.3340613459773
 30
0.0
 10
24.89701382666453
 20
78.3340613459773
 30
0.0
 10
26.29720725273996
 20
78.33576657847753
 30
0.0
 10
27.71517981145398
 20
79.35031998937099
 30
0.0
 10
27.71349823178141
 20
80.73109170405318
 30
0.0
 10
27.71349823178141
 20
80.73109170405318
 30
0.0
 10
27.65634044006128
 20
127.6642601819255
 30
0.0
 10
27.65634044006128
 20
127.6642601819255
 30
0.0
 10
27.65466015840919
 20
129.0439660709813
 30
0.0
 10
26.23378286466178
 20
130.4145366231406
 30
0.0
 10
24.83358943858634
 20
130.4128313906403
 30
0.0
 10
24.83358943858634
 20
130.4128313906403
 30
0.0
 10
-43.72375987677896
 20
130.3293384831682
 30
0.0
 10
-43.72375987677896
 20
130.3293384831682
 30
0.0
  0
POLYLINE
  5
62
330
1F
100
AcDbEntity
  8
LAYER_1
 62
     7
100
AcDb2dPolyline
 66
     1
 10
0.0
 20
0.0
 30
0.0
  0
VERTEX
  5
63
330
62
100
AcDbEntity
  8
LAYER_1
 62
     7
100
AcDbVertex
100
AcDb2dVertex
 10
-39.78401808368984
 20
84.0402032416366
 30
0.0
  0
VERTEX
  5
64
330
62
100
AcDbEntity
  8
LAYER_1
 62
     7
100
AcDbVertex
100
AcDb2dVertex
 10
-39.83335213340904
 20
124.5491731906634
 30
0.0
  0
VERTEX
  5
65
330
62
100
AcDbEntity
  8
LAYER_1
 62
     7
100
AcDbVertex
100
AcDb2dVertex
 10
21.27441435654041
 20
124.6235935867888
 30
0.0
  0
VERTEX
  5
66
330
62
100
AcDbEntity
  8
LAYER_1
 62
     7
100
AcDbVertex
100
AcDb2dVertex
 10
21.32374840625961
 20
84.11462363776324
 30
0.0
  0
VERTEX
  5
67
330
62
100
AcDbEntity
  8
LAYER_1
 62
     7
100
AcDbVertex
100
AcDb2dVertex
 10
-39.78401808368984
 20
84.0402032416366
 30
0.0
  0
SEQEND
  5
68
330
62
100
AcDbEntity
  8
LAYER_1
 62
     7
  0
SPLINE
  5
69
330
1F
100
AcDbEntity
  8
LAYER_1
 62
     7
100
AcDbSpline
210
0.0
220
0.0
230
1.0
 70
    11
 71
     3
 72
    29
 73
    25
 74
     0
 42
0.0000000001
 43
0.0000000001
 12
1.0
 22
0.0
 32
0.0
 13
1.0
 23
0.0
 33
0.0
 40
0.0
 40
0.0
 40
0.0
 40
0.0
 40
1.0
 40
1.0
 40
1.0
 40
2.0
 40
2.0
 40
2.0
 40
3.0
 40
3.0
 40
3.0
 40
4.0
 40
4.0
 40
4.0
 40
5.0
 40
5.0
 40
5.0
 40
6.0
 40
6.0
 40
6.0
 40
7.0
 40
7.0
 40
7.0
 40
8.0
 40
8.0
 40
8.0
 40
8.0
 10
34.04089959586944
 20
355.8003819013622
 30
0.0
 10
32.64069540387639
 20
355.7986766557514
 30
0.0
 10
31.53994769311878
 20
354.4250351300896
 30
0.0
 10
31.54162797477023
 20
353.0453292410332
 30
0.0
 10
31.54162797477023
 20
353.0453292410332
 30
0.0
 10
31.59878576649101
 20
306.1121607631615
 30
0.0
 10
31.59878576649101
 20
306.1121607631615
 30
0.0
 10
31.60046734616357
 20
304.7313890484793
 30
0.0
 10
32.70412150953779
 20
303.7184962761694
 30
0.0
 10
34.10432570153083
 20
303.7202015217808
 30
0.0
 10
34.10432570153083
 20
303.7202015217808
 30
0.0
 10
102.6616732993129
 20
303.8051047641713
 30
0.0
 10
102.6616732993129
 20
303.8051047641713
 30
0.0
 10
104.0618667253884
 20
303.8068099966715
 30
0.0
 10
105.4798392841024
 20
304.8213634075656
 30
0.0
 10
105.4781577044298
 20
306.2021351222472
 30
0.0
 10
105.4781577044298
 20
306.2021351222472
 30
0.0
 10
105.4209999127097
 20
353.1353036001195
 30
0.0
 10
105.4209999127097
 20
353.1353036001195
 30
0.0
 10
105.4193196310576
 20
354.5150094891753
 30
0.0
 10
103.9984423373102
 20
355.8855800413346
 30
0.0
 10
102.5982489112347
 20
355.8838748088344
 30
0.0
 10
102.5982489112347
 20
355.8838748088344
 30
0.0
 10
34.04089959586944
 20
355.8003819013622
 30
0.0
 10
34.04089959586944
 20
355.8003819013622
 30
0.0
  0
POLYLINE
  5
6A
330
1F
100
AcDbEntity
  8
LAYER_1
 62
     7
100
AcDb2dPolyline
 66
     1
 10
0.0
 20
0.0
 30
0.0
  0
VERTEX
  5
6B
330
6A
100
AcDbEntity
  8
LAYER_1
 62
     7
100
AcDbVertex
100
AcDb2dVertex
 10
37.98064138895857
 20
309.5112466598313
 30
0.0
  0
VERTEX
  5
6C
330
6A
100
AcDbEntity
  8
LAYER_1
 62
     7
100
AcDbVertex
100
AcDb2dVertex
 10
37.93130733923937
 20
350.0202166088574
 30
0.0
  0
VERTEX
  5
6D
330
6A
100
AcDbEntity
  8
LAYER_1
 62
     7
100
AcDbVertex
100
AcDb2dVertex
 10
99.03907382918881
 20
350.0946370049828
 30
0.0
  0
VERTEX
  5
6E
330
6A
100
AcDbEntity
  8
LAYER_1
 62
     7
100
AcDbVertex
100
AcDb2dVertex
 10
99.08840787890801
 20
309.5856670559572
 30
0.0
  0
VERTEX
  5
6F
330
6A
100
AcDbEntity
  8
LAYER_1
 62
     7
100
AcDbVertex
100
AcDb2dVertex
 10
37.98064138895857
 20
309.5112466598313
 30
0.0
  0
SEQEND
  5
70
330
6A
100
AcDbEntity
  8
LAYER_1
 62
     7
  0
SPLINE
  5
71
330
1F
100
AcDbEntity
  8
LAYER_1
 62
     7
100
AcDbSpline
210
0.0
220
0.0
230
1.0
 70
    11
 71
     3
 72
    29
 73
    25
 74
     0
 42
0.0000000001
 43
0.0000000001
 12
1.0
 22
0.0
 32
0.0
 13
1.0
 23
0.0
 33
0.0
 40
0.0
 40
0.0
 40
0.0
 40
0.0
 40
1.0
 40
1.0
 40
1.0
 40
2.0
 40
2.0
 40
2.0
 40
3.0
 40
3.0
 40
3.0
 40
4.0
 40
4.0
 40
4.0
 40
5.0
 40
5.0
 40
5.0
 40
6.0
 40
6.0
 40
6.0
 40
7.0
 40
7.0
 40
7.0
 40
8.0
 40
8.0
 40
8.0
 40
8.0
 10
34.04086457882002
 20
299.4328470336326
 30
0.0
 10
32.64066038682697
 20
299.4311417880219
 30
0.0
 10
31.53991267606936
 20
298.0575002623601
 30
0.0
 10
31.5415929577208
 20
296.6777943733037
 30
0.0
 10
31.5415929577208
 20
296.6777943733037
 30
0.0
 10
31.59875074944158
 20
249.744625895432
 30
0.0
 10
31.59875074944158
 20
249.744625895432
 30
0.0
 10
31.60043232911415
 20
248.3638541807498
 30
0.0
 10
32.70408649248836
 20
247.3509614084398
 30
0.0
 10
34.10429068448141
 20
247.3526666540513
 30
0.0
 10
34.10429068448141
 20
247.3526666540513
 30
0.0
 10
102.6616382822635
 20
247.4375698964418
 30
0.0
 10
102.6616382822635
 20
247.4375698964418
 30
0.0
 10
104.0618317083389
 20
247.439275128942
 30
0.0
 10
105.479804267053
 20
248.4538285398361
 30
0.0
 10
105.4781226873804
 20
249.8346002545177
 30
0.0
 10
105.4781226873804
 20
249.8346002545177
 30
0.0
 10
105.4209648956603
 20
296.76776873239
 30
0.0
 10
105.4209648956603
 20
296.76776873239
 30
0.0
 10
105.4192846140082
 20
298.1474746214457
 30
0.0
 10
103.9984073202608
 20
299.5180451736051
 30
0.0
 10
102.5982138941853
 20
299.5163399411048
 30
0.0
 10
102.5982138941853
 20
299.5163399411048
 30
0.0
 10
34.04086457882002
 20
299.4328470336326
 30
0.0
 10
34.04086457882002
 20
299.4328470336326
 30
0.0
  0
POLYLINE
  5
72
330
1F
100
AcDbEntity
  8
LAYER_1
 62
     7
100
AcDb2dPolyline
 66
     1
 10
0.0
 20
0.0
 30
0.0
  0
VERTEX
  5
73
330
72
100
AcDbEntity
  8
LAYER_1
 62
     7
100
AcDbVertex
100
AcDb2dVertex
 10
37.98060637190915
 20
253.1437117921017
 30
0.0
  0
VERTEX
  5
74
330
72
100
AcDbEntity
  8
LAYER_1
 62
     7
100
AcDbVertex
100
AcDb2dVertex
 10
37.93127232218995
 20
293.6526817411279
 30
0.0
  0
VERTEX
  5
75
330
72
100
AcDbEntity
  8
LAYER_1
 62
     7
100
AcDbVertex
100
AcDb2dVertex
 10
99.03903881213938
 20
293.7271021372533
 30
0.0
  0
VERTEX
  5
76
330
72
100
AcDbEntity
  8
LAYER_1
 62
     7
100
AcDbVertex
100
AcDb2dVertex
 10
99.08837286185859
 20
253.2181321882277
 30
0.0
  0
VERTEX
  5
77
330
72
100
AcDbEntity
  8
LAYER_1
 62
     7
100
AcDbVertex
100
AcDb2dVertex
 10
37.98060637190915
 20
253.1437117921017
 30
0.0
  0
SEQEND
  5
78
330
72
100
AcDbEntity
  8
LAYER_1
 62
     7
  0
SPLINE
  5
79
330
1F
100
AcDbEntity
  8
LAYER_1
 62
     7
100
AcDbSpline
210
0.0
220
0.0
230
1.0
 70
    11
 71
     3
 72
    29
 73
    25
 74
     0
 42
0.0000000001
 43
0.0000000001
 12
1.0
 22
0.0
 32
0.0
 13
1.0
 23
0.0
 33
0.0
 40
0.0
 40
0.0
 40
0.0
 40
0.0
 40
1.0
 40
1.0
 40
1.0
 40
2.0
 40
2.0
 40
2.0
 40
3.0
 40
3.0
 40
3.0
 40
4.0
 40
4.0
 40
4.0
 40
5.0
 40
5.0
 40
5.0
 40
6.0
 40
6.0
 40
6.0
 40
7.0
 40
7.0
 40
7.0
 40
8.0
 40
8.0
 40
8.0
 40
8.0
 10
34.04089959587009
 20
243.0653121659028
 30
0.0
 10
32.64069540387704
 20
243.063606920292
 30
0.0
 10
31.53994769311942
 20
241.6899653946302
 30
0.0
 10
31.54162797477087
 20
240.3102595055738
 30
0.0
 10
31.54162797477087
 20
240.3102595055738
 30
0.0
 10
31.59878576649164
 20
193.3770910277018
 30
0.0
 10
31.59878576649164
 20
193.3770910277018
 30
0.0
 10
31.60046734616421
 20
191.9963193130196
 30
0.0
 10
32.70412150953842
 20
190.9834265407103
 30
0.0
 10
34.10432570153147
 20
190.9851317863217
 30
0.0
 10
34.10432570153147
 20
190.9851317863217
 30
0.0
 10
102.6616732993136
 20
191.0700350287122
 30
0.0
 10
102.6616732993136
 20
191.0700350287122
 30
0.0
 10
104.061866725389
 20
191.0717402612125
 30
0.0
 10
105.479839284103
 20
192.0862936721059
 30
0.0
 10
105.4781577044305
 20
193.4670653867881
 30
0.0
 10
105.4781577044305
 20
193.4670653867881
 30
0.0
 10
105.4209999127103
 20
240.4002338646601
 30
0.0
 10
105.4209999127103
 20
240.4002338646601
 30
0.0
 10
105.4193196310582
 20
241.7799397537159
 30
0.0
 10
103.9984423373108
 20
243.1505103058752
 30
0.0
 10
102.5982489112354
 20
243.1488050733749
 30
0.0
 10
102.5982489112354
 20
243.1488050733749
 30
0.0
 10
34.04089959587009
 20
243.0653121659028
 30
0.0
 10
34.04089959587009
 20
243.0653121659028
 30
0.0
  0
POLYLINE
  5
7A
330
1F
100
AcDbEntity
  8
LAYER_1
 62
     7
100
AcDb2dPolyline
 66
     1
 10
0.0
 20
0.0
 30
0.0
  0
VERTEX
  5
7B
330
7A
100
AcDbEntity
  8
LAYER_1
 62
     7
100
AcDbVertex
100
AcDb2dVertex
 10
37.98064138895921
 20
196.7761769243715
 30
0.0
  0
VERTEX
  5
7C
330
7A
100
AcDbEntity
  8
LAYER_1
 62
     7
100
AcDbVertex
100
AcDb2dVertex
 10
37.93130733924001
 20
237.285146873398
 30
0.0
  0
VERTEX
  5
7D
330
7A
100
AcDbEntity
  8
LAYER_1
 62
     7
100
AcDbVertex
100
AcDb2dVertex
 10
99.03907382918945
 20
237.3595672695234
 30
0.0
  0
VERTEX
  5
7E
330
7A
100
AcDbEntity
  8
LAYER_1
 62
     7
100
AcDbVertex
100
AcDb2dVertex
 10
99.08840787890865
 20
196.8505973204982
 30
0.0
  0
VERTEX
  5
7F
330
7A
100
AcDbEntity
  8
LAYER_1
 62
     7
100
AcDbVertex
100
AcDb2dVertex
 10
37.98064138895921
 20
196.7761769243715
 30
0.0
  0
SEQEND
  5
80
330
7A
100
AcDbEntity
  8
LAYER_1
 62
     7
  0
SPLINE
  5
81
330
1F
100
AcDbEntity
  8
LAYER_1
 62
     7
100
AcDbSpline
210
0.0
220
0.0
230
1.0
 70
    11
 71
     3
 72
    29
 73
    25
 74
     0
 42
0.0000000001
 43
0.0000000001
 12
1.0
 22
0.0
 32
0.0
 13
1.0
 23
0.0
 33
0.0
 40
0.0
 40
0.0
 40
0.0
 40
0.0
 40
1.0
 40
1.0
 40
1.0
 40
2.0
 40
2.0
 40
2.0
 40
3.0
 40
3.0
 40
3.0
 40
4.0
 40
4.0
 40
4.0
 40
5.0
 40
5.0
 40
5.0
 40
6.0
 40
6.0
 40
6.0
 40
7.0
 40
7.0
 40
7.0
 40
8.0
 40
8.0
 40
8.0
 40
8.0
 10
34.04089959587073
 20
186.6977772981723
 30
0.0
 10
32.64069540387768
 20
186.6960720525608
 30
0.0
 10
31.53994769312006
 20
185.322430526899
 30
0.0
 10
31.54162797477151
 20
183.9427246378433
 30
0.0
 10
31.54162797477151
 20
183.9427246378433
 30
0.0
 10
31.59878576649229
 20
137.0095561599709
 30
0.0
 10
31.59878576649229
 20
137.0095561599709
 30
0.0
 10
31.60046734616485
 20
135.6287844452887
 30
0.0
 10
32.70412150953906
 20
134.6158916729795
 30
0.0
 10
34.10432570153211
 20
134.6175969185909
 30
0.0
 10
34.10432570153211
 20
134.6175969185909
 30
0.0
 10
102.6616732993142
 20
134.7025001609814
 30
0.0
 10
102.6616732993142
 20
134.7025001609814
 30
0.0
 10
104.0618667253896
 20
134.7042053934816
 30
0.0
 10
105.4798392841037
 20
135.7187588043751
 30
0.0
 10
105.4781577044311
 20
137.0995305190573
 30
0.0
 10
105.4781577044311
 20
137.0995305190573
 30
0.0
 10
105.420999912711
 20
184.0326989969296
 30
0.0
 10
105.420999912711
 20
184.0326989969296
 30
0.0
 10
105.4193196310589
 20
185.4124048859854
 30
0.0
 10
103.9984423373115
 20
186.7829754381447
 30
0.0
 10
102.598248911236
 20
186.7812702056444
 30
0.0
 10
102.598248911236
 20
186.7812702056444
 30
0.0
 10
34.04089959587073
 20
186.6977772981723
 30
0.0
 10
34.04089959587073
 20
186.6977772981723
 30
0.0
  0
POLYLINE
  5
82
330
1F
100
AcDbEntity
  8
LAYER_1
 62
     7
100
AcDb2dPolyline
 66
     1
 10
0.0
 20
0.0
 30
0.0
  0
VERTEX
  5
83
330
82
100
AcDbEntity
  8
LAYER_1
 62
     7
100
AcDbVertex
100
AcDb2dVertex
 10
37.98064138895985
 20
140.4086420566407
 30
0.0
  0
VERTEX
  5
84
330
82
100
AcDbEntity
  8
LAYER_1
 62
     7
100
AcDbVertex
100
AcDb2dVertex
 10
37.93130733924065
 20
180.9176120056675
 30
0.0
  0
VERTEX
  5
85
330
82
100
AcDbEntity
  8
LAYER_1
 62
     7
100
AcDbVertex
100
AcDb2dVertex
 10
99.0390738291901
 20
180.9920324017929
 30
0.0
  0
VERTEX
  5
86
330
82
100
AcDbEntity
  8
LAYER_1
 62
     7
100
AcDbVertex
100
AcDb2dVertex
 10
99.0884078789093
 20
140.4830624527673
 30
0.0
  0
VERTEX
  5
87
330
82
100
AcDbEntity
  8
LAYER_1
 62
     7
100
AcDbVertex
100
AcDb2dVertex
 10
37.98064138895985
 20
140.4086420566407
 30
0.0
  0
SEQEND
  5
88
330
82
100
AcDbEntity
  8
LAYER_1
 62
     7
  0
SPLINE
  5
89
330
1F
100
AcDbEntity
  8
LAYER_1
 62
     7
100
AcDbSpline
210
0.0
220
0.0
230
1.0
 70
    11
 71
     3
 72
    29
 73
    25
 74
     0
 42
0.0000000001
 43
0.0000000001
 12
1.0
 22
0.0
 32
0.0
 13
1.0
 23
0.0
 33
0.0
 40
0.0
 40
0.0
 40
0.0
 40
0.0
 40
1.0
 40
1.0
 40
1.0
 40
2.0
 40
2.0
 40
2.0
 40
3.0
 40
3.0
 40
3.0
 40
4.0
 40
4.0
 40
4.0
 40
5.0
 40
5.0
 40
5.0
 40
6.0
 40
6.0
 40
6.0
 40
7.0
 40
7.0
 40
7.0
 40
8.0
 40
8.0
 40
8.0
 40
8.0
 10
34.04082956177027
 20
130.3302424304408
 30
0.0
 10
32.64062536977723
 20
130.3285371848294
 30
0.0
 10
31.53987765901961
 20
128.9548956591676
 30
0.0
 10
31.54155794067105
 20
127.5751897701118
 30
0.0
 10
31.54155794067105
 20
127.5751897701118
 30
0.0
 10
31.59871573239183
 20
80.64202129223948
 30
0.0
 10
31.59871573239183
 20
80.64202129223948
 30
0.0
 10
31.6003973120644
 20
79.26124957755728
 30
0.0
 10
32.70405147543861
 20
78.248356805248
 30
0.0
 10
34.10425566743166
 20
78.25006205085943
 30
0.0
 10
34.10425566743166
 20
78.25006205085943
 30
0.0
 10
102.6616032652138
 20
78.33496529324991
 30
0.0
 10
102.6616032652138
 20
78.33496529324991
 30
0.0
 10
104.0617966912892
 20
78.33667052575014
 30
0.0
 10
105.4797692500032
 20
79.3512239366436
 30
0.0
 10
105.4780876703307
 20
80.7319956513258
 30
0.0
 10
105.4780876703307
 20
80.7319956513258
 30
0.0
 10
105.4209298786105
 20
127.6651641291982
 30
0.0
 10
105.4209298786105
 20
127.6651641291982
 30
0.0
 10
105.4192495969584
 20
129.0448700182539
 30
0.0
 10
103.998372303211
 20
130.4154405704132
 30
0.0
 10
102.5981788771356
 20
130.413735337913
 30
0.0
 10
102.5981788771356
 20
130.413735337913
 30
0.0
 10
34.04082956177027
 20
130.3302424304408
 30
0.0
 10
34.04082956177027
 20
130.3302424304408
 30
0.0
  0
POLYLINE
  5
8A
330
1F
100
AcDbEntity
  8
LAYER_1
 62
     7
100
AcDb2dPolyline
 66
     1
 10
0.0
 20
0.0
 30
0.0
  0
VERTEX
  5
8B
330
8A
100
AcDbEntity
  8
LAYER_1
 62
     7
100
AcDbVertex
100
AcDb2dVertex
 10
37.9805713548594
 20
84.04110718890922
 30
0.0
  0
VERTEX
  5
8C
330
8A
100
AcDbEntity
  8
LAYER_1
 62
     7
100
AcDbVertex
100
AcDb2dVertex
 10
37.9312373051402
 20
124.550077137936
 30
0.0
  0
VERTEX
  5
8D
330
8A
100
AcDbEntity
  8
LAYER_1
 62
     7
100
AcDbVertex
100
AcDb2dVertex
 10
99.03900379508964
 20
124.6244975340614
 30
0.0
  0
VERTEX
  5
8E
330
8A
100
AcDbEntity
  8
LAYER_1
 62
     7
100
AcDbVertex
100
AcDb2dVertex
 10
99.08833784480885
 20
84.11552758503585
 30
0.0
  0
VERTEX
  5
8F
330
8A
100
AcDbEntity
  8
LAYER_1
 62
     7
100
AcDbVertex
100
AcDb2dVertex
 10
37.9805713548594
 20
84.04110718890922
 30
0.0
  0
SEQEND
  5
90
330
8A
100
AcDbEntity
  8
LAYER_1
 62
     7
  0
SPLINE
  5
91
330
1F
100
AcDbEntity
  8
LAYER_1
 62
     7
100
AcDbSpline
210
0.0
220
0.0
230
1.0
 70
    11
 71
     3
 72
    29
 73
    25
 74
     0
 42
0.0000000001
 43
0.0000000001
 12
1.0
 22
0.0
 32
0.0
 13
1.0
 23
0.0
 33
0.0
 40
0.0
 40
0.0
 40
0.0
 40
0.0
 40
1.0
 40
1.0
 40
1.0
 40
2.0
 40
2.0
 40
2.0
 40
3.0
 40
3.0
 40
3.0
 40
4.0
 40
4.0
 40
4.0
 40
5.0
 40
5.0
 40
5.0
 40
6.0
 40
6.0
 40
6.0
 40
7.0
 40
7.0
 40
7.0
 40
8.0
 40
8.0
 40
8.0
 40
8.0
 10
111.8055590685198
 20
355.8008338749988
 30
0.0
 10
110.4053548765267
 20
355.799128629388
 30
0.0
 10
109.3046071657691
 20
354.4254871037263
 30
0.0
 10
109.3062874474206
 20
353.0457812146698
 30
0.0
 10
109.3062874474206
 20
353.0457812146698
 30
0.0
 10
109.3634452391413
 20
306.1126127367982
 30
0.0
 10
109.3634452391413
 20
306.1126127367982
 30
0.0
 10
109.3651268188139
 20
304.7318410221159
 30
0.0
 10
110.4687809821881
 20
303.718948249806
 30
0.0
 10
111.8689851741812
 20
303.7206534954174
 30
0.0
 10
111.8689851741812
 20
303.7206534954174
 30
0.0
 10
180.4263327719629
 20
303.8055567378079
 30
0.0
 10
180.4263327719629
 20
303.8055567378079
 30
0.0
 10
181.8265261980384
 20
303.8072619703082
 30
0.0
 10
183.244498756753
 20
304.8218153812023
 30
0.0
 10
183.2428171770805
 20
306.2025870958838
 30
0.0
 10
183.2428171770805
 20
306.2025870958838
 30
0.0
 10
183.1856593853603
 20
353.1357555737562
 30
0.0
 10
183.1856593853603
 20
353.1357555737562
 30
0.0
 10
183.1839791037076
 20
354.5154614628119
 30
0.0
 10
181.7631018099602
 20
355.8860320149712
 30
0.0
 10
180.3629083838848
 20
355.884326782471
 30
0.0
 10
180.3629083838848
 20
355.884326782471
 30
0.0
 10
111.8055590685198
 20
355.8008338749988
 30
0.0
 10
111.8055590685198
 20
355.8008338749988
 30
0.0
  0
POLYLINE
  5
92
330
1F
100
AcDbEntity
  8
LAYER_1
 62
     7
100
AcDb2dPolyline
 66
     1
 10
0.0
 20
0.0
 30
0.0
  0
VERTEX
  5
93
330
92
100
AcDbEntity
  8
LAYER_1
 62
     7
100
AcDbVertex
100
AcDb2dVertex
 10
115.7453008616089
 20
309.5116986334679
 30
0.0
  0
VERTEX
  5
94
330
92
100
AcDbEntity
  8
LAYER_1
 62
     7
100
AcDbVertex
100
AcDb2dVertex
 10
115.6959668118897
 20
350.0206685824941
 30
0.0
  0
VERTEX
  5
95
330
92
100
AcDbEntity
  8
LAYER_1
 62
     7
100
AcDbVertex
100
AcDb2dVertex
 10
176.8037333018388
 20
350.0950889786194
 30
0.0
  0
VERTEX
  5
96
330
92
100
AcDbEntity
  8
LAYER_1
 62
     7
100
AcDbVertex
100
AcDb2dVertex
 10
176.853067351558
 20
309.5861190295939
 30
0.0
  0
VERTEX
  5
97
330
92
100
AcDbEntity
  8
LAYER_1
 62
     7
100
AcDbVertex
100
AcDb2dVertex
 10
115.7453008616089
 20
309.5116986334679
 30
0.0
  0
SEQEND
  5
98
330
92
100
AcDbEntity
  8
LAYER_1
 62
     7
  0
SPLINE
  5
99
330
1F
100
AcDbEntity
  8
LAYER_1
 62
     7
100
AcDbSpline
210
0.0
220
0.0
230
1.0
 70
    11
 71
     3
 72
    29
 73
    25
 74
     0
 42
0.0000000001
 43
0.0000000001
 12
1.0
 22
0.0
 32
0.0
 13
1.0
 23
0.0
 33
0.0
 40
0.0
 40
0.0
 40
0.0
 40
0.0
 40
1.0
 40
1.0
 40
1.0
 40
2.0
 40
2.0
 40
2.0
 40
3.0
 40
3.0
 40
3.0
 40
4.0
 40
4.0
 40
4.0
 40
5.0
 40
5.0
 40
5.0
 40
6.0
 40
6.0
 40
6.0
 40
7.0
 40
7.0
 40
7.0
 40
8.0
 40
8.0
 40
8.0
 40
8.0
 10
111.8055240514703
 20
299.4332990072693
 30
0.0
 10
110.4053198594773
 20
299.4315937616585
 30
0.0
 10
109.3045721487197
 20
298.0579522359967
 30
0.0
 10
109.3062524303711
 20
296.6782463469403
 30
0.0
 10
109.3062524303711
 20
296.6782463469403
 30
0.0
 10
109.3634102220919
 20
249.7450778690686
 30
0.0
 10
109.3634102220919
 20
249.7450778690686
 30
0.0
 10
109.3650918017645
 20
248.3643061543864
 30
0.0
 10
110.4687459651387
 20
247.3514133820765
 30
0.0
 10
111.8689501571317
 20
247.3531186276879
 30
0.0
 10
111.8689501571317
 20
247.3531186276879
 30
0.0
 10
180.4262977549135
 20
247.4380218700784
 30
0.0
 10
180.4262977549135
 20
247.4380218700784
 30
0.0
 10
181.8264911809889
 20
247.4397271025786
 30
0.0
 10
183.2444637397036
 20
248.4542805134727
 30
0.0
 10
183.2427821600311
 20
249.8350522281543
 30
0.0
 10
183.2427821600311
 20
249.8350522281543
 30
0.0
 10
183.1856243683109
 20
296.7682207060266
 30
0.0
 10
183.1856243683109
 20
296.7682207060266
 30
0.0
 10
183.1839440866582
 20
298.1479265950824
 30
0.0
 10
181.7630667929108
 20
299.5184971472417
 30
0.0
 10
180.3628733668353
 20
299.5167919147415
 30
0.0
 10
180.3628733668353
 20
299.5167919147415
 30
0.0
 10
111.8055240514703
 20
299.4332990072693
 30
0.0
 10
111.8055240514703
 20
299.4332990072693
 30
0.0
  0
POLYLINE
  5
9A
330
1F
100
AcDbEntity
  8
LAYER_1
 62
     7
100
AcDb2dPolyline
 66
     1
 10
0.0
 20
0.0
 30
0.0
  0
VERTEX
  5
9B
330
9A
100
AcDbEntity
  8
LAYER_1
 62
     7
100
AcDbVertex
100
AcDb2dVertex
 10
115.7452658445595
 20
253.1441637657383
 30
0.0
  0
VERTEX
  5
9C
330
9A
100
AcDbEntity
  8
LAYER_1
 62
     7
100
AcDbVertex
100
AcDb2dVertex
 10
115.6959317948403
 20
293.6531337147645
 30
0.0
  0
VERTEX
  5
9D
330
9A
100
AcDbEntity
  8
LAYER_1
 62
     7
100
AcDbVertex
100
AcDb2dVertex
 10
176.8036982847894
 20
293.7275541108899
 30
0.0
  0
VERTEX
  5
9E
330
9A
100
AcDbEntity
  8
LAYER_1
 62
     7
100
AcDbVertex
100
AcDb2dVertex
 10
176.8530323345086
 20
253.2185841618643
 30
0.0
  0
VERTEX
  5
9F
330
9A
100
AcDbEntity
  8
LAYER_1
 62
     7
100
AcDbVertex
100
AcDb2dVertex
 10
115.7452658445595
 20
253.1441637657383
 30
0.0
  0
SEQEND
  5
A0
330
9A
100
AcDbEntity
  8
LAYER_1
 62
     7
  0
SPLINE
  5
A1
330
1F
100
AcDbEntity
  8
LAYER_1
 62
     7
100
AcDbSpline
210
0.0
220
0.0
230
1.0
 70
    11
 71
     3
 72
    29
 73
    25
 74
     0
 42
0.0000000001
 43
0.0000000001
 12
1.0
 22
0.0
 32
0.0
 13
1.0
 23
0.0
 33
0.0
 40
0.0
 40
0.0
 40
0.0
 40
0.0
 40
1.0
 40
1.0
 40
1.0
 40
2.0
 40
2.0
 40
2.0
 40
3.0
 40
3.0
 40
3.0
 40
4.0
 40
4.0
 40
4.0
 40
5.0
 40
5.0
 40
5.0
 40
6.0
 40
6.0
 40
6.0
 40
7.0
 40
7.0
 40
7.0
 40
8.0
 40
8.0
 40
8.0
 40
8.0
 10
111.8055590685204
 20
243.0657641395394
 30
0.0
 10
110.4053548765274
 20
243.0640588939286
 30
0.0
 10
109.3046071657698
 20
241.6904173682668
 30
0.0
 10
109.3062874474212
 20
240.3107114792104
 30
0.0
 10
109.3062874474212
 20
240.3107114792104
 30
0.0
 10
109.363445239142
 20
193.3775430013384
 30
0.0
 10
109.363445239142
 20
193.3775430013384
 30
0.0
 10
109.3651268188145
 20
191.9967712866562
 30
0.0
 10
110.4687809821887
 20
190.9838785143469
 30
0.0
 10
111.8689851741818
 20
190.9855837599584
 30
0.0
 10
111.8689851741818
 20
190.9855837599584
 30
0.0
 10
180.4263327719642
 20
191.0704870023488
 30
0.0
 10
180.4263327719642
 20
191.0704870023488
 30
0.0
 10
181.8265261980397
 20
191.0721922348491
 30
0.0
 10
183.244498756753
 20
192.0867456457425
 30
0.0
 10
183.2428171770805
 20
193.4675173604247
 30
0.0
 10
183.2428171770805
 20
193.4675173604247
 30
0.0
 10
183.1856593853603
 20
240.4006858382968
 30
0.0
 10
183.1856593853603
 20
240.4006858382968
 30
0.0
 10
183.1839791037089
 20
241.7803917273525
 30
0.0
 10
181.7631018099615
 20
243.1509622795118
 30
0.0
 10
180.362908383886
 20
243.1492570470116
 30
0.0
 10
180.362908383886
 20
243.1492570470116
 30
0.0
 10
111.8055590685204
 20
243.0657641395394
 30
0.0
 10
111.8055590685204
 20
243.0657641395394
 30
0.0
  0
POLYLINE
  5
A2
330
1F
100
AcDbEntity
  8
LAYER_1
 62
     7
100
AcDb2dPolyline
 66
     1
 10
0.0
 20
0.0
 30
0.0
  0
VERTEX
  5
A3
330
A2
100
AcDbEntity
  8
LAYER_1
 62
     7
100
AcDbVertex
100
AcDb2dVertex
 10
115.7453008616095
 20
196.7766288980081
 30
0.0
  0
VERTEX
  5
A4
330
A2
100
AcDbEntity
  8
LAYER_1
 62
     7
100
AcDbVertex
100
AcDb2dVertex
 10
115.6959668118903
 20
237.2855988470347
 30
0.0
  0
VERTEX
  5
A5
330
A2
100
AcDbEntity
  8
LAYER_1
 62
     7
100
AcDbVertex
100
AcDb2dVertex
 10
176.8037333018401
 20
237.36001924316
 30
0.0
  0
VERTEX
  5
A6
330
A2
100
AcDbEntity
  8
LAYER_1
 62
     7
100
AcDbVertex
100
AcDb2dVertex
 10
176.8530673515593
 20
196.8510492941348
 30
0.0
  0
VERTEX
  5
A7
330
A2
100
AcDbEntity
  8
LAYER_1
 62
     7
100
AcDbVertex
100
AcDb2dVertex
 10
115.7453008616095
 20
196.7766288980081
 30
0.0
  0
SEQEND
  5
A8
330
A2
100
AcDbEntity
  8
LAYER_1
 62
     7
  0
SPLINE
  5
A9
330
1F
100
AcDbEntity
  8
LAYER_1
 62
     7
100
AcDbSpline
210
0.0
220
0.0
230
1.0
 70
    11
 71
     3
 72
    29
 73
    25
 74
     0
 42
0.0000000001
 43
0.0000000001
 12
1.0
 22
0.0
 32
0.0
 13
1.0
 23
0.0
 33
0.0
 40
0.0
 40
0.0
 40
0.0
 40
0.0
 40
1.0
 40
1.0
 40
1.0
 40
2.0
 40
2.0
 40
2.0
 40
3.0
 40
3.0
 40
3.0
 40
4.0
 40
4.0
 40
4.0
 40
5.0
 40
5.0
 40
5.0
 40
6.0
 40
6.0
 40
6.0
 40
7.0
 40
7.0
 40
7.0
 40
8.0
 40
8.0
 40
8.0
 40
8.0
 10
111.805559068521
 20
186.6982292718089
 30
0.0
 10
110.405354876528
 20
186.6965240261975
 30
0.0
 10
109.3046071657704
 20
185.3228825005357
 30
0.0
 10
109.3062874474218
 20
183.9431766114799
 30
0.0
 10
109.3062874474218
 20
183.9431766114799
 30
0.0
 10
109.3634452391426
 20
137.0100081336076
 30
0.0
 10
109.3634452391426
 20
137.0100081336076
 30
0.0
 10
109.3651268188152
 20
135.6292364189254
 30
0.0
 10
110.4687809821894
 20
134.6163436466161
 30
0.0
 10
111.8689851741824
 20
134.6180488922275
 30
0.0
 10
111.8689851741824
 20
134.6180488922275
 30
0.0
 10
180.4263327719642
 20
134.702952134618
 30
0.0
 10
180.4263327719642
 20
134.702952134618
 30
0.0
 10
181.8265261980397
 20
134.7046573671182
 30
0.0
 10
183.2444987567543
 20
135.7192107780117
 30
0.0
 10
183.2428171770817
 20
137.0999824926939
 30
0.0
 10
183.2428171770817
 20
137.0999824926939
 30
0.0
 10
183.1856593853616
 20
184.0331509705663
 30
0.0
 10
183.1856593853616
 20
184.0331509705663
 30
0.0
 10
183.1839791037089
 20
185.412856859622
 30
0.0
 10
181.7631018099615
 20
186.7834274117813
 30
0.0
 10
180.362908383886
 20
186.7817221792811
 30
0.0
 10
180.362908383886
 20
186.7817221792811
 30
0.0
 10
111.805559068521
 20
186.6982292718089
 30
0.0
 10
111.805559068521
 20
186.6982292718089
 30
0.0
  0
POLYLINE
  5
AA
330
1F
100
AcDbEntity
  8
LAYER_1
 62
     7
100
AcDb2dPolyline
 66
     1
 10
0.0
 20
0.0
 30
0.0
  0
VERTEX
  5
AB
330
AA
100
AcDbEntity
  8
LAYER_1
 62
     7
100
AcDbVertex
100
AcDb2dVertex
 10
115.7453008616102
 20
140.4090940302773
 30
0.0
  0
VERTEX
  5
AC
330
AA
100
AcDbEntity
  8
LAYER_1
 62
     7
100
AcDbVertex
100
AcDb2dVertex
 10
115.695966811891
 20
180.9180639793042
 30
0.0
  0
VERTEX
  5
AD
330
AA
100
AcDbEntity
  8
LAYER_1
 62
     7
100
AcDbVertex
100
AcDb2dVertex
 10
176.8037333018401
 20
180.9924843754295
 30
0.0
  0
VERTEX
  5
AE
330
AA
100
AcDbEntity
  8
LAYER_1
 62
     7
100
AcDbVertex
100
AcDb2dVertex
 10
176.8530673515593
 20
140.483514426404
 30
0.0
  0
VERTEX
  5
AF
330
AA
100
AcDbEntity
  8
LAYER_1
 62
     7
100
AcDbVertex
100
AcDb2dVertex
 10
115.7453008616102
 20
140.4090940302773
 30
0.0
  0
SEQEND
  5
B0
330
AA
100
AcDbEntity
  8
LAYER_1
 62
     7
  0
SPLINE
  5
B1
330
1F
100
AcDbEntity
  8
LAYER_1
 62
     7
100
AcDbSpline
210
0.0
220
0.0
230
1.0
 70
    11
 71
     3
 72
    29
 73
    25
 74
     0
 42
0.0000000001
 43
0.0000000001
 12
1.0
 22
0.0
 32
0.0
 13
1.0
 23
0.0
 33
0.0
 40
0.0
 40
0.0
 40
0.0
 40
0.0
 40
1.0
 40
1.0
 40
1.0
 40
2.0
 40
2.0
 40
2.0
 40
3.0
 40
3.0
 40
3.0
 40
4.0
 40
4.0
 40
4.0
 40
5.0
 40
5.0
 40
5.0
 40
6.0
 40
6.0
 40
6.0
 40
7.0
 40
7.0
 40
7.0
 40
8.0
 40
8.0
 40
8.0
 40
8.0
 10
111.8054890344206
 20
130.3306944040774
 30
0.0
 10
110.4052848424275
 20
130.328989158466
 30
0.0
 10
109.3045371316699
 20
128.9553476328042
 30
0.0
 10
109.3062174133214
 20
127.5756417437484
 30
0.0
 10
109.3062174133214
 20
127.5756417437484
 30
0.0
 10
109.3633752050422
 20
80.64247326587609
 30
0.0
 10
109.3633752050422
 20
80.64247326587609
 30
0.0
 10
109.3650567847147
 20
79.26170155119391
 30
0.0
 10
110.4687109480889
 20
78.24880877888462
 30
0.0
 10
111.868915140082
 20
78.25051402449604
 30
0.0
 10
111.868915140082
 20
78.25051402449604
 30
0.0
 10
180.4262627378641
 20
78.33541726688654
 30
0.0
 10
180.4262627378641
 20
78.33541726688654
 30
0.0
 10
181.8264561639395
 20
78.33712249938677
 30
0.0
 10
183.2444287226535
 20
79.35167591028024
 30
0.0
 10
183.242747142981
 20
80.73244762496243
 30
0.0
 10
183.242747142981
 20
80.73244762496243
 30
0.0
 10
183.1855893512608
 20
127.6656161028348
 30
0.0
 10
183.1855893512608
 20
127.6656161028348
 30
0.0
 10
183.1839090696087
 20
129.0453219918905
 30
0.0
 10
181.7630317758614
 20
130.4158925440498
 30
0.0
 10
180.3628383497859
 20
130.4141873115496
 30
0.0
 10
180.3628383497859
 20
130.4141873115496
 30
0.0
 10
111.8054890344206
 20
130.3306944040774
 30
0.0
 10
111.8054890344206
 20
130.3306944040774
 30
0.0
  0
POLYLINE
  5
B2
330
1F
100
AcDbEntity
  8
LAYER_1
 62
     7
100
AcDb2dPolyline
 66
     1
 10
0.0
 20
0.0
 30
0.0
  0
VERTEX
  5
B3
330
B2
100
AcDbEntity
  8
LAYER_1
 62
     7
100
AcDbVertex
100
AcDb2dVertex
 10
115.7452308275097
 20
84.04155916254585
 30
0.0
  0
VERTEX
  5
B4
330
B2
100
AcDbEntity
  8
LAYER_1
 62
     7
100
AcDbVertex
100
AcDb2dVertex
 10
115.6958967777905
 20
124.5505291115727
 30
0.0
  0
VERTEX
  5
B5
330
B2
100
AcDbEntity
  8
LAYER_1
 62
     7
100
AcDbVertex
100
AcDb2dVertex
 10
176.80366326774
 20
124.624949507698
 30
0.0
  0
VERTEX
  5
B6
330
B2
100
AcDbEntity
  8
LAYER_1
 62
     7
100
AcDbVertex
100
AcDb2dVertex
 10
176.8529973174592
 20
84.11597955867248
 30
0.0
  0
VERTEX
  5
B7
330
B2
100
AcDbEntity
  8
LAYER_1
 62
     7
100
AcDbVertex
100
AcDb2dVertex
 10
115.7452308275097
 20
84.04155916254585
 30
0.0
  0
SEQEND
  5
B8
330
B2
100
AcDbEntity
  8
LAYER_1
 62
     7
  0
SPLINE
  5
B9
330
1F
100
AcDbEntity
  8
LAYER_1
 62
     7
100
AcDbSpline
210
0.0
220
0.0
230
1.0
 70
    11
 71
     3
 72
    29
 73
    25
 74
     0
 42
0.0000000001
 43
0.0000000001
 12
1.0
 22
0.0
 32
0.0
 13
1.0
 23
0.0
 33
0.0
 40
0.0
 40
0.0
 40
0.0
 40
0.0
 40
1.0
 40
1.0
 40
1.0
 40
2.0
 40
2.0
 40
2.0
 40
3.0
 40
3.0
 40
3.0
 40
4.0
 40
4.0
 40
4.0
 40
5.0
 40
5.0
 40
5.0
 40
6.0
 40
6.0
 40
6.0
 40
7.0
 40
7.0
 40
7.0
 40
8.0
 40
8.0
 40
8.0
 40
8.0
 10
189.570148507069
 20
355.8017378222714
 30
0.0
 10
188.169944315076
 20
355.8000325766607
 30
0.0
 10
187.0691966043183
 20
354.4263910509989
 30
0.0
 10
187.0708768859698
 20
353.0466851619425
 30
0.0
 10
187.0708768859698
 20
353.0466851619425
 30
0.0
 10
187.1280346776906
 20
306.1135166840708
 30
0.0
 10
187.1280346776906
 20
306.1135166840708
 30
0.0
 10
187.1297162573631
 20
304.7327449693885
 30
0.0
 10
188.2333704207373
 20
303.7198521970786
 30
0.0
 10
189.6335746127304
 20
303.7215574426901
 30
0.0
 10
189.6335746127304
 20
303.7215574426901
 30
0.0
 10
258.1909222105125
 20
303.8064606850805
 30
0.0
 10
258.1909222105125
 20
303.8064606850805
 30
0.0
 10
259.5911156365879
 20
303.8081659175808
 30
0.0
 10
261.009088195302
 20
304.8227193284749
 30
0.0
 10
261.0074066156294
 20
306.2034910431564
 30
0.0
 10
261.0074066156294
 20
306.2034910431564
 30
0.0
 10
260.9502488239092
 20
353.1366595210288
 30
0.0
 10
260.9502488239092
 20
353.1366595210288
 30
0.0
 10
260.9485685422571
 20
354.5163654100845
 30
0.0
 10
259.5276912485098
 20
355.8869359622439
 30
0.0
 10
258.1274978224343
 20
355.8852307297436
 30
0.0
 10
258.1274978224343
 20
355.8852307297436
 30
0.0
 10
189.570148507069
 20
355.8017378222714
 30
0.0
 10
189.570148507069
 20
355.8017378222714
 30
0.0
  0
POLYLINE
  5
BA
330
1F
100
AcDbEntity
  8
LAYER_1
 62
     7
100
AcDb2dPolyline
 66
     1
 10
0.0
 20
0.0
 30
0.0
  0
VERTEX
  5
BB
330
BA
100
AcDbEntity
  8
LAYER_1
 62
     7
100
AcDbVertex
100
AcDb2dVertex
 10
193.5098903001581
 20
309.5126025807405
 30
0.0
  0
VERTEX
  5
BC
330
BA
100
AcDbEntity
  8
LAYER_1
 62
     7
100
AcDbVertex
100
AcDb2dVertex
 10
193.4605562504389
 20
350.0215725297667
 30
0.0
  0
VERTEX
  5
BD
330
BA
100
AcDbEntity
  8
LAYER_1
 62
     7
100
AcDbVertex
100
AcDb2dVertex
 10
254.5683227403884
 20
350.0959929258921
 30
0.0
  0
VERTEX
  5
BE
330
BA
100
AcDbEntity
  8
LAYER_1
 62
     7
100
AcDbVertex
100
AcDb2dVertex
 10
254.6176567901076
 20
309.5870229768665
 30
0.0
  0
VERTEX
  5
BF
330
BA
100
AcDbEntity
  8
LAYER_1
 62
     7
100
AcDbVertex
100
AcDb2dVertex
 10
193.5098903001581
 20
309.5126025807405
 30
0.0
  0
SEQEND
  5
C0
330
BA
100
AcDbEntity
  8
LAYER_1
 62
     7
  0
SPLINE
  5
C1
330
1F
100
AcDbEntity
  8
LAYER_1
 62
     7
100
AcDbSpline
210
0.0
220
0.0
230
1.0
 70
    11
 71
     3
 72
    29
 73
    25
 74
     0
 42
0.0000000001
 43
0.0000000001
 12
1.0
 22
0.0
 32
0.0
 13
1.0
 23
0.0
 33
0.0
 40
0.0
 40
0.0
 40
0.0
 40
0.0
 40
1.0
 40
1.0
 40
1.0
 40
2.0
 40
2.0
 40
2.0
 40
3.0
 40
3.0
 40
3.0
 40
4.0
 40
4.0
 40
4.0
 40
5.0
 40
5.0
 40
5.0
 40
6.0
 40
6.0
 40
6.0
 40
7.0
 40
7.0
 40
7.0
 40
8.0
 40
8.0
 40
8.0
 40
8.0
 10
189.5701134900196
 20
299.4342029545419
 30
0.0
 10
188.1699092980265
 20
299.4324977089311
 30
0.0
 10
187.0691615872689
 20
298.0588561832693
 30
0.0
 10
187.0708418689204
 20
296.6791502942129
 30
0.0
 10
187.0708418689204
 20
296.6791502942129
 30
0.0
 10
187.1279996606411
 20
249.7459818163412
 30
0.0
 10
187.1279996606411
 20
249.7459818163412
 30
0.0
 10
187.1296812403137
 20
248.365210101659
 30
0.0
 10
188.2333354036879
 20
247.3523173293491
 30
0.0
 10
189.633539595681
 20
247.3540225749605
 30
0.0
 10
189.633539595681
 20
247.3540225749605
 30
0.0
 10
258.1908871934631
 20
247.438925817351
 30
0.0
 10
258.1908871934631
 20
247.438925817351
 30
0.0
 10
259.5910806195385
 20
247.4406310498512
 30
0.0
 10
261.0090531782525
 20
248.4551844607453
 30
0.0
 10
261.0073715985799
 20
249.8359561754269
 30
0.0
 10
261.0073715985799
 20
249.8359561754269
 30
0.0
 10
260.9502138068598
 20
296.7691246532992
 30
0.0
 10
260.9502138068598
 20
296.7691246532992
 30
0.0
 10
260.9485335252077
 20
298.148830542355
 30
0.0
 10
259.5276562314603
 20
299.5194010945143
 30
0.0
 10
258.1274628053849
 20
299.5176958620141
 30
0.0
 10
258.1274628053849
 20
299.5176958620141
 30
0.0
 10
189.5701134900196
 20
299.4342029545419
 30
0.0
 10
189.5701134900196
 20
299.4342029545419
 30
0.0
  0
POLYLINE
  5
C2
330
1F
100
AcDbEntity
  8
LAYER_1
 62
     7
100
AcDb2dPolyline
 66
     1
 10
0.0
 20
0.0
 30
0.0
  0
VERTEX
  5
C3
330
C2
100
AcDbEntity
  8
LAYER_1
 62
     7
100
AcDbVertex
100
AcDb2dVertex
 10
193.5098552831087
 20
253.1450677130109
 30
0.0
  0
VERTEX
  5
C4
330
C2
100
AcDbEntity
  8
LAYER_1
 62
     7
100
AcDbVertex
100
AcDb2dVertex
 10
193.4605212333895
 20
293.6540376620371
 30
0.0
  0
VERTEX
  5
C5
330
C2
100
AcDbEntity
  8
LAYER_1
 62
     7
100
AcDbVertex
100
AcDb2dVertex
 10
254.568287723339
 20
293.7284580581625
 30
0.0
  0
VERTEX
  5
C6
330
C2
100
AcDbEntity
  8
LAYER_1
 62
     7
100
AcDbVertex
100
AcDb2dVertex
 10
254.6176217730581
 20
253.219488109137
 30
0.0
  0
VERTEX
  5
C7
330
C2
100
AcDbEntity
  8
LAYER_1
 62
     7
100
AcDbVertex
100
AcDb2dVertex
 10
193.5098552831087
 20
253.1450677130109
 30
0.0
  0
SEQEND
  5
C8
330
C2
100
AcDbEntity
  8
LAYER_1
 62
     7
  0
SPLINE
  5
C9
330
1F
100
AcDbEntity
  8
LAYER_1
 62
     7
100
AcDbSpline
210
0.0
220
0.0
230
1.0
 70
    11
 71
     3
 72
    29
 73
    25
 74
     0
 42
0.0000000001
 43
0.0000000001
 12
1.0
 22
0.0
 32
0.0
 13
1.0
 23
0.0
 33
0.0
 40
0.0
 40
0.0
 40
0.0
 40
0.0
 40
1.0
 40
1.0
 40
1.0
 40
2.0
 40
2.0
 40
2.0
 40
3.0
 40
3.0
 40
3.0
 40
4.0
 40
4.0
 40
4.0
 40
5.0
 40
5.0
 40
5.0
 40
6.0
 40
6.0
 40
6.0
 40
7.0
 40
7.0
 40
7.0
 40
8.0
 40
8.0
 40
8.0
 40
8.0
 10
189.5701485070696
 20
243.066668086812
 30
0.0
 10
188.1699443150766
 20
243.0649628412012
 30
0.0
 10
187.069196604319
 20
241.6913213155394
 30
0.0
 10
187.0708768859704
 20
240.3116154264831
 30
0.0
 10
187.0708768859704
 20
240.3116154264831
 30
0.0
 10
187.1280346776912
 20
193.378446948611
 30
0.0
 10
187.1280346776912
 20
193.378446948611
 30
0.0
 10
187.1297162573638
 20
191.9976752339288
 30
0.0
 10
188.233370420738
 20
190.9847824616195
 30
0.0
 10
189.633574612731
 20
190.986487707231
 30
0.0
 10
189.633574612731
 20
190.986487707231
 30
0.0
 10
258.1909222105131
 20
191.0713909496214
 30
0.0
 10
258.1909222105131
 20
191.0713909496214
 30
0.0
 10
259.5911156365886
 20
191.0730961821217
 30
0.0
 10
261.0090881953026
 20
192.0876495930152
 30
0.0
 10
261.00740661563
 20
193.4684213076974
 30
0.0
 10
261.00740661563
 20
193.4684213076974
 30
0.0
 10
260.9502488239099
 20
240.4015897855694
 30
0.0
 10
260.9502488239099
 20
240.4015897855694
 30
0.0
 10
260.9485685422578
 20
241.7812956746251
 30
0.0
 10
259.5276912485104
 20
243.1518662267844
 30
0.0
 10
258.127497822435
 20
243.1501609942842
 30
0.0
 10
258.127497822435
 20
243.1501609942842
 30
0.0
 10
189.5701485070696
 20
243.066668086812
 30
0.0
 10
189.5701485070696
 20
243.066668086812
 30
0.0
  0
POLYLINE
  5
CA
330
1F
100
AcDbEntity
  8
LAYER_1
 62
     7
100
AcDb2dPolyline
 66
     1
 10
0.0
 20
0.0
 30
0.0
  0
VERTEX
  5
CB
330
CA
100
AcDbEntity
  8
LAYER_1
 62
     7
100
AcDbVertex
100
AcDb2dVertex
 10
193.5098903001588
 20
196.7775328452808
 30
0.0
  0
VERTEX
  5
CC
330
CA
100
AcDbEntity
  8
LAYER_1
 62
     7
100
AcDbVertex
100
AcDb2dVertex
 10
193.4605562504396
 20
237.2865027943073
 30
0.0
  0
VERTEX
  5
CD
330
CA
100
AcDbEntity
  8
LAYER_1
 62
     7
100
AcDbVertex
100
AcDb2dVertex
 10
254.568322740389
 20
237.3609231904326
 30
0.0
  0
VERTEX
  5
CE
330
CA
100
AcDbEntity
  8
LAYER_1
 62
     7
100
AcDbVertex
100
AcDb2dVertex
 10
254.6176567901082
 20
196.8519532414074
 30
0.0
  0
VERTEX
  5
CF
330
CA
100
AcDbEntity
  8
LAYER_1
 62
     7
100
AcDbVertex
100
AcDb2dVertex
 10
193.5098903001588
 20
196.7775328452808
 30
0.0
  0
SEQEND
  5
D0
330
CA
100
AcDbEntity
  8
LAYER_1
 62
     7
  0
SPLINE
  5
D1
330
1F
100
AcDbEntity
  8
LAYER_1
 62
     7
100
AcDbSpline
210
0.0
220
0.0
230
1.0
 70
    11
 71
     3
 72
    29
 73
    25
 74
     0
 42
0.0000000001
 43
0.0000000001
 12
1.0
 22
0.0
 32
0.0
 13
1.0
 23
0.0
 33
0.0
 40
0.0
 40
0.0
 40
0.0
 40
0.0
 40
1.0
 40
1.0
 40
1.0
 40
2.0
 40
2.0
 40
2.0
 40
3.0
 40
3.0
 40
3.0
 40
4.0
 40
4.0
 40
4.0
 40
5.0
 40
5.0
 40
5.0
 40
6.0
 40
6.0
 40
6.0
 40
7.0
 40
7.0
 40
7.0
 40
8.0
 40
8.0
 40
8.0
 40
8.0
 10
189.5701485070703
 20
186.6991332190815
 30
0.0
 10
188.1699443150772
 20
186.6974279734701
 30
0.0
 10
187.0691966043196
 20
185.3237864478083
 30
0.0
 10
187.0708768859711
 20
183.9440805587525
 30
0.0
 10
187.0708768859711
 20
183.9440805587525
 30
0.0
 10
187.1280346776919
 20
137.0109120808802
 30
0.0
 10
187.1280346776919
 20
137.0109120808802
 30
0.0
 10
187.1297162573644
 20
135.630140366198
 30
0.0
 10
188.2333704207386
 20
134.6172475938887
 30
0.0
 10
189.6335746127317
 20
134.6189528395001
 30
0.0
 10
189.6335746127317
 20
134.6189528395001
 30
0.0
 10
258.1909222105138
 20
134.7038560818906
 30
0.0
 10
258.1909222105138
 20
134.7038560818906
 30
0.0
 10
259.5911156365892
 20
134.7055613143908
 30
0.0
 10
261.0090881953032
 20
135.7201147252843
 30
0.0
 10
261.0074066156307
 20
137.1008864399665
 30
0.0
 10
261.0074066156307
 20
137.1008864399665
 30
0.0
 10
260.9502488239106
 20
184.0340549178389
 30
0.0
 10
260.9502488239106
 20
184.0340549178389
 30
0.0
 10
260.9485685422584
 20
185.4137608068946
 30
0.0
 10
259.527691248511
 20
186.7843313590539
 30
0.0
 10
258.1274978224356
 20
186.7826261265537
 30
0.0
 10
258.1274978224356
 20
186.7826261265537
 30
0.0
 10
189.5701485070703
 20
186.6991332190815
 30
0.0
 10
189.5701485070703
 20
186.6991332190815
 30
0.0
  0
POLYLINE
  5
D2
330
1F
100
AcDbEntity
  8
LAYER_1
 62
     7
100
AcDb2dPolyline
 66
     1
 10
0.0
 20
0.0
 30
0.0
  0
VERTEX
  5
D3
330
D2
100
AcDbEntity
  8
LAYER_1
 62
     7
100
AcDbVertex
100
AcDb2dVertex
 10
193.5098903001594
 20
140.4099979775499
 30
0.0
  0
VERTEX
  5
D4
330
D2
100
AcDbEntity
  8
LAYER_1
 62
     7
100
AcDbVertex
100
AcDb2dVertex
 10
193.4605562504402
 20
180.9189679265768
 30
0.0
  0
VERTEX
  5
D5
330
D2
100
AcDbEntity
  8
LAYER_1
 62
     7
100
AcDbVertex
100
AcDb2dVertex
 10
254.5683227403896
 20
180.9933883227021
 30
0.0
  0
VERTEX
  5
D6
330
D2
100
AcDbEntity
  8
LAYER_1
 62
     7
100
AcDbVertex
100
AcDb2dVertex
 10
254.6176567901089
 20
140.4844183736766
 30
0.0
  0
VERTEX
  5
D7
330
D2
100
AcDbEntity
  8
LAYER_1
 62
     7
100
AcDbVertex
100
AcDb2dVertex
 10
193.5098903001594
 20
140.4099979775499
 30
0.0
  0
SEQEND
  5
D8
330
D2
100
AcDbEntity
  8
LAYER_1
 62
     7
  0
SPLINE
  5
D9
330
1F
100
AcDbEntity
  8
LAYER_1
 62
     7
100
AcDbSpline
210
0.0
220
0.0
230
1.0
 70
    11
 71
     3
 72
    29
 73
    25
 74
     0
 42
0.0000000001
 43
0.0000000001
 12
1.0
 22
0.0
 32
0.0
 13
1.0
 23
0.0
 33
0.0
 40
0.0
 40
0.0
 40
0.0
 40
0.0
 40
1.0
 40
1.0
 40
1.0
 40
2.0
 40
2.0
 40
2.0
 40
3.0
 40
3.0
 40
3.0
 40
4.0
 40
4.0
 40
4.0
 40
5.0
 40
5.0
 40
5.0
 40
6.0
 40
6.0
 40
6.0
 40
7.0
 40
7.0
 40
7.0
 40
8.0
 40
8.0
 40
8.0
 40
8.0
 10
189.5700784729702
 20
130.33159835135
 30
0.0
 10
188.1698742809765
 20
130.3298931057386
 30
0.0
 10
187.0691265702195
 20
128.9562515800768
 30
0.0
 10
187.0708068518709
 20
127.5765456910211
 30
0.0
 10
187.0708068518709
 20
127.5765456910211
 30
0.0
 10
187.1279646435911
 20
80.64337721314871
 30
0.0
 10
187.1279646435911
 20
80.64337721314871
 30
0.0
 10
187.1296462232636
 20
79.26260549846651
 30
0.0
 10
188.2333003866379
 20
78.24971272615724
 30
0.0
 10
189.6335045786315
 20
78.25141797176866
 30
0.0
 10
189.6335045786315
 20
78.25141797176866
 30
0.0
 10
258.1908521764137
 20
78.33632121415916
 30
0.0
 10
258.1908521764137
 20
78.33632121415916
 30
0.0
 10
259.5910456024891
 20
78.33802644665938
 30
0.0
 10
261.0090181612024
 20
79.35257985755284
 30
0.0
 10
261.0073365815299
 20
80.73335157223504
 30
0.0
 10
261.0073365815299
 20
80.73335157223504
 30
0.0
 10
260.9501787898097
 20
127.6665200501074
 30
0.0
 10
260.9501787898097
 20
127.6665200501074
 30
0.0
 10
260.9484985081583
 20
129.0462259391631
 30
0.0
 10
259.5276212144109
 20
130.4167964913225
 30
0.0
 10
258.1274277883355
 20
130.4150912588222
 30
0.0
 10
258.1274277883355
 20
130.4150912588222
 30
0.0
 10
189.5700784729702
 20
130.33159835135
 30
0.0
 10
189.5700784729702
 20
130.33159835135
 30
0.0
  0
POLYLINE
  5
DA
330
1F
100
AcDbEntity
  8
LAYER_1
 62
     7
100
AcDb2dPolyline
 66
     1
 10
0.0
 20
0.0
 30
0.0
  0
VERTEX
  5
DB
330
DA
100
AcDbEntity
  8
LAYER_1
 62
     7
100
AcDbVertex
100
AcDb2dVertex
 10
193.5098202660593
 20
84.04246310981846
 30
0.0
  0
VERTEX
  5
DC
330
DA
100
AcDbEntity
  8
LAYER_1
 62
     7
100
AcDbVertex
100
AcDb2dVertex
 10
193.4604862163401
 20
124.5514330588453
 30
0.0
  0
VERTEX
  5
DD
330
DA
100
AcDbEntity
  8
LAYER_1
 62
     7
100
AcDbVertex
100
AcDb2dVertex
 10
254.5682527062895
 20
124.6258534549706
 30
0.0
  0
VERTEX
  5
DE
330
DA
100
AcDbEntity
  8
LAYER_1
 62
     7
100
AcDbVertex
100
AcDb2dVertex
 10
254.6175867560087
 20
84.1168835059451
 30
0.0
  0
VERTEX
  5
DF
330
DA
100
AcDbEntity
  8
LAYER_1
 62
     7
100
AcDbVertex
100
AcDb2dVertex
 10
193.5098202660593
 20
84.04246310981846
 30
0.0
  0
SEQEND
  5
E0
330
DA
100
AcDbEntity
  8
LAYER_1
 62
     7
  0
ENDSEC
  0
SECTION
  2
OBJECTS
  0
DICTIONARY
  5
C
330
0
100
AcDbDictionary
  3
ACAD_GROUP
350
D
  3
ACAD_LAYOUT
350
1A
  3
ACAD_MATERIAL
350
3B
  3
ACAD_MLEADERSTYLE
350
E3
  3
ACAD_MLINESTYLE
350
17
  3
ACAD_PLOTSETTINGS
350
19
  3
ACAD_VISUALSTYLE
350
2A
  3
ACDBVARIABLEDICTIONARY
350
E1
1001
ACAD
1000
TREAT_AS_HARD
1070
     0
  0
DICTIONARY
  5
D
102
{ACAD_REACTORS
330
C
102
}
330
C
100
AcDbDictionary
1001
ACAD
1000
TREAT_AS_HARD
1070
     0
  0
DICTIONARY
  5
1A
102
{ACAD_REACTORS
330
C
102
}
330
C
100
AcDbDictionary
1001
ACAD
1000
TREAT_AS_HARD
1070
     0
  0
DICTIONARY
  5
3B
102
{ACAD_REACTORS
330
C
102
}
330
C
100
AcDbDictionary
  3
BYBLOCK
350
3D
  3
BYLAYER
350
3C
  3
GLOBAL
350
3E
1001
ACAD
1000
TREAT_AS_HARD
1070
     0
  0
DICTIONARY
  5
E3
102
{ACAD_REACTORS
330
C
102
}
330
C
100
AcDbDictionary
1001
ACAD
1000
TREAT_AS_HARD
1070
     0
  0
DICTIONARY
  5
17
102
{ACAD_REACTORS
330
C
102
}
330
C
100
AcDbDictionary
  3
STANDARD
350
18
1001
ACAD
1000
TREAT_AS_HARD
1070
     0
  0
DICTIONARY
  5
19
102
{ACAD_REACTORS
330
C
102
}
330
C
100
AcDbDictionary
1001
ACAD
1000
TREAT_AS_HARD
1070
     0
  0
DICTIONARY
  5
2A
102
{ACAD_REACTORS
330
C
102
}
330
C
100
AcDbDictionary
  3
2DWIREFRAME
350
2F
  3
3DWIREFRAME
350
30
  3
3D_HIDDEN
350
31
  3
BASIC
350
32
  3
BRIGHTEN
350
36
  3
COLORCHANGE
350
3A
  3
CONCEPTUAL
350
34
  3
DIM
350
35
  3
FACEPATTERN
350
39
  3
FLAT
350
2B
  3
FLATWITHEDGES
350
2C
  3
GOURAUD
350
2D
  3
GOURAUDWITHEDGES
350
2E
  3
LINEPATTERN
350
38
  3
REALISTIC
350
33
  3
THICKEN
350
37
1001
ACAD
1000
TREAT_AS_HARD
1070
     0
  0
DICTIONARY
  5
E1
102
{ACAD_REACTORS
330
C
102
}
330
C
100
AcDbDictionary
  3
DIMASSOC
350
E4
  3
HIDETEXT
350
E5
1001
ACAD
1000
TREAT_AS_HARD
1070
     0
  0
MATERIAL
  5
3D
102
{ACAD_REACTORS
330
3B
102
}
102
{ACAD_XDICTIONARY
360
E8
102
}
330
3B
100
AcDbMaterial
  1
ByBlock
  0
MATERIAL
  5
3C
102
{ACAD_REACTORS
330
3B
102
}
102
{ACAD_XDICTIONARY
360
E6
102
}
330
3B
100
AcDbMaterial
  1
ByLayer
  0
MATERIAL
  5
3E
102
{ACAD_REACTORS
330
3B
102
}
102
{ACAD_XDICTIONARY
360
EA
102
}
330
3B
100
AcDbMaterial
  1
Global
  0
MLINESTYLE
  5
18
102
{ACAD_REACTORS
330
17
102
}
330
17
100
AcDbMlineStyle
  2
Standard
 70
     0
  3

 62
   256
 51
90.0
 52
90.0
 71
     2
 49
0.5
 62
   256
  6
BYLAYER
 49
-0.5
 62
   256
  6
BYLAYER
  0
ACAD_PROXY_OBJECT
  5
2F
102
{ACAD_REACTORS
330
2A
102
}
330
2A
100
AcDbZombieObject
 90
      499
 91
      501
 93
      436
310
42CC9915DA5C99599C985B595049028333333333333E3BF0000000000000FB0107901411070040501600405405064090741402480A0340
1001
ACAD
1000
AcDbSavedByObjectVersion
1070
     0
  0
ACAD_PROXY_OBJECT
  5
30
102
{ACAD_REACTORS
330
2A
102
}
330
2A
100
AcDbZombieObject
 90
      499
 91
      501
 93
      436
310
42CCD915DA5C99599C985B595059028333333333333E3BF0000000000000FB0107901411070040501600405405064090741402480A0340
1001
ACAD
1000
AcDbSavedByObjectVersion
1070
     0
  0
ACAD_PROXY_OBJECT
  5
31
102
{ACAD_REACTORS
330
2A
102
}
330
2A
100
AcDbZombieObject
 90
      499
 91
      501
 93
      500
310
424CD108121A5919195B90640502408333333333333E3BF0000000000000FB01079024090700405020000000000001110200405405064090740C02480A0340
1001
ACAD
1000
AcDbSavedByObjectVersion
1070
     0
  0
ACAD_PROXY_OBJECT
  5
32
102
{ACAD_REACTORS
330
2A
102
}
330
2A
100
AcDbZombieObject
 90
      499
 91
      501
 93
      388
310
4150985CDA58D07406404333333333333E3BF0000000000000FB0107A41107004050150841D405064090741402480A0350
1001
ACAD
1000
AcDbSavedByObjectVersion
1070
     0
  0
ACAD_PROXY_OBJECT
  5
36
102
{ACAD_REACTORS
330
2A
102
}
330
2A
100
AcDbZombieObject
 90
      499
 91
      501
 93
      428
310
42109C9A59DA1D195B90C409028333333333333E3BF0000000000000FB010790141107004050150841D405064090741402480A029950
1001
ACAD
1000
AcDbSavedByObjectVersion
1070
     0
  0
ACAD_PROXY_OBJECT
  5
3A
102
{ACAD_REACTORS
330
2A
102
}
330
2A
100
AcDbZombieObject
 90
      499
 91
      501
 93
      452
310
42D0DBDB1BDC90DA185B99D95104090240C333333333333E3BF0000000000000FB0108901411070040501508421405064090741402480A0350
1001
ACAD
1000
AcDbSavedByObjectVersion
1070
     0
  0
ACAD_PROXY_OBJECT
  5
34
102
{ACAD_REACTORS
330
2A
102
}
330
2A
100
AcDbZombieObject
 90
      499
 91
      501
 93
      500
310
4290DBDB98D95C1D1D585B10940D028333333333333E3BF0000000000000FB0107902409070040501000000000000111010841D405064090740C02480A0340
1001
ACAD
1000
AcDbSavedByObjectVersion
1070
     0
  0
ACAD_PROXY_OBJECT
  5
35
102
{ACAD_REACTORS
330
2A
102
}
330
2A
100
AcDbZombieObject
 90
      499
 91
      501
 93
      412
310
40D11A5B50B409028333333333333E3BF0000000000000FB010790141107004050150841D405064090741402480A02677FFFFFD0
1001
ACAD
1000
AcDbSavedByObjectVersion
1070
     0
  0
ACAD_PROXY_OBJECT
  5
39
102
{ACAD_REACTORS
330
2A
102
}
330
2A
100
AcDbZombieObject
 90
      499
 91
      501
 93
      444
310
42D19858D95C185D1D195C9B90F409028333333333333E3BF0000000000000FB010790141107004050150841D405064090741402480A0350
1001
ACAD
1000
AcDbSavedByObjectVersion
1070
     0
  0
ACAD_PROXY_OBJECT
  5
2B
102
{ACAD_REACTORS
330
2A
102
}
330
2A
100
AcDbZombieObject
 90
      499
 91
      501
 93
      388
310
41119B185D240901404333333333333E3BF0000000000000F9010740A41107004050150841D405064090741402480A1B50
1001
ACAD
1000
AcDbSavedByObjectVersion
1070
     0
  0
ACAD_PROXY_OBJECT
  5
2C
102
{ACAD_REACTORS
330
2A
102
}
330
2A
100
AcDbZombieObject
 90
      499
 91
      501
 93
      476
310
43519B185D15DA5D1A115919D95CD0140901404333333333333E3BF0000000000000F9010740901411070040501600405405064090741402480A1B50
1001
ACAD
1000
AcDbSavedByObjectVersion
1070
     0
  0
ACAD_PROXY_OBJECT
  5
2D
102
{ACAD_REACTORS
330
2A
102
}
330
2A
100
AcDbZombieObject
 90
      499
 91
      501
 93
      412
310
41D1DBDD5C985D5910240902404333333333333E3BF0000000000000F9010740A411070040501641D405064090741402480A1B50
1001
ACAD
1000
AcDbSavedByObjectVersion
1070
     0
  0
ACAD_PROXY_OBJECT
  5
2E
102
{ACAD_REACTORS
330
2A
102
}
330
2A
100
AcDbZombieObject
 90
      499
 91
      501
 93
      500
310
4411DBDD5C985D5915DA5D1A115919D95CD0340902404333333333333E3BF0000000000000F9010740901411070040501600405405064090741402480A1B50
1001
ACAD
1000
AcDbSavedByObjectVersion
1070
     0
  0
ACAD_PROXY_OBJECT
  5
38
102
{ACAD_REACTORS
330
2A
102
}
330
2A
100
AcDbZombieObject
 90
      499
 91
      501
 93
      444
310
42D31A5B995C185D1D195C9B90E409028333333333333E3BF0000000000000FB010790141107004050750841D405064090741402483A0350
1001
ACAD
1000
AcDbSavedByObjectVersion
1070
     0
  0
ACAD_PROXY_OBJECT
  5
33
102
{ACAD_REACTORS
330
2A
102
}
330
2A
100
AcDbZombieObject
 90
      499
 91
      501
 93
      420
310
425499585B1A5CDD1A58D08409028333333333333E3BF0000000000000FB01079019070040501508421405064090741402480A1B40
1001
ACAD
1000
AcDbSavedByObjectVersion
1070
     0
  0
ACAD_PROXY_OBJECT
  5
37
102
{ACAD_REACTORS
330
2A
102
}
330
2A
100
AcDbZombieObject
 90
      499
 91
      501
 93
      412
310
41D51A1A58DAD95B90D409028333333333333E3BF0000000000000FB010790141107004050150C41D405064090741402480A0350
1001
ACAD
1000
AcDbSavedByObjectVersion
1070
     0
  0
DICTIONARYVAR
  5
E4
102
{ACAD_REACTORS
330
E1
102
}
330
E1
100
DictionaryVariables
280
     0
  1
2
  0
DICTIONARYVAR
  5
E5
102
{ACAD_REACTORS
330
E1
102
}
330
E1
100
DictionaryVariables
280
     0
  1
1
  0
DICTIONARY
  5
E8
330
3D
100
AcDbDictionary
  3
ACAD_XREC_ROUNDTRIP
360
E9
1001
ACAD
1000
TREAT_AS_HARD
1070
     1
  0
DICTIONARY
  5
E6
330
3C
100
AcDbDictionary
  3
ACAD_XREC_ROUNDTRIP
360
E7
1001
ACAD
1000
TREAT_AS_HARD
1070
     1
  0
DICTIONARY
  5
EA
330
3E
100
AcDbDictionary
  3
ACAD_XREC_ROUNDTRIP
360
EB
1001
ACAD
1000
TREAT_AS_HARD
1070
     1
  0
XRECORD
  5
E9
102
{ACAD_REACTORS
330
E8
102
}
330
E8
100
AcDbXrecord
102
MATERIAL
148
0.0
149
0.0
149
0.0
 93
        0
 94
      127
282
     0
 72
     1
 77
     1
171
     1
175
     1
179
     1
273
     0
  0
XRECORD
  5
E7
102
{ACAD_REACTORS
330
E6
102
}
330
E6
100
AcDbXrecord
102
MATERIAL
148
0.0
149
0.0
149
0.0
 93
        0
 94
      127
282
     0
 72
     1
 77
     1
171
     1
175
     1
179
     1
273
     0
  0
XRECORD
  5
EB
102
{ACAD_REACTORS
330
EA
102
}
330
EA
100
AcDbXrecord
102
MATERIAL
148
0.0
149
0.0
149
0.0
 93
        0
 94
      127
282
     0
 72
     1
 77
     1
171
     1
175
     1
179
     1
273
     0
  0
ENDSEC
  0
EOF
